<?xml version="1.0" encoding="UTF-8" standalone="no"?>
<!-- Created with Inkscape (http://www.inkscape.org/) -->

<svg
   width="205.16797"
   height="238.03809"
   viewBox="0 0 54.284023 62.98091"
   version="1.1"
   id="svg1"
   xml:space="preserve"
   xmlns="http://www.w3.org/2000/svg"
   xmlns:svg="http://www.w3.org/2000/svg"><defs
     id="defs1" /><g
     id="layer1"
     transform="translate(346.86875,-3777.4563)"><path
       style="opacity:0.978417;fill:none;fill-opacity:0.422091;fill-rule:evenodd;stroke:#000000;stroke-width:0.122482;stroke-linecap:round;stroke-linejoin:round;stroke-miterlimit:5.4;stroke-opacity:1;paint-order:markers fill stroke"
       id="path3-6-6"
       d="m -343.4992,3783.1792 a 2.890347,3.0894818 0 0 1 -1.60626,-2.7608 2.890347,3.0894818 0 0 1 1.59451,-2.7686" /><path
       style="opacity:0.978417;fill:none;fill-opacity:0.422091;fill-rule:evenodd;stroke:#000000;stroke-width:0.264583;stroke-linecap:round;stroke-linejoin:round;stroke-miterlimit:5.4;stroke-dasharray:none;stroke-opacity:1;paint-order:markers fill stroke"
       id="path3-5-3-8"
       d="m -343.49779,3788.6177 a 2.8923986,3.0300834 0 0 1 -1.60825,-2.7077 2.8923986,3.0300834 0 0 1 1.59564,-2.7159" /><path
       style="opacity:0.978417;fill:none;fill-opacity:0.422091;fill-rule:evenodd;stroke:#000000;stroke-width:0.264583;stroke-linecap:round;stroke-linejoin:round;stroke-miterlimit:5.4;stroke-dasharray:none;stroke-opacity:1;paint-order:markers fill stroke"
       d="m 1024.3035,3001.2648 50.7934,-0.061"
       id="path4-7-5"
       transform="translate(-1367.8139,776.38459)" /><path
       style="opacity:0.978417;fill:none;fill-opacity:0.422091;fill-rule:evenodd;stroke:#000000;stroke-width:0.264583;stroke-linecap:round;stroke-linejoin:round;stroke-miterlimit:5.4;stroke-dasharray:none;stroke-opacity:1;paint-order:markers fill stroke"
       d="m 1024.3035,3006.8096 18.5321,-0.061"
       id="path8-5-7"
       transform="translate(-1367.8139,776.38459)" /><path
       style="opacity:0.978417;fill:none;fill-opacity:0.422091;fill-rule:evenodd;stroke:#000000;stroke-width:0.264583;stroke-linecap:round;stroke-linejoin:round;stroke-miterlimit:5.4;stroke-dasharray:none;stroke-opacity:1;paint-order:markers fill stroke"
       d="m 1024.3161,3012.2331 19.7732,0.013"
       id="path9-2-6"
       transform="translate(-1367.8139,776.38459)" /><path
       style="opacity:0.978417;fill:none;fill-opacity:0.422091;fill-rule:evenodd;stroke:#000000;stroke-width:0.264584;stroke-linecap:round;stroke-linejoin:round;stroke-miterlimit:5.4;stroke-dasharray:none;stroke-opacity:1;paint-order:markers fill stroke"
       id="path10-6-1"
       d="m 257.95894,3811.2907 a 9.3511362,10.778245 0 0 1 -2.94232,-10.9011 9.3511362,10.778245 0 0 1 7.2057,-7.833"
       transform="matrix(0.98747365,0.15778398,-0.15410465,0.98805453,0,0)" /><path
       style="opacity:0.978417;fill:none;fill-opacity:0.422091;fill-rule:evenodd;stroke:#000000;stroke-width:0.264583;stroke-linecap:round;stroke-linejoin:round;stroke-miterlimit:5.4;stroke-dasharray:none;stroke-opacity:1;paint-order:markers fill stroke"
       id="path12-3-8"
       d="m -328.65449,3803.3114 a 5.436583,5.7210493 0 0 1 1.33878,-7.2562 5.436583,5.7210493 0 0 1 7.02189,0.1897 5.436583,5.7210493 0 0 1 0.98314,7.319" /><path
       style="opacity:0.978417;fill:none;fill-opacity:0.422091;fill-rule:evenodd;stroke:#000000;stroke-width:0.264583;stroke-linecap:round;stroke-linejoin:round;stroke-miterlimit:5.4;stroke-dasharray:none;stroke-opacity:1;paint-order:markers fill stroke"
       d="m 1039.1594,3026.9269 c 0.2991,0.6731 0.2687,1.4837 -0.08,2.1325 -0.2912,0.5419 -0.7904,0.9618 -1.3617,1.1901 -0.8065,0.3223 -1.7577,0.2583 -2.5138,-0.1691"
       id="path13-6-9"
       transform="translate(-1367.8139,776.38459)" /><path
       style="opacity:0.978417;fill:none;fill-opacity:0.422091;fill-rule:evenodd;stroke:#000000;stroke-width:0.264583;stroke-linecap:round;stroke-linejoin:round;stroke-miterlimit:5.4;stroke-dasharray:none;stroke-opacity:1;paint-order:markers fill stroke"
       d="m 1048.5032,3027.1794 c -0.2397,0.3763 -0.5002,0.7393 -0.7798,1.087 -0.2435,0.3028 -0.5043,0.5964 -0.8179,0.8259 -0.5947,0.4352 -1.3522,0.6203 -1.9109,1.1009 -0.406,0.3492 -0.6799,0.8377 -0.8156,1.3558 -0.1377,0.5259 -0.1377,1.0872 0,1.6131"
       id="path14-8-2"
       transform="translate(-1367.8139,776.38459)" /><path
       style="opacity:0.978417;fill:none;fill-opacity:0.422091;fill-rule:evenodd;stroke:#000000;stroke-width:0.264583;stroke-linecap:round;stroke-linejoin:round;stroke-miterlimit:5.4;stroke-dasharray:none;stroke-opacity:1;paint-order:markers fill stroke"
       d="m 1044.4704,3034.2282 c 0.8954,0.5697 2.0059,0.7919 3.0516,0.6106 1.0351,-0.1794 1.9792,-0.7369 2.7441,-1.457 0.7649,-0.7201 1.3637,-1.5985 1.8914,-2.5069 0.9487,-1.633 1.6876,-3.3877 2.1929,-5.2074"
       id="path16-2-7"
       transform="translate(-1367.8139,776.38459)" /><path
       style="opacity:0.978417;fill:none;fill-opacity:0.422091;fill-rule:evenodd;stroke:#000000;stroke-width:0.264583;stroke-linecap:round;stroke-linejoin:round;stroke-miterlimit:5.4;stroke-dasharray:none;stroke-opacity:1;paint-order:markers fill stroke"
       d="m 1054.3504,3025.6675 c 0.4299,-1.4445 1.1762,-2.794 2.1711,-3.9261 1.5379,-1.7499 3.6753,-2.9628 5.9663,-3.3856"
       id="path17-1-9"
       transform="translate(-1367.8139,776.38459)" /><path
       style="opacity:0.978417;fill:none;fill-opacity:0.422091;fill-rule:evenodd;stroke:#000000;stroke-width:0.264583;stroke-linecap:round;stroke-linejoin:round;stroke-miterlimit:5.4;stroke-dasharray:none;stroke-opacity:1;paint-order:markers fill stroke"
       d="m 1062.4878,3018.3558 12.4602,-0.046"
       id="path18-7-5"
       transform="translate(-1367.8139,776.38459)" /><path
       style="opacity:0.978417;fill:none;fill-opacity:0.422091;fill-rule:evenodd;stroke:#000000;stroke-width:0.264583;stroke-linecap:round;stroke-linejoin:round;stroke-miterlimit:5.4;stroke-dasharray:none;stroke-opacity:1;paint-order:markers fill stroke"
       d="m 1075.0969,3001.2039 -0.1489,17.1058"
       id="path19-9-4"
       transform="translate(-1367.8139,776.38459)" /><ellipse
       style="opacity:0.978417;fill:#23b26d;fill-opacity:1;fill-rule:evenodd;stroke:#000000;stroke-width:0.0926042;stroke-linecap:round;stroke-linejoin:round;stroke-miterlimit:5.4;stroke-opacity:1;paint-order:markers fill stroke"
       id="path20-3-3"
       cx="-324.3699"
       cy="3783.0696"
       rx="1.2151417"
       ry="1.2985415" /><circle
       style="opacity:0.978417;fill:none;fill-opacity:0.422091;fill-rule:evenodd;stroke:#000000;stroke-width:0.264583;stroke-linecap:round;stroke-linejoin:round;stroke-miterlimit:5.4;stroke-dasharray:none;stroke-opacity:1;paint-order:markers fill stroke"
       id="path22-4-1"
       cx="-328.31119"
       cy="3811.3831"
       r="5.0270834" /><circle
       style="opacity:0.978417;fill:none;fill-opacity:0.422091;fill-rule:evenodd;stroke:#000000;stroke-width:0.264583;stroke-linecap:round;stroke-linejoin:round;stroke-miterlimit:5.4;stroke-dasharray:none;stroke-opacity:1;paint-order:markers fill stroke"
       id="path22-1-21-2"
       cx="-336.42374"
       cy="3826.2808"
       r="5.0270834" /><circle
       style="opacity:0.978417;fill:none;fill-opacity:0.422091;fill-rule:evenodd;stroke:#000000;stroke-width:0.264583;stroke-linecap:round;stroke-linejoin:round;stroke-miterlimit:5.4;stroke-dasharray:none;stroke-opacity:1;paint-order:markers fill stroke"
       id="path22-1-24-2-3"
       cx="-326.28116"
       cy="3826.2808"
       r="5.0270834" /><circle
       style="opacity:0.978417;fill:none;fill-opacity:0.422091;fill-rule:evenodd;stroke:#000000;stroke-width:0.264583;stroke-linecap:round;stroke-linejoin:round;stroke-miterlimit:5.4;stroke-dasharray:none;stroke-opacity:1;paint-order:markers fill stroke"
       id="path22-1-4-3-3"
       cx="-331.66141"
       cy="3835.2776"
       r="5.0270834" /><circle
       style="opacity:0.978417;fill:none;fill-opacity:0.422091;fill-rule:evenodd;stroke:#000000;stroke-width:0.264583;stroke-linecap:round;stroke-linejoin:round;stroke-miterlimit:5.4;stroke-dasharray:none;stroke-opacity:1;paint-order:markers fill stroke"
       id="path22-1-4-2-9-4"
       cx="-341.70938"
       cy="3835.0273"
       r="5.0270834" /><circle
       style="opacity:0.978417;fill:none;fill-opacity:0.422091;fill-rule:evenodd;stroke:#000000;stroke-width:0.264583;stroke-linecap:round;stroke-linejoin:round;stroke-miterlimit:5.4;stroke-dasharray:none;stroke-opacity:1;paint-order:markers fill stroke"
       id="path22-1-24-4-8-1"
       cx="-321.51883"
       cy="3835.2776"
       r="5.0270834" /><circle
       style="opacity:0.978417;fill:#23b26d;fill-opacity:1;fill-rule:evenodd;stroke:#000000;stroke-width:0.0926042;stroke-linecap:round;stroke-linejoin:round;stroke-miterlimit:5.4;stroke-opacity:1;paint-order:markers fill stroke"
       id="path21-7-1"
       cx="-323.49429"
       cy="3809.8687"
       r="0.79374999" /><circle
       style="opacity:0.978417;fill:#23b26d;fill-opacity:1;fill-rule:evenodd;stroke:#000000;stroke-width:0.0803439;stroke-linecap:round;stroke-linejoin:round;stroke-miterlimit:5.4;stroke-opacity:1;paint-order:markers fill stroke"
       id="path11-1-3"
       cx="-330.34244"
       cy="3806.9604"
       r="0.79374999" /></g></svg>
