<?xml version="1.0" encoding="UTF-8" standalone="no"?>
<!-- Created with Inkscape (http://www.inkscape.org/) -->

<svg
   width="485"
   height="675"
   viewBox="0 0 128.32291 178.59375"
   version="1.1"
   id="svg1"
   sodipodi:docname="FormaulaBi-logo.svg"
   inkscape:version="1.3.2 (091e20e, 2023-11-25, custom)"
   xmlns:inkscape="http://www.inkscape.org/namespaces/inkscape"
   xmlns:sodipodi="http://sodipodi.sourceforge.net/DTD/sodipodi-0.dtd"
   xmlns="http://www.w3.org/2000/svg"
   xmlns:svg="http://www.w3.org/2000/svg">
  <sodipodi:namedview
     id="namedview1"
     pagecolor="#505050"
     bordercolor="#eeeeee"
     borderopacity="1"
     inkscape:showpageshadow="0"
     inkscape:pageopacity="0"
     inkscape:pagecheckerboard="0"
     inkscape:deskcolor="#505050"
     inkscape:document-units="px"
     inkscape:zoom="0.76662259"
     inkscape:cx="106.96267"
     inkscape:cy="521.11691"
     inkscape:window-width="2560"
     inkscape:window-height="1494"
     inkscape:window-x="-11"
     inkscape:window-y="-11"
     inkscape:window-maximized="1"
     inkscape:current-layer="g27-6-0-6" />
  <defs
     id="defs1">
    <inkscape:path-effect
       effect="spiro"
       id="path-effect17-6-7-0-5-7-1"
       is_visible="true"
       lpeversion="1" />
  </defs>
  <g
     inkscape:label="Layer 1"
     inkscape:groupmode="layer"
     id="layer1">
    <g
       id="g1"
       transform="matrix(2.4954503,0,0,2.1687205,-281.00111,12.685284)">
      <g
         id="g27-6-0-6"
         transform="matrix(0.12532637,0,0,0.14044363,372.76137,72.40108)"
         style="stroke:#000000;stroke-opacity:1">
        <g
           id="g2"
           transform="translate(-96.424961,-148.48978)">
          <ellipse
             style="fill:#ffffff;fill-opacity:1;stroke:#ffffff;stroke-width:1.56367;stroke-linecap:round;stroke-linejoin:round;stroke-miterlimit:5.4;stroke-dasharray:none;stroke-dashoffset:0;stroke-opacity:1;paint-order:markers fill stroke"
             id="path30-3-3-2-7-0-8-0"
             cx="150.65054"
             cy="44.448936"
             rx="0.59077352"
             ry="0.68666148"
             transform="matrix(7.9791667,0,0,7.1202945,-2974.3251,-515.51701)" />
          <ellipse
             style="fill:#ffffff;fill-opacity:1;stroke:#ffffff;stroke-width:2.16625;stroke-linecap:round;stroke-linejoin:round;stroke-miterlimit:5.4;stroke-dasharray:none;stroke-dashoffset:0;stroke-opacity:1;paint-order:markers fill stroke"
             id="path30-6-0-4-6-6-5"
             cx="155.18803"
             cy="34.439102"
             rx="0.81862783"
             ry="0.95104373"
             transform="matrix(7.9791667,0,0,7.1202945,-2974.3251,-515.51701)" />
          <ellipse
             style="fill:#ffffff;fill-opacity:1;stroke:#ffffff;stroke-width:1.56367;stroke-linecap:round;stroke-linejoin:round;stroke-miterlimit:5.4;stroke-dasharray:none;stroke-dashoffset:0;stroke-opacity:1;paint-order:markers fill stroke"
             id="path30-3-1-4-7-9-7"
             cx="151.53564"
             cy="16.552088"
             rx="0.59077352"
             ry="0.68666148"
             transform="matrix(7.9791667,0,0,7.1202945,-2974.3251,-515.51701)" />
          <rect
             style="fill:none;fill-opacity:1;stroke:#ffffff;stroke-width:10.9124;stroke-linecap:round;stroke-linejoin:round;stroke-miterlimit:5.4;stroke-dasharray:none;stroke-opacity:1;paint-order:markers fill stroke"
             id="rect2-8-0-7-3-1-7"
             width="180.76964"
             height="41.978786"
             x="-1864.6327"
             y="-347.28726"
             ry="20.989393" />
          <path
             d="m -1831.7378,-305.30853 c -9.5801,0 -11.7328,7.8051 -11.7328,17.5008 v 136.486 c -26.9069,33.0707 -48.7835,76.8337 -66.3394,107.0863 -27.4203,47.2483995 -84.2338,129.0337 -53.1731,173.9975 35.0049,50.6749 140.0058,41.1893 201.8107,41.1901 54.8406,0 154.4436,8.0488 178.055,-41.1943 26.6097,-55.4964 -34.1529,-141.2175 -65.0549,-194.467 -14.3268,-24.6875 -32.8854,-60.9277 -55.1062,-89.3695 v -133.7291 c 0,-9.6957 -2.944,-17.5008 -12.5233,-17.5008 z"
             style="fill:none;stroke:#ffffff;stroke-width:10.9132;stroke-linecap:round;stroke-linejoin:round;stroke-miterlimit:5.4;stroke-opacity:1;paint-order:markers fill stroke"
             id="path35-3-8-6-27-1-2"
             sodipodi:nodetypes="sccssssscsss" />
          <path
             style="fill:none;fill-opacity:0.450168;stroke:#ffffff;stroke-width:11.4007;stroke-linecap:round;stroke-linejoin:round;stroke-miterlimit:5.4;stroke-dasharray:none;stroke-opacity:1;paint-order:fill markers stroke"
             d="m -3240.0896,-2163.8207 c 11.5312,-6.3025 22.5934,-13.4626 33.0653,-21.4017 5.0509,-3.8293 9.9648,-7.8397 14.7233,-12.0268 15.6246,-13.7485 29.5357,-29.3732 42.1014,-45.9639 15.5373,-20.5141 29.028,-42.4931 42.1014,-64.6589 8.4657,-14.3534 16.8236,-28.8823 27.4997,-41.6771 5.2193,-6.2551 11.0651,-12.1387 18.1304,-16.1945 6.0927,-3.4975 13.0521,-5.5583 20.0772,-5.5966 7.5198,-0.041 14.9559,2.2285 21.5075,5.9197 6.5516,3.6913 12.2529,8.7675 17.1868,14.4425 5.8335,6.7098 10.6229,14.2494 15.3318,21.7911 10.0551,16.104 19.8562,32.3706 30.2983,48.2263 7.4958,11.382 15.3198,22.5484 23.4843,33.4607 14.9306,19.9554 31.1007,39.1602 50.1323,55.2519 10.1513,8.5832 21.0807,16.2457 32.6103,22.8628"
             id="path17-7-8-3-3"
             transform="translate(1270.2223,2278.7577)"
             sodipodi:nodetypes="cssssssssssssc"
             inkscape:original-d="m -3240.0896,-2163.8207 c 11.0218,-7.134 22.0435,-14.2678 33.0653,-21.4017 11.0218,-7.134 9.8156,-8.0178 14.7233,-12.0268 4.9078,-4.009 28.0676,-30.6425 42.1014,-45.9639 14.0338,-15.3213 28.0676,-43.1059 42.1014,-64.6589 14.0338,-21.553 18.3331,-27.7847 27.4997,-41.6771 9.1666,-13.8924 12.0869,-10.7964 18.1304,-16.1945 6.0434,-5.3981 13.3848,-3.731 20.0772,-5.5966 6.6924,-1.8656 25.7962,13.5748 38.6943,20.3622 12.8982,6.7874 10.2212,14.5274 15.3318,21.7911 5.1105,7.2638 20.1989,32.1509 30.2983,48.2263 10.0995,16.0755 15.6563,22.3071 23.4843,33.4607 7.8281,11.1537 33.4216,36.8345 50.1323,55.2519 16.7108,18.4173 21.7402,15.2419 32.6103,22.8628"
             inkscape:path-effect="#path-effect17-6-7-0-5-7-1" />
          <path
             style="fill:#1f975d;fill-opacity:1;stroke:#ffffff;stroke-width:2.89541;stroke-linecap:round;stroke-linejoin:round;stroke-miterlimit:5.4;stroke-dasharray:none;stroke-opacity:1;paint-order:fill markers stroke"
             d="m -1877.8683,162.71352 c -44.9152,-6.34501 -73.7272,-18.27093 -82.5192,-40.64784 l -2.9746,-7.57074 14.8619,-9.51913 c 19.4784,-12.47568 58.1613,-50.5282 74.6974,-73.47982 7.1723,-9.95486 22.1961,-33.1263405 33.3864,-51.49225 25.6752,-42.13868 35.9726,-55.81218 47.3492,-62.8728 16.3531,-10.149 30.4971,-9.35414 46.6316,2.62065 10.0133,7.43157 17.0879,16.91012 41.1336,55.11011 40.7967,64.81156 78.7875,109.48974 108.9802,128.1641 11.4135,7.05909 13.1462,10.10949 12.0382,15.46244 -4.5135,21.80429 -35.3526,38.47967 -72.8173,46.57045 -18.8547,4.07168 -194.195,1.40871 -220.7674,-2.34517 z"
             id="path18-4-8-5-9"
             sodipodi:nodetypes="ssccsssssscss" />
          <ellipse
             style="fill:#1f975d;fill-opacity:1;stroke:#ffffff;stroke-width:2.88892;stroke-linecap:round;stroke-linejoin:round;stroke-miterlimit:5.4;stroke-opacity:1;paint-order:fill markers stroke"
             id="path26-49-3-9-3-8-0"
             cx="-1964.8098"
             cy="109.19111"
             rx="4.7868013"
             ry="4.6559772" />
          <g
             id="g29-1-1-4-7-0-8-4"
             transform="matrix(111.12419,0,0,111.87833,-2637.4723,-986.87463)"
             style="stroke:#000000;stroke-opacity:1">
            <path
               id="path8-1-4-2-6-8-9-6"
               style="fill:#f2f5f4;fill-opacity:1;stroke:#ffffff;stroke-width:0.0511747;stroke-linecap:round;stroke-linejoin:round;stroke-miterlimit:5.4;stroke-dasharray:none;stroke-opacity:1;paint-order:markers fill stroke"
               d="M 8.075345,9.419383 A 0.28524065,0.29081014 0 0 1 7.7901044,9.7101932 0.28524065,0.29081014 0 0 1 7.5048637,9.419383 0.28524065,0.29081014 0 0 1 7.7901044,9.1285729 0.28524065,0.29081014 0 0 1 8.075345,9.419383 Z" />
            <g
               id="g15-8-5-5-5-4-8-9"
               transform="matrix(0.06737164,0,0,0.06512362,3.9843438,4.5829024)"
               style="stroke:#000000;stroke-opacity:1">
              <ellipse
                 style="fill:none;fill-opacity:1;stroke:#ffffff;stroke-width:0.343345;stroke-linecap:round;stroke-linejoin:round;stroke-miterlimit:5.4;stroke-dasharray:none;stroke-opacity:1;paint-order:markers fill stroke"
                 id="path16-5-0-9-8-2-6-0-7"
                 cx="56.488998"
                 cy="74.266151"
                 rx="6.2746849"
                 ry="11.652822" />
              <g
                 id="text12-3-8-83-7-7-7-1"
                 style="font-size:5.73688px;font-family:Arial;-inkscape-font-specification:Arial;letter-spacing:0px;word-spacing:-0.172107px;fill:#1f975d;fill-opacity:1;stroke:none;stroke-width:0.172107;stroke-linecap:round;stroke-linejoin:round;stroke-miterlimit:5.4;stroke-opacity:1;paint-order:markers fill stroke"
                 transform="scale(1.0299472,0.97092355)"
                 aria-label="fx">
                <path
                   style="font-style:italic;font-family:'Lucida Calligraphy';-inkscape-font-specification:'Lucida Calligraphy Italic';fill:#1f975d;fill-opacity:1;stroke:none;stroke-opacity:1"
                   d="m 50.902387,79.840467 0.400573,-0.41738 q 0.268917,0.109247 0.549038,0.109247 0.400573,0 0.616266,-0.271718 0.218495,-0.271717 0.324941,-0.899188 l 0.537832,-3.184977 h -0.627471 l 0.196085,-0.20729 h 0.473404 l 0.0084,-0.03642 q 0.159669,-0.812352 0.736718,-1.319371 0.57705,-0.50982 1.338979,-0.50982 0.243705,0 0.450995,0.04762 l -0.400573,0.425784 q -0.260513,-0.16247 -0.535031,-0.16247 -0.420182,0 -0.62467,0.249308 -0.204489,0.246507 -0.336146,0.907592 l -0.08123,0.397772 h 1.047653 l -0.226898,0.249308 q -0.355754,-0.04202 -0.714309,-0.04202 H 53.89128 l -0.408977,2.409041 q -0.184879,1.098075 -0.736718,1.694733 -0.551838,0.596658 -1.383798,0.596658 -0.218495,0 -0.459399,-0.03642 z"
                   id="path27-7-1-3-3-5-0-0" />
                <path
                   style="font-family:'Lucida Calligraphy';-inkscape-font-specification:'Lucida Calligraphy';fill:#1f975d;fill-opacity:1;stroke:none;stroke-opacity:1"
                   d="m 54.829685,78.011276 0.246507,-0.512621 q 0.103644,0.05882 0.235301,0.05882 0.425784,0 1.067262,-0.767532 l 0.168072,-0.204488 -0.380964,-0.896388 q -0.142862,-0.338946 -0.280122,-0.338946 -0.168072,0 -0.50982,0.456597 l 0.07283,-0.366958 q 0.408976,-0.537833 0.700302,-0.537833 0.271718,0 0.509821,0.543435 l 0.319338,0.731116 0.182078,-0.2325 q 0.817954,-1.042051 1.34178,-1.042051 0.140061,0 0.288525,0.09244 l -0.288525,0.509821 q -0.114849,-0.07003 -0.221295,-0.07003 -0.465001,0 -1.092472,0.767532 l -0.134459,0.16247 0.420182,0.977623 q 0.145663,0.350151 0.291326,0.350151 0.198886,0 0.55464,-0.41738 l -0.06723,0.336145 q -0.428586,0.470604 -0.759128,0.470604 -0.316537,0 -0.512622,-0.4622 l -0.361356,-0.857171 -0.226898,0.288525 q -0.80955,1.030846 -1.266148,1.030846 -0.114849,0 -0.296928,-0.07003 z"
                   id="path28-3-1-9-6-4-4-6" />
              </g>
              <ellipse
                 style="fill:none;fill-opacity:1;stroke:#ffffff;stroke-width:0.344148;stroke-linecap:round;stroke-linejoin:round;stroke-miterlimit:5.4;stroke-dasharray:none;stroke-opacity:1;paint-order:markers fill stroke"
                 id="path16-56-3-5-7-3-7-1"
                 cx="93.643364"
                 cy="13.38102"
                 rx="5.9681602"
                 ry="12.30866"
                 transform="matrix(0.7128101,0.70135709,-0.76681887,0.64186356,0,0)" />
              <ellipse
                 style="fill:none;fill-opacity:1;stroke:#fcfcfc;stroke-width:0.344148;stroke-linecap:round;stroke-linejoin:round;stroke-miterlimit:5.4;stroke-dasharray:none;stroke-opacity:1;paint-order:markers fill stroke"
                 id="path16-9-9-2-6-6-4-9-8"
                 cx="20.787334"
                 cy="92.989922"
                 rx="5.9681602"
                 ry="12.30866"
                 transform="matrix(-0.7128101,0.70135709,0.76681887,0.64186355,0,0)" />
              <text
                 xml:space="preserve"
                 style="font-style:normal;font-variant:normal;font-weight:bold;font-stretch:normal;font-size:53.2589px;font-family:'Gotham Office';-inkscape-font-specification:'Gotham Office Bold';letter-spacing:0px;word-spacing:-7.98886px;fill:#1f5e3b;fill-opacity:1;stroke:#000000;stroke-width:2.04115;stroke-linecap:round;stroke-linejoin:round;stroke-miterlimit:5.4;stroke-opacity:1;paint-order:markers fill stroke"
                 x="55.955093"
                 y="48.876579"
                 id="text17-9-1-8-9-9-2-8"
                 transform="scale(0.98317473,1.0171132)"><tspan
                   sodipodi:role="line"
                   id="tspan17-0-1-2-7-2-2-7"
                   style="stroke:#000000;stroke-width:2.04115;stroke-opacity:1"
                   x="55.955093"
                   y="48.876579" /></text>
            </g>
          </g>
          <ellipse
             style="fill:#1f975d;fill-opacity:1;stroke:#ffffff;stroke-width:2.88892;stroke-linecap:round;stroke-linejoin:round;stroke-miterlimit:5.4;stroke-opacity:1;paint-order:fill markers stroke"
             id="path26-4-1-5-7-1"
             cx="-1661.7596"
             cy="29.278002"
             rx="4.7868013"
             ry="4.6559772" />
          <ellipse
             style="fill:#1f975d;fill-opacity:1;stroke:#ffffff;stroke-width:2.88892;stroke-linecap:round;stroke-linejoin:round;stroke-miterlimit:5.4;stroke-opacity:1;paint-order:fill markers stroke"
             id="path26-49-8-1-0-0"
             cx="-1883.0249"
             cy="34.858902"
             rx="4.7868013"
             ry="4.6559772" />
          <ellipse
             style="fill:#1f975d;fill-opacity:1;stroke:#ffffff;stroke-width:2.88892;stroke-linecap:round;stroke-linejoin:round;stroke-miterlimit:5.4;stroke-opacity:1;paint-order:fill markers stroke"
             id="path26-9-9-6-0"
             cx="-1771.8037"
             cy="-94.976822"
             rx="4.7868013"
             ry="4.6559772" />
          <ellipse
             style="fill:#1f975d;fill-opacity:1;stroke:#ffffff;stroke-width:2.88892;stroke-linecap:round;stroke-linejoin:round;stroke-miterlimit:5.4;stroke-opacity:1;paint-order:fill markers stroke"
             id="path26-49-5-8-3-3-5"
             cx="-1583.8402"
             cy="105.8381"
             rx="4.7868013"
             ry="4.6559772" />
        </g>
      </g>
    </g>
  </g>
</svg>
