<?xml version="1.0" encoding="UTF-8" standalone="no"?>
<!-- Created with Inkscape (http://www.inkscape.org/) -->

<svg
   width="99.443695"
   height="36.224392"
   viewBox="0 0 26.311144 9.5843701"
   version="1.1"
   id="svg1"
   xml:space="preserve"
   xmlns="http://www.w3.org/2000/svg"
   xmlns:svg="http://www.w3.org/2000/svg"><defs
     id="defs1"><linearGradient
       id="swatch204"><stop
         style="stop-color:#f2f5f4;stop-opacity:1;"
         offset="0"
         id="stop204" /></linearGradient><linearGradient
       id="swatch203"><stop
         style="stop-color:#000000;stop-opacity:1;"
         offset="0"
         id="stop203" /></linearGradient></defs><g
     id="layer1"
     transform="translate(229.6281,-115.01285)"><g
       id="g184-1-7"
       transform="matrix(0.80460738,0,0,0.80099235,-298.34123,11.986998)"
       style="fill:#181818;fill-opacity:1"><g
         id="g181-2-3"
         transform="translate(30.789558,6.6088561)"
         style="fill:#181818;fill-opacity:1"><path
           style="fill:#181818;fill-opacity:1"
           d="m 58.361482,133.97153 c 0.0092,-0.004 0.02024,-0.003 0.02449,0.001 0.0042,0.004 -0.0033,0.007 -0.01677,0.007 -0.01488,-6.2e-4 -0.01791,-0.004 -0.0077,-0.008 z m 0.638754,0 c 0.0092,-0.004 0.02024,-0.003 0.02449,0.001 0.0042,0.004 -0.0033,0.007 -0.01677,0.007 -0.01488,-6.2e-4 -0.01791,-0.004 -0.0077,-0.008 z m 7.217925,0 c 0.0092,-0.004 0.02024,-0.003 0.02448,0.001 0.0042,0.004 -0.0033,0.007 -0.01677,0.007 -0.01488,-6.2e-4 -0.01791,-0.004 -0.0077,-0.008 z m 7.402364,-0.16853 c 0.07553,-0.002 0.199132,-0.002 0.274665,0 0.07553,0.002 0.01373,0.004 -0.137332,0.004 -0.151066,0 -0.212865,-0.002 -0.137333,-0.004 z m 3.327911,-3e-5 c 0.135256,-0.002 0.356584,-0.002 0.491841,0 0.135256,0.002 0.02459,0.004 -0.245921,0.004 -0.270512,0 -0.381177,-0.002 -0.24592,-0.004 z m 1.865162,0 c 0.135257,-0.002 0.356585,-0.002 0.491841,0 0.135257,0.002 0.02459,0.004 -0.24592,0.004 -0.270513,0 -0.381177,-0.002 -0.245921,-0.004 z m 1.889867,0 c 0.134791,-0.002 0.358994,-0.002 0.498229,-10e-6 0.139235,0.002 0.02895,0.004 -0.245075,0.004 -0.274025,0 -0.387945,-0.002 -0.253154,-0.004 z m 4.609286,-1.82882 c 0,-1.00761 0.0015,-1.41791 0.0034,-0.91178 0.0019,0.50614 0.0019,1.33055 -1e-6,1.83203 -0.0019,0.50147 -0.0034,0.0874 -0.0034,-0.92025 z m 1.801346,-0.98697 c 0,-1.55045 0.0015,-2.18472 0.0033,-1.4095 0.0018,0.77523 0.0018,2.04377 0,2.819 -0.0018,0.77522 -0.0033,0.14095 -0.0033,-1.4095 z m -21.253639,2.10704 c 0.0092,-0.004 0.02024,-0.003 0.02449,0.001 0.0042,0.004 -0.0033,0.007 -0.01677,0.007 -0.01488,-6.2e-4 -0.01791,-0.004 -0.0077,-0.008 z m 0.254704,2.7e-4 c 0.0088,-0.004 0.02315,-0.004 0.03194,0 0.0088,0.004 0.0016,0.007 -0.01597,0.007 -0.01757,0 -0.02475,-0.003 -0.01597,-0.007 z m -7.70258,-0.0519 c 0.0092,-0.004 0.02024,-0.003 0.02449,0.001 0.0042,0.004 -0.0033,0.007 -0.01677,0.007 -0.01488,-6.2e-4 -0.01791,-0.004 -0.0077,-0.008 z m 0.562104,0 c 0.0092,-0.004 0.02024,-0.003 0.02449,0.001 0.0042,0.004 -0.0033,0.007 -0.01677,0.007 -0.01488,-6.2e-4 -0.01791,-0.004 -0.0077,-0.008 z m 2.48715,-0.13311 c 0.01272,-0.0142 0.026,-0.0258 0.02951,-0.0258 0.0035,0 -0.004,0.0116 -0.01673,0.0258 -0.01272,0.0142 -0.026,0.0258 -0.02951,0.0258 -0.0035,0 0.004,-0.0116 0.01673,-0.0258 z m -5.609067,-0.0548 -0.03752,-0.0419 0.04152,0.0379 c 0.02284,0.0208 0.04152,0.0397 0.04152,0.0419 0,0.01 -0.01054,10e-4 -0.04552,-0.0379 z m -0.108472,-0.10966 -0.04403,-0.0484 0.04791,0.0445 c 0.02635,0.0245 0.04791,0.0462 0.04791,0.0484 0,0.01 -0.01081,5.7e-4 -0.05179,-0.0445 z m 8.890519,-0.24513 c -0.01589,-0.0205 -0.01544,-0.0209 0.0048,-0.005 0.0123,0.01 0.02236,0.0199 0.02236,0.0226 0,0.0106 -0.01049,0.004 -0.02718,-0.0177 z m -3.894772,-0.17582 c 0,-0.003 0.01006,-0.0128 0.02236,-0.0226 0.02026,-0.0161 0.02071,-0.0156 0.0048,0.005 -0.01669,0.0215 -0.02718,0.0283 -0.02718,0.0177 z m -4.127983,-0.0564 c -0.01589,-0.0205 -0.01544,-0.0209 0.0048,-0.005 0.0123,0.01 0.02236,0.0199 0.02236,0.0226 0,0.0106 -0.01049,0.004 -0.02718,-0.0177 z m 4.242958,-0.0613 c 0.0165,-0.0177 0.03288,-0.0323 0.03639,-0.0323 0.0035,0 -0.0071,0.0145 -0.02362,0.0323 -0.0165,0.0177 -0.03288,0.0323 -0.03639,0.0323 -0.0035,0 0.0071,-0.0145 0.02362,-0.0323 z m 2.3133,-0.81388 c 6.13e-4,-0.015 0.0036,-0.0181 0.0077,-0.008 0.0037,0.009 0.0032,0.0204 -10e-4,0.0247 -0.0042,0.004 -0.0073,-0.003 -0.0067,-0.0169 z m -0.01177,-0.16019 c 0,-0.0177 0.0029,-0.025 0.0064,-0.0161 0.0035,0.009 0.0035,0.0234 0,0.0323 -0.0035,0.009 -0.0064,0.002 -0.0064,-0.0161 z m 2.078139,-0.0484 c 0.606574,-0.002 1.595366,-0.002 2.197315,0 0.601949,0.002 0.105662,0.003 -1.102862,0.003 -1.208523,0 -1.701027,-0.002 -1.094453,-0.003 z m 3.300173,-0.0806 c 0,-0.0177 0.0029,-0.025 0.0064,-0.0161 0.0035,0.009 0.0035,0.0234 0,0.0323 -0.0035,0.009 -0.0064,0.002 -0.0064,-0.0161 z m 0.01505,-0.25803 c 0,-0.0532 0.0023,-0.075 0.005,-0.0484 0.0028,0.0266 0.0028,0.0702 0,0.0968 -0.0028,0.0266 -0.005,0.005 -0.005,-0.0484 z m -5.394373,-0.072 c 6.13e-4,-0.015 0.0036,-0.0181 0.0077,-0.008 0.0037,0.009 0.0032,0.0204 -10e-4,0.0247 -0.0042,0.004 -0.0073,-0.003 -0.0067,-0.0169 z m 7.219879,-0.1989 c 0,-0.0248 0.0026,-0.035 0.0058,-0.0226 0.0032,0.0124 0.0032,0.0327 0,0.0452 -0.0032,0.0124 -0.0058,0.002 -0.0058,-0.0226 z m -8.82954,-0.0462 c 6.13e-4,-0.015 0.0036,-0.0181 0.0077,-0.008 0.0037,0.009 0.0032,0.0205 -10e-4,0.0247 -0.0042,0.004 -0.0073,-0.003 -0.0067,-0.0169 z m 19.903586,-0.0645 c 6.13e-4,-0.015 0.0036,-0.0181 0.0077,-0.008 0.0037,0.009 0.0032,0.0204 -10e-4,0.0247 -0.0042,0.004 -0.0073,-0.003 -0.0067,-0.0169 z m -7.422326,-0.0129 c 6.13e-4,-0.015 0.0036,-0.0181 0.0077,-0.008 0.0037,0.009 0.0032,0.0204 -10e-4,0.0247 -0.0042,0.004 -0.0073,-0.003 -0.0067,-0.0169 z m -11.495365,-0.12794 c 1.41e-4,-0.0284 0.0028,-0.0385 0.0058,-0.0224 0.0031,0.0161 0.0029,0.0393 -2.58e-4,0.0516 -0.0032,0.0123 -0.0057,-8e-4 -0.0056,-0.0292 z m 10.514503,-0.0323 c 0,-0.039 0.0024,-0.055 0.0053,-0.0355 0.0029,0.0195 0.0029,0.0514 0,0.071 -0.0029,0.0195 -0.0053,0.004 -0.0053,-0.0355 z m 3.651864,-0.14192 c 0,-0.0177 0.0029,-0.025 0.0064,-0.0161 0.0035,0.009 0.0035,0.0234 0,0.0323 -0.0035,0.009 -0.0064,0.002 -0.0064,-0.0161 z m -22.088126,-0.0645 c 0,-0.0177 0.0029,-0.025 0.0064,-0.0161 0.0035,0.009 0.0035,0.0234 0,0.0323 -0.0035,0.009 -0.0064,0.002 -0.0064,-0.0161 z m 0.996457,0 c 0,-0.0177 0.0029,-0.025 0.0064,-0.0161 0.0035,0.009 0.0035,0.0234 0,0.0323 -0.0035,0.009 -0.0064,0.002 -0.0064,-0.0161 z m 6.924097,-0.0258 c 0,-0.0177 0.0029,-0.025 0.0064,-0.0161 0.0035,0.009 0.0035,0.0234 0,0.0323 -0.0035,0.009 -0.0064,0.002 -0.0064,-0.0161 z m -7.920554,-0.43866 c 0,-0.0177 0.0029,-0.025 0.0064,-0.0161 0.0035,0.009 0.0035,0.0234 0,0.0323 -0.0035,0.009 -0.0064,0.002 -0.0064,-0.0161 z m 0.996457,-0.0129 c 0,-0.0177 0.0029,-0.025 0.0064,-0.0161 0.0035,0.009 0.0035,0.0234 0,0.0323 -0.0035,0.009 -0.0064,0.002 -0.0064,-0.0161 z m -0.984691,-0.17524 c 6.13e-4,-0.015 0.0036,-0.0181 0.0077,-0.008 0.0037,0.009 0.0032,0.0204 -0.001,0.0247 -0.0042,0.004 -0.0073,-0.003 -0.0067,-0.0169 z m 12.441239,-0.10537 -0.04403,-0.0484 0.04791,0.0445 c 0.02635,0.0245 0.04791,0.0462 0.04791,0.0484 0,0.01 -0.01081,5.7e-4 -0.05179,-0.0445 z m 5.581772,-0.16772 c -0.01589,-0.0205 -0.01544,-0.0209 0.0048,-0.005 0.0123,0.01 0.02236,0.0199 0.02236,0.0226 0,0.0106 -0.01049,0.004 -0.02718,-0.0177 z m 8.742794,-0.56751 -0.003,-0.41591 -0.463097,-0.004 -0.463097,-0.004 0.463498,-0.003 c 0.363062,-0.002 0.464835,4.6e-4 0.469671,0.0132 0.0034,0.009 0.0046,0.19907 0.0026,0.42253 l -0.0036,0.40628 z m -9.433415,0.29744 c 0.0092,-0.004 0.02024,-0.003 0.02449,0.001 0.0042,0.004 -0.0033,0.007 -0.01677,0.007 -0.01488,-6.2e-4 -0.01791,-0.004 -0.0077,-0.008 z m 3.385398,0 c 0.0092,-0.004 0.02024,-0.003 0.02449,0.001 0.0042,0.004 -0.0033,0.007 -0.01677,0.007 -0.01488,-6.2e-4 -0.01791,-0.004 -0.0077,-0.008 z m 0.268277,0 c 0.0092,-0.004 0.02024,-0.003 0.02449,0.001 0.0042,0.004 -0.0033,0.007 -0.01677,0.007 -0.01488,-6.2e-4 -0.01791,-0.004 -0.0077,-0.008 z m 7.230699,0 c 0.0092,-0.004 0.02024,-0.003 0.02449,0.001 0.0042,0.004 -0.0033,0.007 -0.01677,0.007 -0.01488,-6.2e-4 -0.01791,-0.004 -0.0077,-0.008 z m 0.268277,0 c 0.0092,-0.004 0.02024,-0.003 0.02449,0.001 0.0042,0.004 -0.0033,0.007 -0.01677,0.007 -0.01488,-6.2e-4 -0.01791,-0.004 -0.0077,-0.008 z m -17.349367,-0.0126 c 0.0088,-0.004 0.02316,-0.004 0.03194,0 0.0088,0.004 0.0016,0.007 -0.01597,0.007 -0.01757,0 -0.02475,-0.003 -0.01597,-0.007 z m 0.223807,-4e-4 c 0.01243,-0.003 0.02968,-0.003 0.03833,4.8e-4 0.0086,0.004 -0.0015,0.006 -0.0226,0.006 -0.02108,-2.6e-4 -0.02816,-0.003 -0.01573,-0.006 z m 1.777474,-0.1491 -0.02434,-0.029 0.02874,0.0246 c 0.02701,0.0231 0.03456,0.0335 0.02434,0.0335 -0.0024,0 -0.01536,-0.0131 -0.02874,-0.029 z m 6.337657,-0.0355 c 0.01272,-0.0142 0.026,-0.0258 0.02951,-0.0258 0.0035,0 -0.004,0.0116 -0.01673,0.0258 -0.01272,0.0142 -0.026,0.0258 -0.02951,0.0258 -0.0035,0 0.004,-0.0116 0.01673,-0.0258 z m 0.09581,-0.0968 c 0.0165,-0.0177 0.03288,-0.0323 0.03639,-0.0323 0.0035,0 -0.0071,0.0145 -0.02362,0.0323 -0.0165,0.0177 -0.03288,0.0323 -0.03639,0.0323 -0.0035,0 0.0071,-0.0145 0.02362,-0.0323 z m -4.570288,-0.42896 c 0.131743,-0.002 0.347323,-0.002 0.479066,0 0.131743,0.002 0.02395,0.004 -0.239533,0.004 -0.263486,0 -0.371276,-0.002 -0.239533,-0.004 z m 9.191675,0 c 0.135257,-0.002 0.356585,-0.002 0.491841,0 0.135257,0.002 0.02459,0.004 -0.24592,0.004 -0.270513,0 -0.381177,-0.002 -0.245921,-0.004 z m 7.550907,0 c 0.128686,-0.002 0.335643,-0.002 0.459903,0 0.124261,0.002 0.01897,0.004 -0.233975,0.004 -0.252947,0 -0.354614,-0.002 -0.225928,-0.004 z M 65.617732,127.9981 c 0.0092,-0.004 0.02024,-0.003 0.02448,0.001 0.0042,0.004 -0.0033,0.007 -0.01677,0.007 -0.01488,-6.2e-4 -0.01791,-0.004 -0.0077,-0.008 z m 0.498228,0 c 0.0092,-0.004 0.02024,-0.003 0.02449,0.001 0.0042,0.004 -0.0033,0.007 -0.01677,0.007 -0.01488,-6.2e-4 -0.01791,-0.004 -0.0077,-0.008 z m 6.183142,0 c 0.0092,-0.004 0.02024,-0.003 0.02449,0.001 0.0042,0.004 -0.0033,0.007 -0.01677,0.007 -0.01488,-6.2e-4 -0.01791,-0.004 -0.0077,-0.008 z m 3.653675,0 c 0.0092,-0.004 0.02024,-0.003 0.02449,0.001 0.0042,0.004 -0.0033,0.007 -0.01677,0.007 -0.01488,-6.2e-4 -0.01791,-0.004 -0.0077,-0.008 z m 7.064624,0 c 0.0092,-0.004 0.02024,-0.003 0.02448,0.001 0.0042,0.004 -0.0033,0.007 -0.01677,0.007 -0.01488,-6.2e-4 -0.01791,-0.004 -0.0077,-0.008 z m -26.646437,-0.33149 c 0,-0.003 0.01006,-0.0128 0.02236,-0.0226 0.02026,-0.0161 0.02071,-0.0156 0.0048,0.005 -0.01669,0.0215 -0.02718,0.0283 -0.02718,0.0177 z m 0.166076,-0.16773 c 0,-0.003 0.01006,-0.0128 0.02236,-0.0226 0.02026,-0.016 0.02071,-0.0156 0.0048,0.005 -0.01669,0.0215 -0.02718,0.0283 -0.02718,0.0177 z m 4.701232,-0.27251 c 0.02384,-0.0248 0.04621,-0.0452 0.04972,-0.0452 0.0035,0 -0.01311,0.0203 -0.03695,0.0452 -0.02383,0.0248 -0.04621,0.0452 -0.04973,0.0452 -0.0035,0 0.01311,-0.0203 0.03695,-0.0452 z m 0.260676,-0.39672 -0.02434,-0.029 0.02874,0.0246 c 0.01581,0.0135 0.02874,0.0266 0.02874,0.029 0,0.0103 -0.01028,0.003 -0.03315,-0.0246 z m -0.140526,-0.14192 -0.02434,-0.029 0.02874,0.0246 c 0.01581,0.0135 0.02874,0.0266 0.02874,0.029 0,0.0103 -0.01028,0.003 -0.03315,-0.0246 z m -2.894739,-0.0314 c 0.0092,-0.004 0.02024,-0.003 0.02448,0.001 0.0042,0.004 -0.0033,0.007 -0.01677,0.007 -0.01488,-6.2e-4 -0.01791,-0.004 -0.0077,-0.008 z m 0.420779,2.7e-4 c 0.0088,-0.004 0.02316,-0.004 0.03194,0 0.0088,0.004 0.0016,0.007 -0.01597,0.007 -0.01757,0 -0.02475,-0.003 -0.01597,-0.007 z m 19.475649,-0.17853 c 1.42e-4,-0.0284 0.0028,-0.0385 0.0058,-0.0224 0.0031,0.016 0.0029,0.0393 -2.57e-4,0.0516 -0.0032,0.0123 -0.0057,-8e-4 -0.0056,-0.0292 z m 0.670813,-0.71226 c 0.01589,-0.003 0.03889,-0.003 0.0511,2.6e-4 0.01221,0.003 -7.87e-4,0.006 -0.02889,0.006 -0.0281,-1.4e-4 -0.0381,-0.003 -0.02221,-0.006 z m 7.537153,5.8e-4 c 0.0088,-0.004 0.02315,-0.004 0.03194,0 0.0088,0.004 0.0016,0.007 -0.01597,0.007 -0.01757,0 -0.02475,-0.003 -0.01597,-0.007 z m 0.07665,0 c 0.0088,-0.004 0.02316,-0.004 0.03194,0 0.0088,0.004 0.0016,0.007 -0.01597,0.007 -0.01757,0 -0.02475,-0.003 -0.01597,-0.007 z m -28.359895,-0.039 c 0.0092,-0.004 0.02024,-0.003 0.02448,0.001 0.0042,0.004 -0.0033,0.007 -0.01677,0.007 -0.01488,-6.2e-4 -0.01791,-0.004 -0.0077,-0.008 z m 0.792055,0 c 0.0092,-0.004 0.02024,-0.003 0.02449,0.001 0.0042,0.004 -0.0033,0.007 -0.01677,0.007 -0.01488,-6.2e-4 -0.01791,-0.004 -0.0077,-0.008 z m -0.614003,-0.0126 c 0.0088,-0.004 0.02315,-0.004 0.03194,0 0.0088,0.004 0.0016,0.007 -0.01597,0.007 -0.01757,0 -0.02475,-0.003 -0.01597,-0.007 z m 0.415434,-3.9e-4 c 0.01243,-0.003 0.02968,-0.003 0.03833,4.8e-4 0.0086,0.004 -0.0015,0.006 -0.0226,0.006 -0.02108,-2.6e-4 -0.02816,-0.003 -0.01573,-0.006 z"
           id="path184-7-1" /><path
           style="fill:#181818;fill-opacity:1"
           d="m 58.399009,133.9718 c 0.0088,-0.004 0.02316,-0.004 0.03194,0 0.0088,0.004 0.0016,0.007 -0.01597,0.007 -0.01757,0 -0.02475,-0.003 -0.01597,-0.007 z m 0.549329,0 c 0.0088,-0.004 0.02315,-0.004 0.03194,0 0.0088,0.004 0.0016,0.007 -0.01597,0.007 -0.01756,0 -0.02475,-0.003 -0.01597,-0.007 z m 6.758819,-2.7e-4 c 0.0092,-0.004 0.02024,-0.003 0.02449,0.001 0.0042,0.004 -0.0033,0.007 -0.01677,0.007 -0.01488,-6.2e-4 -0.01791,-0.004 -0.0077,-0.008 z m 0.472679,0 c 0.0092,-0.004 0.02024,-0.003 0.02448,0.001 0.0042,0.004 -0.0033,0.007 -0.01677,0.007 -0.01488,-6.2e-4 -0.01791,-0.004 -0.0077,-0.008 z m 3.214847,-0.17503 c -0.0033,-0.009 -0.0046,-1.27887 -0.0028,-2.82222 l 0.0033,-2.80609 0.0032,2.81561 0.0032,2.81562 0.488647,0.004 0.488647,0.004 -0.489048,0.003 c -0.381743,0.002 -0.490379,-4.7e-4 -0.495116,-0.0131 z m 3.765939,0.007 c 0.06148,-0.002 0.162084,-0.002 0.223564,0 0.06148,0.002 0.01118,0.004 -0.111782,0.004 -0.12296,0 -0.173262,-0.002 -0.111782,-0.004 z m 11.168129,-0.007 c -0.0033,-0.009 -0.0046,-0.80861 -0.0027,-1.77719 l 0.0033,-1.76107 0.0031,1.77059 0.0031,1.77059 0.488647,0.004 0.488647,0.004 -0.489048,0.003 c -0.381739,0.002 -0.490381,-4.7e-4 -0.495125,-0.0131 z m 1.814072,0 c -0.0033,-0.009 -0.0046,-1.27887 -0.0028,-2.82222 l 0.0033,-2.80609 0.0032,2.81561 0.0032,2.81561 0.48226,0.004 0.482259,0.004 -0.48266,0.003 c -0.376632,0.002 -0.483993,-4.8e-4 -0.488728,-0.0131 z m -12.123275,-1.57722 c -10e-7,-0.87279 0.0015,-1.23174 0.0034,-0.79767 0.0019,0.43407 0.0019,1.14817 0,1.58689 -0.0019,0.43872 -0.0034,0.0836 -0.0034,-0.78922 z m 7.422325,0 c 0,-0.87279 0.0015,-1.23174 0.0034,-0.79767 0.0019,0.43407 0.0019,1.14817 10e-7,1.58689 -0.0019,0.43872 -0.0034,0.0836 -0.0034,-0.78922 z m -17.573562,0.84828 c -0.01589,-0.0205 -0.01544,-0.0209 0.0048,-0.005 0.0123,0.01 0.02236,0.0199 0.02236,0.0226 0,0.0106 -0.01049,0.004 -0.02718,-0.0177 z m 4.166308,0.0177 c 0,-0.003 0.01006,-0.0128 0.02236,-0.0226 0.02026,-0.0161 0.02071,-0.0156 0.0048,0.005 -0.01669,0.0215 -0.02718,0.0283 -0.02718,0.0177 z m -9.450196,-0.0302 c 0.01942,-0.003 0.04816,-0.003 0.06388,1.7e-4 0.01571,0.003 -1.76e-4,0.005 -0.03531,0.005 -0.03513,-9e-5 -0.04799,-0.003 -0.02857,-0.006 z m 0.146967,-1e-4 c 0.02296,-0.003 0.05745,-0.003 0.07665,1.3e-4 0.0192,0.003 4.1e-4,0.005 -0.04175,0.005 -0.04216,-8e-5 -0.05786,-0.002 -0.0349,-0.005 z m 2.583533,-0.008 c 0,-0.003 0.01006,-0.0128 0.02236,-0.0226 0.02026,-0.016 0.02071,-0.0156 0.0048,0.005 -0.01669,0.0215 -0.02718,0.0283 -0.02718,0.0177 z m 0.281051,-0.28383 c 0,-0.003 0.01006,-0.0128 0.02236,-0.0226 0.02026,-0.0161 0.02071,-0.0156 0.0048,0.005 -0.01669,0.0215 -0.02718,0.0283 -0.02718,0.0177 z m 3.192143,-0.10802 c -0.01589,-0.0205 -0.01544,-0.0209 0.0048,-0.005 0.0123,0.01 0.02236,0.0199 0.02236,0.0226 0,0.0106 -0.01049,0.004 -0.02718,-0.0177 z m -9.159738,-0.0387 c -0.01589,-0.0205 -0.01544,-0.0209 0.0048,-0.005 0.02128,0.0169 0.02805,0.0274 0.01753,0.0274 -0.0027,0 -0.01271,-0.0102 -0.02236,-0.0226 z m 5.073339,-0.25322 c 0,-0.003 0.01006,-0.0128 0.02236,-0.0226 0.02026,-0.0161 0.02071,-0.0156 0.0048,0.005 -0.01669,0.0215 -0.02718,0.0283 -0.02718,0.0177 z m -4.185055,-0.17898 -0.02434,-0.029 0.02874,0.0246 c 0.01581,0.0135 0.02874,0.0266 0.02874,0.029 0,0.0103 -0.01028,0.003 -0.03315,-0.0246 z m 7.610796,-0.97729 c 0,-0.0177 0.0029,-0.025 0.0064,-0.0161 0.0035,0.009 0.0035,0.0234 0,0.0323 -0.0035,0.009 -0.0064,0.002 -0.0064,-0.0161 z m -0.970433,-0.0323 c 2.6e-4,-0.0213 0.0031,-0.0284 0.0064,-0.0159 0.0032,0.0126 0.003,0.03 -4.73e-4,0.0387 -0.0035,0.009 -0.0061,-0.002 -0.0059,-0.0228 z m 5.377838,-0.12256 c 0,-0.0177 0.0029,-0.025 0.0064,-0.0161 0.0035,0.009 0.0035,0.0234 0,0.0323 -0.0035,0.009 -0.0064,0.002 -0.0064,-0.0161 z m -5.377838,-0.22578 c 2.6e-4,-0.0213 0.0031,-0.0284 0.0064,-0.0159 0.0032,0.0125 0.003,0.03 -4.73e-4,0.0387 -0.0035,0.009 -0.0061,-0.002 -0.0059,-0.0228 z m 5.376829,-0.2462 c 6.13e-4,-0.015 0.0036,-0.0181 0.0077,-0.008 0.0037,0.009 0.0032,0.0204 -0.001,0.0247 -0.0042,0.004 -0.0073,-0.003 -0.0067,-0.0169 z m -6.017066,-0.0645 c 6.13e-4,-0.015 0.0036,-0.0181 0.0077,-0.008 0.0037,0.009 0.0032,0.0204 -0.001,0.0247 -0.0042,0.004 -0.0073,-0.003 -0.0067,-0.0169 z m 7.856679,0 c 6.13e-4,-0.015 0.0036,-0.0181 0.0077,-0.008 0.0037,0.009 0.0032,0.0204 -0.001,0.0247 -0.0042,0.004 -0.0073,-0.003 -0.0067,-0.0169 z m -7.840533,-0.33437 c 4.7e-5,-0.0568 0.0023,-0.0784 0.005,-0.048 0.0027,0.0303 0.0027,0.0768 -8.4e-5,0.10321 -0.0027,0.0264 -0.005,0.002 -0.0049,-0.0552 z m -7.91115,0.0505 c 6.13e-4,-0.015 0.0036,-0.0181 0.0077,-0.008 0.0037,0.009 0.0032,0.0204 -0.001,0.0247 -0.0042,0.004 -0.0073,-0.003 -0.0067,-0.0169 z m 18.423158,-0.0376 c 2.61e-4,-0.0213 0.0031,-0.0284 0.0064,-0.0159 0.0032,0.0126 0.003,0.03 -4.74e-4,0.0387 -0.0035,0.009 -0.0061,-0.002 -0.0059,-0.0228 z m -17.439476,-0.0656 c 6.13e-4,-0.015 0.0036,-0.0181 0.0077,-0.008 0.0037,0.009 0.0032,0.0204 -10e-4,0.0247 -0.0042,0.004 -0.0073,-0.003 -0.0067,-0.0169 z m 21.091669,-0.0258 c 6.13e-4,-0.015 0.0036,-0.0181 0.0077,-0.008 0.0037,0.009 0.0032,0.0204 -0.001,0.0247 -0.0042,0.004 -0.0073,-0.003 -0.0067,-0.0169 z m -22.08617,-0.0828 c 0,-0.0248 0.0026,-0.035 0.0058,-0.0226 0.0032,0.0124 0.0032,0.0327 0,0.0452 -0.0032,0.0124 -0.0058,0.002 -0.0058,-0.0226 z m 23.058559,-0.0323 c 2.6e-4,-0.0213 0.0031,-0.0284 0.0064,-0.0159 0.0032,0.0126 0.003,0.03 -4.73e-4,0.0387 -0.0035,0.009 -0.0061,-0.002 -0.0059,-0.0228 z m -23.058559,-0.30319 c 0,-0.0248 0.0026,-0.035 0.0058,-0.0226 0.0032,0.0124 0.0032,0.0327 0,0.0452 -0.0032,0.0124 -0.0058,0.002 -0.0058,-0.0226 z m 0.994501,-0.12364 c 6.13e-4,-0.015 0.0036,-0.0181 0.0077,-0.008 0.0037,0.009 0.0032,0.0204 -10e-4,0.0247 -0.0042,0.004 -0.0073,-0.003 -0.0067,-0.0169 z m 9.09432,-0.20212 c 0.03132,-0.0337 0.05863,-0.0613 0.06068,-0.0613 0.0096,0 -5.49e-4,0.0116 -0.05695,0.0651 l -0.06068,0.0575 z m 2.426171,0.0323 c -0.01589,-0.0205 -0.01544,-0.0209 0.0048,-0.005 0.02128,0.0169 0.02805,0.0274 0.01753,0.0274 -0.0027,0 -0.01271,-0.0102 -0.02236,-0.0226 z m 14.782405,-0.007 c 0,-0.002 0.01868,-0.0211 0.04152,-0.0419 l 0.04152,-0.0379 -0.03752,0.0419 c -0.03498,0.0391 -0.04552,0.0479 -0.04552,0.0379 z m -11.076,-0.0258 c 0,-0.002 0.01868,-0.0211 0.04152,-0.0419 l 0.04152,-0.0379 -0.03752,0.0419 c -0.03497,0.0391 -0.04552,0.0479 -0.04552,0.0379 z m 11.178201,-0.0782 c 0,-0.003 0.01006,-0.0128 0.02236,-0.0226 0.02026,-0.016 0.02071,-0.0156 0.0048,0.005 -0.01669,0.0215 -0.02718,0.0283 -0.02718,0.0177 z m -11.088776,-0.0129 c 0,-0.003 0.01006,-0.0128 0.02236,-0.0226 0.02026,-0.0161 0.02071,-0.0156 0.0048,0.005 -0.01669,0.0215 -0.02718,0.0283 -0.02718,0.0177 z m 3.692001,-0.0516 c 0,-0.003 0.01006,-0.0128 0.02236,-0.0226 0.02026,-0.016 0.02071,-0.0156 0.0048,0.005 -0.01669,0.0215 -0.02718,0.0283 -0.02718,0.0177 z m -8.893857,-0.33938 c 0.0092,-0.004 0.02024,-0.003 0.02449,0.001 0.0042,0.004 -0.0033,0.007 -0.01677,0.007 -0.01488,-6.2e-4 -0.01791,-0.004 -0.0077,-0.008 z m 0.319378,0 c 0.0092,-0.004 0.02024,-0.003 0.02448,0.001 0.0042,0.004 -0.0033,0.007 -0.01677,0.007 -0.01488,-6.2e-4 -0.01791,-0.004 -0.0077,-0.008 z m -2.131045,-0.009 c 0,-0.003 0.01006,-0.0128 0.02236,-0.0226 0.02026,-0.016 0.02071,-0.0156 0.0048,0.005 -0.01669,0.0215 -0.02718,0.0283 -0.02718,0.0177 z m 3.958648,-0.0177 c -0.01589,-0.0205 -0.01544,-0.0209 0.0048,-0.005 0.0123,0.01 0.02236,0.0199 0.02236,0.0226 0,0.0106 -0.01049,0.004 -0.02718,-0.0177 z m -3.779796,-0.16291 c 0,-0.003 0.01006,-0.0128 0.02236,-0.0226 0.02026,-0.0161 0.02071,-0.0156 0.0048,0.005 -0.01669,0.0215 -0.02718,0.0283 -0.02718,0.0177 z m 17.623233,-0.0596 c 0.0346,-0.0355 0.06579,-0.0645 0.0693,-0.0645 0.0035,0 -0.02192,0.029 -0.05653,0.0645 -0.0346,0.0355 -0.06579,0.0645 -0.0693,0.0645 -0.0035,0 0.02192,-0.029 0.05653,-0.0645 z m -7.582015,0.0338 c 0,-0.003 0.01006,-0.0128 0.02236,-0.0226 0.02026,-0.0161 0.02071,-0.0156 0.0048,0.005 -0.01669,0.0215 -0.02718,0.0283 -0.02718,0.0177 z m -0.640384,-0.0693 c -0.01589,-0.0205 -0.01544,-0.0209 0.0048,-0.005 0.0123,0.01 0.02236,0.0199 0.02236,0.0226 0,0.0106 -0.01049,0.004 -0.02718,-0.0177 z m -0.114975,-0.11611 c -0.01589,-0.0205 -0.01544,-0.0209 0.0048,-0.005 0.0123,0.01 0.02236,0.0199 0.02236,0.0226 0,0.0106 -0.01049,0.004 -0.02718,-0.0177 z m 3.628124,-0.0774 c -0.01589,-0.0205 -0.01544,-0.0209 0.0048,-0.005 0.02128,0.0168 0.02805,0.0274 0.01753,0.0274 -0.0027,0 -0.01271,-0.0102 -0.02236,-0.0226 z m 10.059061,-0.23149 c 0.01243,-0.003 0.02968,-0.003 0.03833,4.7e-4 0.0086,0.004 -0.0015,0.006 -0.0226,0.006 -0.02108,-2.6e-4 -0.02815,-0.003 -0.01573,-0.006 z m -21.404104,-0.1676 c 0.0092,-0.004 0.02024,-0.003 0.02449,0.001 0.0042,0.004 -0.0033,0.007 -0.01677,0.007 -0.01488,-6.2e-4 -0.01791,-0.004 -0.0077,-0.008 z m 0.421578,0 c 0.0092,-0.004 0.02024,-0.003 0.02448,0.001 0.0042,0.004 -0.0033,0.007 -0.01677,0.007 -0.01488,-6.2e-4 -0.01791,-0.004 -0.0077,-0.008 z m 5.863765,0 c 0.0092,-0.004 0.02024,-0.003 0.02449,0.001 0.0042,0.004 -0.0033,0.007 -0.01677,0.007 -0.01488,-6.2e-4 -0.01791,-0.004 -0.0077,-0.008 z m 3.577024,0 c 0.0092,-0.004 0.02024,-0.003 0.02449,0.001 0.0042,0.004 -0.0033,0.007 -0.01677,0.007 -0.01488,-6.2e-4 -0.01791,-0.004 -0.0077,-0.008 z m 0.382455,2.7e-4 c 0.0088,-0.004 0.02315,-0.004 0.03194,0 0.0088,0.004 0.0016,0.007 -0.01597,0.007 -0.01757,0 -0.02475,-0.003 -0.01597,-0.007 z m 7.537301,0 c 0.0088,-0.004 0.02316,-0.004 0.03194,0 0.0088,0.004 0.0016,0.007 -0.01597,0.007 -0.01757,0 -0.02475,-0.003 -0.01597,-0.007 z m -26.843652,-0.55912 c 0.01272,-0.0142 0.026,-0.0258 0.02951,-0.0258 0.0035,0 -0.004,0.0116 -0.01673,0.0258 -0.01272,0.0142 -0.026,0.0258 -0.02951,0.0258 -0.0035,0 0.004,-0.0116 0.01673,-0.0258 z m 4.535156,-0.10321 c 0.0346,-0.0355 0.06579,-0.0645 0.0693,-0.0645 0.0035,0 -0.02192,0.029 -0.05653,0.0645 -0.0346,0.0355 -0.06579,0.0645 -0.0693,0.0645 -0.0035,0 0.02193,-0.029 0.05653,-0.0645 z m -5.442187,-0.32254 c 0.01272,-0.0142 0.026,-0.0258 0.02951,-0.0258 0.0035,0 -0.004,0.0116 -0.01674,0.0258 -0.01272,0.0142 -0.026,0.0258 -0.02951,0.0258 -0.0035,0 0.004,-0.0116 0.01673,-0.0258 z m 31.382002,-0.005 c 0,-0.003 0.01006,-0.0128 0.02236,-0.0226 0.02026,-0.0161 0.02071,-0.0156 0.0048,0.005 -0.01669,0.0215 -0.02718,0.0283 -0.02718,0.0177 z m -25.56295,-0.0661 c 0.02383,-0.0248 0.04621,-0.0452 0.04973,-0.0452 0.0035,0 -0.01311,0.0203 -0.03695,0.0452 -0.02384,0.0248 -0.04621,0.0452 -0.04972,0.0452 -0.0035,0 0.01311,-0.0203 0.03695,-0.0452 z m 18.051198,0.002 c 0,-0.003 0.01006,-0.0128 0.02236,-0.0226 0.02026,-0.016 0.02071,-0.0156 0.0048,0.005 -0.01669,0.0215 -0.02718,0.0283 -0.02718,0.0177 z M 55.88551,126.8151 c 0,-0.003 0.01006,-0.0128 0.02236,-0.0226 0.02026,-0.016 0.02071,-0.0156 0.0048,0.005 -0.01669,0.0215 -0.02718,0.0283 -0.02718,0.0177 z m 5.543701,-0.0564 -0.04403,-0.0484 0.04791,0.0445 c 0.04459,0.0414 0.05378,0.0523 0.04402,0.0523 -0.0021,0 -0.02369,-0.0218 -0.04791,-0.0484 z m -3.003854,-0.10235 c 0.0092,-0.004 0.02024,-0.003 0.02449,10e-4 0.0042,0.004 -0.0033,0.007 -0.01677,0.007 -0.01488,-6.2e-4 -0.01791,-0.004 -0.0077,-0.008 z m 2.836836,-0.0525 c -0.01589,-0.0205 -0.01544,-0.0209 0.0048,-0.005 0.0123,0.01 0.02236,0.0199 0.02236,0.0226 0,0.0106 -0.01049,0.004 -0.02718,-0.0177 z m 17.299098,-0.62895 c 0.02384,-0.0248 0.04621,-0.0452 0.04972,-0.0452 0.0035,0 -0.01311,0.0203 -0.03695,0.0452 -0.02384,0.0248 -0.04621,0.0452 -0.04972,0.0452 -0.0035,0 0.01311,-0.0203 0.03695,-0.0452 z m 0.963715,-0.01 -0.03752,-0.0419 0.04152,0.0379 c 0.0387,0.0353 0.04739,0.046 0.03752,0.046 -0.0022,0 -0.02088,-0.0189 -0.04152,-0.0419 z m -21.004634,-0.25079 c 0.0123,-0.003 0.03242,-0.003 0.04471,0 0.0123,0.003 0.0022,0.006 -0.02236,0.006 -0.02459,0 -0.03465,-0.003 -0.02236,-0.006 z m 0.281052,0 c 0.0123,-0.003 0.03242,-0.003 0.04471,0 0.0123,0.003 0.0022,0.006 -0.02236,0.006 -0.02459,0 -0.03465,-0.003 -0.02236,-0.006 z m 17.675898,-0.54265 c -0.01589,-0.0205 -0.01544,-0.0209 0.0048,-0.005 0.02128,0.0169 0.02805,0.0274 0.01753,0.0274 -0.0027,0 -0.01271,-0.0102 -0.02236,-0.0226 z m 1.151387,0.005 c 0,-0.003 0.01006,-0.0128 0.02236,-0.0226 0.02026,-0.016 0.02071,-0.0156 0.0048,0.005 -0.01669,0.0215 -0.02718,0.0283 -0.02718,0.0177 z m -1.28511,-0.15317 -0.02434,-0.029 0.02874,0.0246 c 0.02701,0.0231 0.03456,0.0335 0.02434,0.0335 -0.0024,0 -0.01536,-0.0131 -0.02874,-0.029 z m 1.540612,-0.10486 c 0,-0.003 0.01006,-0.0128 0.02236,-0.0226 0.02026,-0.016 0.02071,-0.0156 0.0048,0.005 -0.01669,0.0215 -0.02718,0.0283 -0.02718,0.0177 z m -1.545786,-1.31754 c 0.02384,-0.0248 0.04621,-0.0452 0.04972,-0.0452 0.0035,0 -0.01311,0.0203 -0.03695,0.0452 -0.02384,0.0248 -0.04621,0.0452 -0.04973,0.0452 -0.0035,0 0.01311,-0.0203 0.03695,-0.0452 z m 0.127751,-0.14034 c 0,-0.003 0.01006,-0.0128 0.02236,-0.0226 0.02026,-0.016 0.02071,-0.0156 0.0048,0.005 -0.01669,0.0215 -0.02718,0.0283 -0.02718,0.0177 z"
           id="path183-0-0" /><path
           style="fill:#181818;fill-opacity:1"
           d="m 58.319165,133.96709 c -1.260218,-0.11388 -2.339301,-0.75759 -3.027223,-1.80587 -0.53017,-0.80788 -0.751075,-1.73394 -0.657061,-2.75448 0.104483,-1.13419 0.686801,-2.1883 1.584415,-2.86812 0.298448,-0.22603 0.717276,-0.45587 1.05007,-0.57624 0.954914,-0.34541 2.055593,-0.32592 3.004387,0.0532 0.469285,0.18752 0.860058,0.44226 1.178988,0.76855 l 0.105881,0.10833 -0.334998,0.35056 -0.334998,0.35056 -0.141361,-0.13933 c -0.323312,-0.31867 -0.713443,-0.54189 -1.18436,-0.67766 -0.355078,-0.10237 -0.584005,-0.13076 -0.973491,-0.12074 -0.47999,0.0124 -0.869954,0.10522 -1.279481,0.30468 -0.313331,0.15261 -0.533663,0.30697 -0.781192,0.54728 -0.264645,0.25693 -0.435547,0.4945 -0.605019,0.841 -0.148421,0.30346 -0.234415,0.58881 -0.290636,0.96441 -0.02761,0.18447 -0.03126,0.8431 -0.0057,1.02243 0.104588,0.73273 0.395815,1.34039 0.876062,1.82795 0.459832,0.46684 1.136518,0.79367 1.809295,0.87388 0.407707,0.0486 0.865408,0.0164 1.282603,-0.0901 0.968726,-0.24748 1.676768,-0.97283 1.890926,-1.93715 0.02545,-0.11457 0.07134,-0.4302 0.07134,-0.4906 0,-0.005 -0.64099,-0.01 -1.424422,-0.01 h -1.424422 v -0.458 -0.45801 h 1.88331 1.88331 l 0.0072,0.0355 c 0.02348,0.11573 0.04591,0.41024 0.0458,0.60115 -6.4e-4,1.03577 -0.371737,1.97361 -1.052772,2.66059 -0.580644,0.5857 -1.303629,0.93302 -2.190019,1.05208 -0.216166,0.029 -0.760923,0.0426 -0.966463,0.024 z m 7.371225,0.004 c -0.134528,-0.0118 -0.346271,-0.0478 -0.479066,-0.0812 -0.874565,-0.22047 -1.591345,-0.89934 -1.882358,-1.78282 -0.235858,-0.71603 -0.226078,-1.57277 0.02604,-2.28141 0.185311,-0.52086 0.497211,-0.96123 0.910959,-1.28618 0.358854,-0.28184 0.723231,-0.44082 1.181695,-0.51558 0.171441,-0.028 0.638558,-0.0318 0.823993,-0.007 0.561777,0.0758 1.029923,0.28822 1.41709,0.64295 0.342783,0.31407 0.624054,0.81116 0.755799,1.33572 0.07878,0.31366 0.114065,0.69179 0.09519,1.02003 l -0.0095,0.16449 H 66.327376 64.12452 l 0.0076,0.0677 c 0.03553,0.31681 0.07669,0.50246 0.153709,0.69334 0.125116,0.31009 0.374066,0.62973 0.638018,0.81918 0.193107,0.1386 0.479033,0.26075 0.731985,0.31271 0.169879,0.0349 0.563939,0.0311 0.740135,-0.007 0.147558,-0.032 0.280226,-0.0774 0.393043,-0.13446 0.270125,-0.13661 0.590354,-0.43957 0.766782,-0.72544 l 0.05875,-0.0952 0.17489,0.0838 c 0.09619,0.0461 0.279806,0.13375 0.408036,0.19484 0.12823,0.0611 0.233145,0.11671 0.233145,0.1236 0,0.0186 -0.12205,0.22145 -0.195534,0.32493 -0.08819,0.12419 -0.248292,0.31118 -0.339269,0.39624 -0.485658,0.45408 -0.970582,0.67093 -1.636962,0.73199 -0.136467,0.0125 -0.45051,0.0151 -0.568491,0.005 z m 1.833225,-3.63705 c 0,-0.0761 -0.04792,-0.29023 -0.09689,-0.43291 -0.156247,-0.45528 -0.5078,-0.79752 -0.97622,-0.95035 -0.310824,-0.10141 -0.770109,-0.10436 -1.077677,-0.007 -0.503092,0.1594 -0.895338,0.55502 -1.091694,1.10109 -0.04099,0.11399 -0.09182,0.29061 -0.09182,0.31905 0,0.0132 0.327876,0.0164 1.667149,0.0164 h 1.667149 z m 1.877938,0.65273 v -2.81254 h 0.466291 0.46629 v 0.41285 c 0,0.38465 0.0015,0.41284 0.02236,0.41268 0.01362,-1e-4 0.04607,-0.037 0.08302,-0.0943 0.27548,-0.42767 0.777718,-0.76327 1.306796,-0.87321 0.343937,-0.0715 0.766082,-0.0342 1.085223,0.0957 0.405986,0.16533 0.758467,0.4958 0.931713,0.87353 l 0.04123,0.0899 0.05774,-0.0876 c 0.299575,-0.45475 0.769173,-0.8068 1.243416,-0.93216 0.4312,-0.11399 0.990983,-0.0977 1.392485,0.0405 0.335559,0.1155 0.58888,0.31406 0.79026,0.61945 0.193662,0.29369 0.300885,0.59591 0.367581,1.03609 0.01166,0.0769 0.01681,0.6034 0.02025,2.06748 l 0.0046,1.96426 h -0.485954 -0.485953 l -2.5e-4,-1.8417 c -2.67e-4,-1.97185 -3.15e-4,-1.97353 -0.06462,-2.23274 -0.03129,-0.12612 -0.09246,-0.27888 -0.145657,-0.3637 -0.134906,-0.21511 -0.381195,-0.37763 -0.677344,-0.44698 -0.155602,-0.0364 -0.536419,-0.0333 -0.675217,0.006 -0.380311,0.10657 -0.704067,0.39256 -0.908616,0.80262 -0.131742,0.26411 -0.19141,0.48964 -0.211215,0.79832 -0.0067,0.10373 -0.01222,0.88384 -0.01236,1.73357 l -2.64e-4,1.54496 h -0.47862 -0.478621 l -0.0047,-1.8804 c -0.0051,-2.03219 -0.0021,-1.94101 -0.07283,-2.21585 -0.04157,-0.16142 -0.139885,-0.34988 -0.238832,-0.45781 -0.227051,-0.24766 -0.514226,-0.36153 -0.910962,-0.36121 -0.330387,2.6e-4 -0.583028,0.10004 -0.857242,0.33856 -0.302826,0.26341 -0.518513,0.69778 -0.580044,1.16813 -0.01605,0.12272 -0.01907,0.40416 -0.01907,1.77719 v 1.63139 H 69.886983 69.40153 Z m 9.172513,0 v -2.81254 h 0.485453 0.485453 v 2.81254 2.81254 h -0.485453 -0.485453 z m 1.890713,0 v -2.81254 h 0.459903 0.459903 v 0.41285 0.41285 h 0.03108 c 0.01975,0 0.034,-0.009 0.03911,-0.0255 0.01527,-0.0486 0.149594,-0.22643 0.247107,-0.32717 0.406612,-0.42003 0.956587,-0.65317 1.541486,-0.65345 0.627762,-3.1e-4 1.116576,0.17762 1.469225,0.5348 0.323926,0.32808 0.512106,0.75158 0.574917,1.29385 0.01604,0.1385 0.01904,0.46396 0.01904,2.07062 v 1.90628 h -0.484888 -0.484887 l -0.0044,-1.84815 c -0.004,-1.68877 -0.0063,-1.85963 -0.0268,-1.98132 -0.08007,-0.4765 -0.26374,-0.74987 -0.627832,-0.93443 -0.32792,-0.16623 -0.808667,-0.20041 -1.152604,-0.0819 -0.464965,0.16015 -0.875586,0.64445 -1.019019,1.20187 -0.06292,0.24452 -0.0618,0.21142 -0.06691,1.97644 l -0.0048,1.66753 h -0.484792 -0.484792 z m 5.684913,-9.5e-4 c 0,-2.65765 0.0012,-2.81325 0.02205,-2.8092 0.01791,0.003 0.04997,0.12045 0.170874,0.62345 0.08185,0.34054 0.287575,1.19683 0.457161,1.90287 l 0.308337,1.2837 -1.45e-4,0.90634 -1.45e-4,0.90633 h -0.479066 -0.479066 z m 0.825774,0.28866 c -0.06928,-0.28951 -0.265211,-1.10551 -0.435394,-1.81332 -0.267821,-1.1139 -0.306424,-1.28693 -0.287115,-1.28693 0.01828,0 0.03169,0.0391 0.0742,0.2161 0.02854,0.11885 0.11189,0.46575 0.185226,0.77087 0.615763,2.56193 0.596813,2.48007 0.59287,2.5612 -0.0035,0.0721 -0.01405,0.0357 -0.129784,-0.44792 z m -8.075636,-4.12585 c -0.10524,-0.0237 -0.165176,-0.0511 -0.258855,-0.11833 -0.176713,-0.12691 -0.271659,-0.32549 -0.270386,-0.56553 0.0011,-0.20607 0.06732,-0.35887 0.217874,-0.5027 0.135281,-0.12923 0.278879,-0.1871 0.464945,-0.18738 0.198757,-3e-4 0.355555,0.0691 0.496005,0.21947 0.133978,0.14346 0.195638,0.31899 0.183447,0.52222 -0.02604,0.43404 -0.411877,0.72689 -0.83303,0.63225 z m -1.855109,-0.68386 c -0.02906,-0.26615 -0.108995,-0.52983 -0.242384,-0.79957 -0.158,-0.31952 -0.366374,-0.58387 -0.634843,-0.80541 -0.349267,-0.28821 -0.85289,-0.50025 -1.281573,-0.53959 l -0.09967,-0.009 0.10722,-0.0102 c 0.83584,-0.0797 1.609814,-0.65021 1.956468,-1.44204 0.107015,-0.24445 0.181007,-0.51721 0.19949,-0.73539 l 0.0093,-0.10966 0.01555,0.13546 c 0.03223,0.28067 0.100884,0.51876 0.221372,0.76765 0.24651,0.50921 0.63075,0.89937 1.131507,1.14895 0.257351,0.12826 0.53458,0.20973 0.799811,0.23503 l 0.10722,0.0102 -0.09967,0.009 c -0.269429,0.0247 -0.554498,0.11195 -0.8393,0.2568 -0.24381,0.12401 -0.396464,0.23268 -0.585773,0.41699 -0.428573,0.41726 -0.683925,0.94049 -0.739824,1.51593 l -0.0094,0.0968 z m 8.889812,0.0451 c 0,-0.0177 0.0029,-0.025 0.0064,-0.0161 0.0035,0.009 0.0035,0.0234 0,0.0323 -0.0035,0.009 -0.0064,0.002 -0.0064,-0.0161 z m 1.366934,0 c 0,-0.0177 0.0029,-0.025 0.0064,-0.0161 0.0035,0.009 0.0035,0.0234 0,0.0323 -0.0035,0.009 -0.0064,0.002 -0.0064,-0.0161 z m 4.74e-4,-0.0709 c 2.6e-4,-0.0213 0.0031,-0.0284 0.0064,-0.0159 0.0032,0.0126 0.003,0.03 -4.73e-4,0.0387 -0.0035,0.009 -0.0061,-0.002 -0.0059,-0.0228 z m -1.367408,-0.006 c 0,-0.0177 0.0029,-0.025 0.0064,-0.0161 0.0035,0.009 0.0035,0.0234 0,0.0323 -0.0035,0.009 -0.0064,0.002 -0.0064,-0.0161 z m 0.157671,-0.41286 c 0.01272,-0.0142 0.026,-0.0258 0.02951,-0.0258 0.0035,0 -0.004,0.0116 -0.01673,0.0258 -0.01272,0.0142 -0.026,0.0258 -0.02951,0.0258 -0.0035,0 0.004,-0.0116 0.01673,-0.0258 z m 1.052316,0.003 c -0.01589,-0.0205 -0.01544,-0.0209 0.0048,-0.005 0.02128,0.0169 0.02805,0.0275 0.01753,0.0275 -0.0027,0 -0.01271,-0.0102 -0.02236,-0.0226 z m -0.975665,-0.0806 c 0.01272,-0.0142 0.026,-0.0258 0.02951,-0.0258 0.0035,0 -0.004,0.0116 -0.01673,0.0258 -0.01272,0.0142 -0.026,0.0258 -0.02951,0.0258 -0.0035,0 0.004,-0.0116 0.01673,-0.0258 z"
           id="path182-74-8" /><path
           style="fill:#181818;fill-opacity:1"
           d="m 86.815027,130.76783 c -0.157525,-0.65635 -0.361844,-1.50688 -0.454041,-1.89006 -0.0922,-0.38317 -0.162581,-0.69879 -0.156407,-0.70136 0.0062,-0.003 0.01585,3.3e-4 0.0215,0.006 0.0057,0.006 0.10843,0.42043 0.228399,0.92069 0.119969,0.50026 0.316321,1.31827 0.436339,1.8178 0.166702,0.69383 0.217318,0.92377 0.214418,0.97404 -0.0031,0.0537 -0.05655,-0.15401 -0.290206,-1.12756 z m 0.179528,0.40301 c -0.103796,-0.43521 -0.36966,-1.54248 -0.602696,-2.51013 -0.06293,-0.2613 -0.114416,-0.47756 -0.114416,-0.48058 0,-0.003 0.186836,-0.005 0.415191,-0.005 h 0.41519 v 1.72236 c 0,0.9473 -0.0014,1.72227 -0.0032,1.72217 -0.0018,-1.1e-4 -0.05129,-0.20186 -0.110075,-0.44833 z m -0.495577,-4.01666 c -0.128804,-0.0217 -0.290991,-0.10799 -0.377172,-0.20061 -0.110474,-0.11873 -0.177681,-0.29918 -0.178175,-0.47841 -6.89e-4,-0.24969 0.107583,-0.4534 0.314856,-0.59238 0.133454,-0.0895 0.330396,-0.12763 0.498022,-0.0964 0.238346,0.0443 0.450376,0.24373 0.522936,0.49178 0.03018,0.10315 0.02798,0.29409 -0.0046,0.39995 -0.104895,0.34078 -0.422556,0.53572 -0.775861,0.47612 z"
           id="path181-1-8" /></g></g></g></svg>
