<?xml version="1.0" encoding="UTF-8" standalone="no"?>
<!-- Created with Inkscape (http://www.inkscape.org/) -->

<svg
   width="134.99792"
   height="28.248922"
   viewBox="0 0 35.7182 7.4741938"
   version="1.1"
   id="svg1"
   xml:space="preserve"
   xmlns="http://www.w3.org/2000/svg"
   xmlns:svg="http://www.w3.org/2000/svg"><defs
     id="defs1"><linearGradient
       id="swatch204"><stop
         style="stop-color:#f2f5f4;stop-opacity:1;"
         offset="0"
         id="stop204" /></linearGradient><linearGradient
       id="swatch203"><stop
         style="stop-color:#000000;stop-opacity:1;"
         offset="0"
         id="stop203" /></linearGradient><clipPath
       id="clip0_3727_82729-4-4-4-2-5"><rect
         width="36"
         height="36"
         fill="#ffffff"
         transform="translate(0,0.740234)"
         id="rect4-3-5-8-5-0"
         x="0"
         y="0" /></clipPath></defs><g
     id="layer1"
     transform="translate(229.18253,-134.46753)"><g
       style="fill:none"
       id="g185-2-0"
       transform="matrix(0.20994633,0,0,0.22649093,-230.44221,133.96014)"><g
         clip-path="url(#clip0_3727_82729-4-4-4-2-5)"
         id="g3-4-3-9"><path
           d="M 27.75,35.2402 H 8.25 C 7.00687,35.2402 6,34.2334 6,32.9902 V 4.49023 c 0,-1.24312 1.00687,-2.25 2.25,-2.25 h 13.5 L 30,10.4902 v 22.5 c 0,1.2432 -1.0069,2.25 -2.25,2.25 z"
           fill="#00ac47"
           id="path1-8-30-6"
           style="fill:#181818;fill-opacity:1" /><path
           d="M 21.75,2.24023 30,10.4902 h -8.25 z"
           fill="#00832d"
           id="path2-9-2-6"
           style="fill:#252a26;fill-opacity:1" /><path
           d="M 23.625,14.9902 H 18.9375 17.0625 12.375 10.5 v 1.875 2.625 1.875 2.625 1.875 h 1.875 4.6875 1.875 4.6875 1.875 v -1.875 -2.625 -1.875 -2.625 -1.875 z m -11.25,1.875 h 4.6875 v 2.625 H 12.375 Z m 0,7.125 v -2.625 h 4.6875 v 2.625 z m 11.25,0 h -4.6875 v -2.625 h 4.6875 z m 0,-4.5 h -4.6875 v -2.625 h 4.6875 z"
           fill="#ffffff"
           id="path3-5-9-6" /></g><path
         d="m 42.751135,19.224775 h 7.678 c 0.0293,0.1907 0.0587,0.396 0.088,0.616 0.0293,0.2054 0.044,0.4254 0.044,0.66 0,0.9387 -0.1467,1.87 -0.44,2.794 -0.2933,0.924 -0.792,1.7454 -1.496,2.464 -0.7187,0.748 -1.562,1.3274 -2.53,1.738 -0.968,0.4107 -2.0753,0.616 -3.322,0.616 -1.1293,0 -2.2,-0.2053 -3.212,-0.616 -0.9973,-0.4106 -1.87,-0.9826 -2.618,-1.716 -0.748,-0.7333 -1.342,-1.5986 -1.782,-2.596 -0.4253,-1.012 -0.638,-2.112 -0.638,-3.3 0,-1.188 0.2127,-2.2806 0.638,-3.278 0.44,-1.012 1.034,-1.8846 1.782,-2.618 0.748,-0.7333 1.6207,-1.3053 2.618,-1.716 1.012,-0.4106 2.0827,-0.616 3.212,-0.616 1.2027,0 2.31,0.2127 3.322,0.638 1.0267,0.4254 1.8847,1.0194 2.574,1.782 l -1.738,1.738 c -0.5133,-0.572 -1.122,-1.012 -1.826,-1.32 -0.6893,-0.308 -1.474,-0.462 -2.354,-0.462 -0.748,0 -1.4667,0.1394 -2.156,0.418 -0.6893,0.2787 -1.298,0.6747 -1.826,1.188 -0.528,0.4987 -0.946,1.1074 -1.254,1.826 -0.308,0.7187 -0.462,1.5254 -0.462,2.42 0,0.8947 0.154,1.7014 0.462,2.42 0.308,0.7187 0.726,1.3347 1.254,1.848 0.528,0.4987 1.1367,0.8874 1.826,1.166 0.6893,0.2787 1.4153,0.418 2.178,0.418 1.012,0 1.826,-0.154 2.442,-0.462 0.6307,-0.308 1.1587,-0.6673 1.584,-1.078 0.308,-0.2933 0.5793,-0.6746 0.814,-1.144 0.2347,-0.484 0.3887,-1.012 0.462,-1.584 h -5.324 z m 14.905,-2.596 c 0.8213,0 1.5767,0.1467 2.266,0.44 0.6893,0.2787 1.2833,0.6747 1.782,1.188 0.4987,0.5134 0.8873,1.122 1.166,1.826 0.2787,0.704 0.418,1.4667 0.418,2.288 0,0.8214 -0.1393,1.584 -0.418,2.288 -0.2787,0.704 -0.6673,1.3127 -1.166,1.826 -0.4987,0.5134 -1.0927,0.9167 -1.782,1.21 -0.6893,0.2787 -1.4447,0.418 -2.266,0.418 -0.8213,0 -1.5767,-0.1393 -2.266,-0.418 -0.6893,-0.2933 -1.2833,-0.6966 -1.782,-1.21 -0.4987,-0.5133 -0.8873,-1.122 -1.166,-1.826 -0.2787,-0.704 -0.418,-1.4666 -0.418,-2.288 0,-0.8213 0.1393,-1.584 0.418,-2.288 0.2787,-0.704 0.6673,-1.3126 1.166,-1.826 0.4987,-0.5133 1.0927,-0.9093 1.782,-1.188 0.6893,-0.2933 1.4447,-0.44 2.266,-0.44 z m 0,9.218 c 0.4107,0 0.8067,-0.0806 1.188,-0.242 0.3813,-0.1613 0.7187,-0.3886 1.012,-0.682 0.308,-0.2933 0.55,-0.6526 0.726,-1.078 0.176,-0.44 0.264,-0.9313 0.264,-1.474 0,-0.5426 -0.088,-1.0266 -0.264,-1.452 -0.176,-0.44 -0.418,-0.8066 -0.726,-1.1 -0.2933,-0.2933 -0.6307,-0.5206 -1.012,-0.682 -0.3813,-0.1613 -0.7773,-0.242 -1.188,-0.242 -0.4107,0 -0.8067,0.0807 -1.188,0.242 -0.3813,0.1614 -0.726,0.3887 -1.034,0.682 -0.2933,0.2934 -0.528,0.66 -0.704,1.1 -0.176,0.4254 -0.264,0.9094 -0.264,1.452 0,0.5427 0.088,1.034 0.264,1.474 0.176,0.4254 0.4107,0.7847 0.704,1.078 0.308,0.2934 0.6527,0.5207 1.034,0.682 0.3813,0.1614 0.7773,0.242 1.188,0.242 z m 12.5857,-9.218 c 0.8214,0 1.5767,0.1467 2.266,0.44 0.6894,0.2787 1.2834,0.6747 1.782,1.188 0.4987,0.5134 0.8874,1.122 1.166,1.826 0.2787,0.704 0.418,1.4667 0.418,2.288 0,0.8214 -0.1393,1.584 -0.418,2.288 -0.2786,0.704 -0.6673,1.3127 -1.166,1.826 -0.4986,0.5134 -1.0926,0.9167 -1.782,1.21 -0.6893,0.2787 -1.4446,0.418 -2.266,0.418 -0.8213,0 -1.5766,-0.1393 -2.266,-0.418 -0.6893,-0.2933 -1.2833,-0.6966 -1.782,-1.21 -0.4986,-0.5133 -0.8873,-1.122 -1.166,-1.826 -0.2786,-0.704 -0.418,-1.4666 -0.418,-2.288 0,-0.8213 0.1394,-1.584 0.418,-2.288 0.2787,-0.704 0.6674,-1.3126 1.166,-1.826 0.4987,-0.5133 1.0927,-0.9093 1.782,-1.188 0.6894,-0.2933 1.4447,-0.44 2.266,-0.44 z m 0,9.218 c 0.4107,0 0.8067,-0.0806 1.188,-0.242 0.3814,-0.1613 0.7187,-0.3886 1.012,-0.682 0.308,-0.2933 0.55,-0.6526 0.726,-1.078 0.176,-0.44 0.264,-0.9313 0.264,-1.474 0,-0.5426 -0.088,-1.0266 -0.264,-1.452 -0.176,-0.44 -0.418,-0.8066 -0.726,-1.1 -0.2933,-0.2933 -0.6306,-0.5206 -1.012,-0.682 -0.3813,-0.1613 -0.7773,-0.242 -1.188,-0.242 -0.4106,0 -0.8066,0.0807 -1.188,0.242 -0.3813,0.1614 -0.726,0.3887 -1.034,0.682 -0.2933,0.2934 -0.528,0.66 -0.704,1.1 -0.176,0.4254 -0.264,0.9094 -0.264,1.452 0,0.5427 0.088,1.034 0.264,1.474 0.176,0.4254 0.4107,0.7847 0.704,1.078 0.308,0.2934 0.6527,0.5207 1.034,0.682 0.3814,0.1614 0.7774,0.242 1.188,0.242 z m 12.4538,7.018 c -0.748,0 -1.4154,-0.1026 -2.002,-0.308 -0.572,-0.1906 -1.0707,-0.44 -1.496,-0.748 -0.4254,-0.308 -0.7774,-0.6526 -1.056,-1.034 -0.264,-0.3813 -0.462,-0.748 -0.594,-1.1 l 2.332,-0.946 c 0.2053,0.572 0.5573,1.034 1.056,1.386 0.4986,0.3667 1.0853,0.55 1.76,0.55 1.012,0 1.7966,-0.308 2.354,-0.924 0.572,-0.616 0.858,-1.4666 0.858,-2.552 v -0.88 h -0.132 c -0.3374,0.484 -0.8067,0.8874 -1.408,1.21 -0.5867,0.3227 -1.276,0.484 -2.068,0.484 -0.66,0 -1.298,-0.1393 -1.914,-0.418 -0.616,-0.2786 -1.166,-0.6673 -1.65,-1.166 -0.4694,-0.4986 -0.8434,-1.1 -1.122,-1.804 -0.2787,-0.704 -0.418,-1.474 -0.418,-2.31 0,-0.836 0.1393,-1.5986 0.418,-2.288 0.2786,-0.704 0.6526,-1.3053 1.122,-1.804 0.484,-0.4986 1.034,-0.8873 1.65,-1.166 0.616,-0.2786 1.254,-0.418 1.914,-0.418 0.792,0 1.4813,0.1614 2.068,0.484 0.6013,0.3227 1.0706,0.726 1.408,1.21 h 0.132 v -1.342 h 2.354 v 10.164 c 0,0.924 -0.1467,1.738 -0.44,2.442 -0.2787,0.7187 -0.6674,1.32 -1.166,1.804 -0.484,0.484 -1.0707,0.8507 -1.76,1.1 -0.6747,0.2494 -1.408,0.374 -2.2,0.374 z m 0.088,-7.128 c 0.396,0 0.7846,-0.0733 1.166,-0.22 0.3813,-0.1466 0.7113,-0.3666 0.99,-0.66 0.2933,-0.2933 0.528,-0.6526 0.704,-1.078 0.176,-0.4253 0.264,-0.9166 0.264,-1.474 0,-0.5426 -0.088,-1.0266 -0.264,-1.452 -0.176,-0.44 -0.4107,-0.7993 -0.704,-1.078 -0.2787,-0.2933 -0.6087,-0.5133 -0.99,-0.66 -0.3814,-0.1613 -0.77,-0.242 -1.166,-0.242 -0.4107,0 -0.8067,0.0807 -1.188,0.242 -0.3667,0.1467 -0.6967,0.3667 -0.99,0.66 -0.2934,0.2934 -0.528,0.6527 -0.704,1.078 -0.176,0.4254 -0.264,0.9094 -0.264,1.452 0,0.5427 0.088,1.0267 0.264,1.452 0.176,0.4254 0.4106,0.7847 0.704,1.078 0.2933,0.2934 0.6233,0.5207 0.99,0.682 0.3813,0.1467 0.7773,0.22 1.188,0.22 z m 8.0215,2.024 v -15.752 h 2.442 v 15.752 z m 14.861005,-2.574 c -0.454,0.836 -1.1,1.5327 -1.936,2.09 -0.836,0.5574 -1.862,0.836 -3.08,0.836 -0.806004,0 -1.554004,-0.1393 -2.244004,-0.418 -0.674001,-0.2933 -1.261001,-0.6966 -1.760001,-1.21 -0.498,-0.5133 -0.887,-1.1146 -1.166,-1.804 -0.278,-0.704 -0.418,-1.474 -0.418,-2.31 0,-0.7773 0.132,-1.5106 0.396,-2.2 0.264,-0.704 0.631,-1.3126 1.1,-1.826 0.484,-0.528 1.064,-0.946 1.738,-1.254 0.675001,-0.308 1.423001,-0.462 2.244005,-0.462 0.836,0 1.577,0.1394 2.222,0.418 0.66,0.2787 1.218,0.6674 1.672,1.166 0.455,0.4987 0.8,1.1 1.034,1.804 0.25,0.704 0.374,1.474 0.374,2.31 0,0.0734 0,0.1394 0,0.198 -0.014,0.0734 -0.022,0.1394 -0.022,0.198 -0.014,0.0587 -0.022,0.1174 -0.022,0.176 h -8.294005 c 0.044,0.5134 0.169,0.9607 0.374,1.342 0.206,0.3814 0.455001,0.6967 0.748001,0.946 0.308,0.2494 0.646,0.4327 1.012,0.55 0.367004,0.1174 0.726004,0.176 1.078004,0.176 0.704,0 1.284,-0.1686 1.738,-0.506 0.455,-0.3373 0.829,-0.7553 1.122,-1.254 z m -2.266,-4.158 c -0.029,-0.22 -0.102,-0.462 -0.22,-0.726 -0.102,-0.2786 -0.271,-0.528 -0.506,-0.748 -0.22,-0.2346 -0.513,-0.4326 -0.88,-0.594 -0.352,-0.1613 -0.784,-0.242 -1.298,-0.242 -0.704004,0 -1.312004,0.2127 -1.826004,0.638 -0.498001,0.4107 -0.836001,0.968 -1.012001,1.672 z m 18.696,2.53 c 0,1.3787 -0.506,2.486 -1.518,3.322 -1.027,0.8214 -2.274,1.232 -3.74,1.232 -1.306,0 -2.457,-0.3813 -3.454,-1.144 -0.998,-0.7626 -1.687,-1.804 -2.068,-3.124 l 1.936,-0.792 c 0.132,0.4694 0.315,0.8947 0.55,1.276 0.234,0.3814 0.506,0.7114 0.814,0.99 0.322,0.264 0.674,0.4767 1.056,0.638 0.381,0.1467 0.784,0.22 1.21,0.22 0.924,0 1.679,-0.2346 2.266,-0.704 0.586,-0.484 0.88,-1.122 0.88,-1.914 0,-0.66 -0.242,-1.2246 -0.726,-1.694 -0.455,-0.4546 -1.306,-0.8946 -2.552,-1.32 -1.262,-0.4546 -2.046,-0.7626 -2.354,-0.924 -1.672,-0.8506 -2.508,-2.1046 -2.508,-3.762 0,-1.1586 0.462,-2.1486 1.386,-2.97 0.938,-0.8213 2.09,-1.232 3.454,-1.232 1.202,0 2.244,0.308 3.124,0.924 0.88,0.6014 1.466,1.3567 1.76,2.266 l -1.892,0.792 c -0.176,-0.5866 -0.528,-1.0706 -1.056,-1.452 -0.514,-0.396 -1.144,-0.594 -1.892,-0.594 -0.792,0 -1.46,0.22 -2.002,0.66 -0.543,0.4107 -0.814,0.946 -0.814,1.606 0,0.5427 0.212,1.012 0.638,1.408 0.469,0.396 1.488,0.8654 3.058,1.408 1.598,0.5427 2.735,1.21 3.41,2.002 0.689,0.7774 1.034,1.738 1.034,2.882 z m 2.166,-11.55 h 2.024 v 4.972 l -0.088,1.496 h 0.088 c 0.308,-0.528 0.777,-0.968 1.408,-1.32 0.645,-0.352 1.312,-0.528 2.002,-0.528 1.32,0 2.332,0.3814 3.036,1.144 0.718,0.748 1.078,1.8187 1.078,3.212 v 6.776 h -2.024 v -6.38 c 0,-1.936 -0.858,-2.904 -2.574,-2.904 -0.822,0 -1.518,0.3447 -2.09,1.034 -0.558,0.6747 -0.836,1.4667 -0.836,2.376 v 5.874 h -2.024 z m 16.845,16.104 c -1.584,0 -2.889,-0.5426 -3.916,-1.628 -1.026,-1.0853 -1.54,-2.4566 -1.54,-4.114 0,-1.6426 0.499,-3.0066 1.496,-4.092 0.998,-1.1 2.274,-1.65 3.828,-1.65 1.599,0 2.868,0.5207 3.806,1.562 0.954,1.0267 1.43,2.4714 1.43,4.334 l -0.022,0.22 h -8.47 c 0.03,1.056 0.382,1.9067 1.056,2.552 0.675,0.6454 1.482,0.968 2.42,0.968 1.291,0 2.303,-0.6453 3.036,-1.936 l 1.804,0.88 c -0.484,0.9094 -1.158,1.6207 -2.024,2.134 -0.85,0.5134 -1.818,0.77 -2.904,0.77 z m -3.234,-7.04 h 6.182 c -0.058,-0.748 -0.366,-1.364 -0.924,-1.848 -0.542,-0.4986 -1.276,-0.748 -2.2,-0.748 -0.762,0 -1.422,0.2347 -1.98,0.704 -0.542,0.4694 -0.902,1.1 -1.078,1.892 z m 15.218,7.04 c -1.584,0 -2.889,-0.5426 -3.916,-1.628 -1.026,-1.0853 -1.54,-2.4566 -1.54,-4.114 0,-1.6426 0.499,-3.0066 1.496,-4.092 0.998,-1.1 2.274,-1.65 3.828,-1.65 1.599,0 2.868,0.5207 3.806,1.562 0.954,1.0267 1.43,2.4714 1.43,4.334 l -0.022,0.22 h -8.47 c 0.03,1.056 0.382,1.9067 1.056,2.552 0.675,0.6454 1.482,0.968 2.42,0.968 1.291,0 2.303,-0.6453 3.036,-1.936 l 1.804,0.88 c -0.484,0.9094 -1.158,1.6207 -2.024,2.134 -0.85,0.5134 -1.818,0.77 -2.904,0.77 z m -3.234,-7.04 h 6.182 c -0.058,-0.748 -0.366,-1.364 -0.924,-1.848 -0.542,-0.4986 -1.276,-0.748 -2.2,-0.748 -0.762,0 -1.422,0.2347 -1.98,0.704 -0.542,0.4694 -0.902,1.1 -1.078,1.892 z m 14.217,6.864 c -0.88,0 -1.613,-0.2713 -2.2,-0.814 -0.572,-0.5426 -0.865,-1.298 -0.88,-2.266 v -6.028 h -1.892 v -1.848 h 1.892 v -3.3 h 2.024 v 3.3 h 2.64 v 1.848 h -2.64 v 5.368 c 0,0.7187 0.139,1.21 0.418,1.474 0.279,0.2494 0.594,0.374 0.946,0.374 0.161,0 0.315,-0.0146 0.462,-0.044 0.161,-0.044 0.308,-0.0953 0.44,-0.154 l 0.638,1.804 c -0.528,0.1907 -1.144,0.286 -1.848,0.286 z m 12.056,-3.168 c 0,0.9387 -0.411,1.7307 -1.232,2.376 -0.821,0.6454 -1.855,0.968 -3.102,0.968 -1.085,0 -2.039,-0.2786 -2.86,-0.836 -0.821,-0.572 -1.408,-1.32 -1.76,-2.244 l 1.804,-0.77 c 0.264,0.6454 0.645,1.1514 1.144,1.518 0.513,0.352 1.071,0.528 1.672,0.528 0.645,0 1.181,-0.1393 1.606,-0.418 0.44,-0.2786 0.66,-0.6086 0.66,-0.99 0,-0.6893 -0.528,-1.1953 -1.584,-1.518 l -1.848,-0.462 c -2.097,-0.528 -3.146,-1.54 -3.146,-3.036 0,-0.9826 0.396,-1.7673 1.188,-2.354 0.807,-0.6013 1.833,-0.902 3.08,-0.902 0.953,0 1.811,0.2274 2.574,0.682 0.777,0.4547 1.32,1.0634 1.628,1.826 l -1.804,0.748 c -0.205,-0.4546 -0.543,-0.8066 -1.012,-1.056 -0.455,-0.264 -0.968,-0.396 -1.54,-0.396 -0.528,0 -1.005,0.132 -1.43,0.396 -0.411,0.264 -0.616,0.5867 -0.616,0.968 0,0.616 0.579,1.056 1.738,1.32 l 1.628,0.418 c 2.141,0.528 3.212,1.606 3.212,3.234 z"
         fill="#5f6368"
         id="path4-9-3-0"
         style="fill:#181818;fill-opacity:1" /></g></g></svg>
