<?xml version="1.0" encoding="UTF-8" standalone="no"?>
<!-- Created with Inkscape (http://www.inkscape.org/) -->

<svg
   width="25.91748"
   height="23.747637"
   viewBox="0 0 6.8573332 6.2832289"
   version="1.1"
   id="svg1"
   xml:space="preserve"
   xmlns="http://www.w3.org/2000/svg"
   xmlns:svg="http://www.w3.org/2000/svg"><defs
     id="defs1"><clipPath
       clipPathUnits="userSpaceOnUse"
       id="clipath_lpe_path-effect5-8"><rect
         style="display:none;fill:#ffffff;fill-opacity:1;fill-rule:evenodd;stroke:none;stroke-width:0.264583;stroke-linejoin:round;stroke-miterlimit:5.4;stroke-opacity:1;paint-order:markers fill stroke"
         id="rect8"
         width="3.8613534"
         height="3.2029665"
         x="266.74603"
         y="-1.6880499"
         rx="1.1404128"
         ry="1.1153588"
         d="m 267.88645,-1.6880499 h 1.58052 c 0.63179,0 1.14042,0.49745 1.14042,1.11535882 v 0.97224879 c 0,0.61790879 -0.50863,1.11535879 -1.14042,1.11535879 h -1.58052 c -0.63179,0 -1.14042,-0.49745 -1.14042,-1.11535879 v -0.97224879 c 0,-0.61790882 0.50863,-1.11535882 1.14042,-1.11535882 z" /><path
         id="lpe_path-effect5-8"
         style="fill:#ffffff;fill-opacity:1;fill-rule:evenodd;stroke:none;stroke-width:0.264583;stroke-linejoin:round;stroke-miterlimit:5.4;stroke-opacity:1;paint-order:markers fill stroke"
         class="powerclip"
         d="m 258.8439,-5.4689568 h 15.80424 V 9.1010413 H 258.8439 Z m 9.04255,3.7809069 c -0.63179,0 -1.14042,0.49745 -1.14042,1.11535882 v 0.97224879 c 0,0.61790879 0.50863,1.11535879 1.14042,1.11535879 h 1.58052 c 0.63179,0 1.14042,-0.49745 1.14042,-1.11535879 v -0.97224879 c 0,-0.61790882 -0.50863,-1.11535882 -1.14042,-1.11535882 z" /></clipPath></defs><g
     id="layer1"
     transform="translate(-252.63302,-0.00447349)"><path
       style="fill:none;fill-opacity:1;fill-rule:evenodd;stroke:#cccccc;stroke-width:0.264583;stroke-linejoin:round;stroke-miterlimit:5.4;stroke-dasharray:none;stroke-opacity:1;paint-order:markers fill stroke"
       id="rect2-6"
       width="5.5396519"
       height="4.3054152"
       x="263.9762"
       y="-0.3366653"
       rx="1.1404128"
       ry="1.1153588"
       clip-path="url(#clipath_lpe_path-effect5-8)"
       d="m 265.11661,-0.3366653 h 3.25883 c 0.63178,0 1.14041,0.49745004 1.14041,1.11535883 V 2.853391 c 0,0.6179088 -0.50863,1.1153589 -1.14041,1.1153589 h -3.25883 c -0.63179,0 -1.14041,-0.4974501 -1.14041,-1.1153589 V 0.77869353 c 0,-0.61790879 0.50862,-1.11535883 1.14041,-1.11535883 z"
       transform="translate(-11.210884,0.79937189)" /><path
       style="fill:none;fill-opacity:1;fill-rule:evenodd;stroke:#cccccc;stroke-width:0.264583;stroke-linejoin:round;stroke-miterlimit:5.4;stroke-opacity:1;paint-order:markers fill stroke"
       d="m 255.53513,4.7681216 v 1.387289"
       id="path2-1" /><path
       style="fill:none;fill-opacity:1;fill-rule:evenodd;stroke:#cccccc;stroke-width:0.264583;stroke-linejoin:round;stroke-miterlimit:5.4;stroke-opacity:1;paint-order:markers fill stroke"
       d="m 254.47925,6.1554106 h 1.95877"
       id="path3-8" /><path
       style="fill:none;fill-opacity:1;fill-rule:evenodd;stroke:#cccccc;stroke-width:0.264583;stroke-linejoin:round;stroke-miterlimit:5.4;stroke-opacity:1;paint-order:markers fill stroke"
       d="m 254.76011,3.8293596 1.55007,0.0071"
       id="path4-9" /><rect
       style="fill:none;fill-opacity:1;fill-rule:evenodd;stroke:#cccccc;stroke-width:0.264583;stroke-linejoin:round;stroke-miterlimit:5.4;stroke-dasharray:none;stroke-opacity:1;paint-order:markers fill stroke"
       id="rect6-2"
       width="2.8386407"
       height="1.8413628"
       x="255.86713"
       y="0.13676499"
       rx="0.45561564"
       ry="0.33325514" /><path
       id="rect7-7"
       style="fill:none;fill-rule:evenodd;stroke:#cccccc;stroke-width:0.270827;stroke-linejoin:round;stroke-miterlimit:5.4;stroke-opacity:1;paint-order:markers fill stroke"
       d="m 258.87416,0.66484419 0.42259,-0.198359 c 0.0465,-0.021851 0.0548,0.2418285 0.0551,0.3077451 l 0.003,0.45788801 c 3.5e-4,0.065937 8.8e-4,0.3214402 -0.046,0.3013464 L 258.87454,1.347903 c -0.047,-0.02009 -0.0891,-0.053067 -0.0891,-0.118984 V 0.78382829 c 0,-0.065917 0.0425,-0.097133 0.0891,-0.1189841 z" /></g></svg>
