<?xml version="1.0" encoding="UTF-8" standalone="no"?>
<!-- Created with Inkscape (http://www.inkscape.org/) -->

<svg
   width="232.4903mm"
   height="180.1082mm"
   viewBox="0 0 232.4903 180.1082"
   version="1.1"
   id="svg1"
   xml:space="preserve"
   xmlns="http://www.w3.org/2000/svg"
   xmlns:svg="http://www.w3.org/2000/svg"><defs
     id="defs1" /><g
     id="layer1"
     transform="translate(716.96826,796.44729)"><path
       style="fill:#1de08a;fill-opacity:1;fill-rule:evenodd;stroke:none;stroke-width:2.64583;stroke-linejoin:round;stroke-miterlimit:5.4;stroke-dasharray:none;stroke-opacity:1;paint-order:markers fill stroke"
       d="m -878.88005,-249.62201 c -1.34666,0.0816 -2.69332,0.16323 -4.75415,0.79577 -2.06083,0.63254 -4.8357,1.81594 -8.10037,3.99919 -3.26467,2.18325 -7.01891,5.36621 -8.56961,7.22297 -1.5507,1.85677 -0.89779,2.38727 -10e-6,3.28506 0.89779,0.89778 2.04039,2.16281 2.81574,3.24423 0.77535,1.08141 1.18342,1.97916 -0.10205,1.57106 -1.28548,-0.40809 -4.2644,-2.12199 -6.54966,-0.63245 -2.28525,1.48953 -3.87674,6.18235 -4.01954,8.48799 -0.14281,2.30565 1.16302,2.22404 2.14496,2.20618 0.98195,-0.0178 1.63995,0.0281 2.49183,0.30352 0.85187,0.27545 1.89756,0.78044 2.70862,1.42063 0.81107,0.64018 1.38746,1.41552 4.95564,11.64635 3.56817,10.23083 10.12785,29.91636 16.16353,39.79539 6.03567,9.87903 11.54697,9.95116 20.13161,9.95838 8.58465,0.007 20.24206,-0.0505 26.37387,0.2092 6.13181,0.25971 6.73776,0.83681 8.10121,1.04601 1.36345,0.2092 3.48427,0.0505 6.93978,0.98833 3.45551,0.93783 8.24542,2.9721 14.15368,4.33553 5.90825,1.36343 12.93442,2.05595 18.56851,2.01988 5.63409,-0.0361 9.87578,-0.80074 13.5621,-2.33732 3.68632,-1.53658 6.81708,-3.84497 9.03898,-6.21116 2.2219,-2.36618 3.5348,-4.79 4.37883,-8.4547 0.84402,-3.66471 1.21914,-8.57005 0.39674,-14.18252 -0.8224,-5.61247 -2.84226,-11.93171 -4.55196,-16.7434 -1.70971,-4.8117 -3.10917,-8.11559 -5.3383,-12.23477 -2.22912,-4.11918 -5.28775,-9.05338 -8.00019,-12.8912 -2.71245,-3.83782 -5.07855,-6.57904 -7.05518,-7.7044 -1.97663,-1.12536 -3.56365,-0.63482 -5.76391,0.33906 -2.20026,0.97389 -5.01361,2.43106 -7.14894,3.85222 -2.13533,1.42115 -3.59251,2.80618 -4.71067,4.01813 -1.11817,1.21194 -1.89724,2.25071 -2.74128,3.41216 -0.84403,1.16145 -1.75297,2.44551 -2.42386,3.21018 -0.67089,0.76467 -1.10372,1.00995 -1.07486,0.36789 0.0289,-0.64205 0.5194,-2.17136 1.19751,-3.8955 0.67811,-1.72414 1.54376,-3.643 3.47712,-6.16789 1.93335,-2.52488 4.93428,-5.65565 8.0002,-7.9064 3.06593,-2.25074 6.19671,-3.62136 7.62505,-4.60967 1.42835,-0.98831 1.15423,-1.59426 -0.64928,-3.40498 -1.8035,-1.81071 -5.13626,-4.82607 -8.37532,-6.9686 -3.23906,-2.14253 -6.38427,-3.41215 -10.03454,-4.8838 -3.65027,-1.47165 -7.80537,-3.14524 -12.0544,-2.14968 -4.24903,0.99555 -8.5917,4.66013 -11.15264,6.59345 -2.56094,1.93332 -3.34003,2.13531 -3.85942,2.09924 -0.5194,-0.0361 -0.77911,-0.3102 -0.6204,-0.75747 0.15871,-0.44726 0.73582,-1.06764 2.71967,-3.4122 1.98386,-2.34456 5.37432,-6.4131 7.19222,-9.26982 1.8179,-2.85672 2.06316,-4.50145 2.12809,-6.12459 0.0649,-1.62314 -0.0505,-3.22458 -0.3607,-4.8838 -0.3102,-1.65921 -0.81517,-3.37609 -1.60149,-4.80445 -0.78632,-1.42835 -1.85395,-2.56811 -3.80173,-3.37608 -1.94778,-0.80797 -4.77557,-1.28407 -7.2211,-1.31293 -2.44553,-0.0289 -4.50864,0.38954 -5.95143,0.8873 -1.4428,0.49777 -2.26516,1.07486 -1.76738,3.1525 0.49778,2.07764 2.31564,5.65566 3.47708,7.62506 1.16145,1.96939 1.6664,2.33007 1.44276,3.5781 -0.22364,1.24803 -1.17585,3.3833 -3.51319,6.0164 -2.33734,2.6331 -6.05963,5.76386 -8.93078,8.06511 -2.87116,2.30124 -4.891,3.77284 -6.78827,4.20567 -1.89727,0.43283 -3.67185,-0.17312 -4.97757,-0.80795 -1.30572,-0.63483 -2.14252,-1.2985 -2.56814,-1.68806 -0.42562,-0.38956 -0.44005,-0.50496 -0.3607,-1.06765 0.0794,-0.56269 0.25249,-1.57262 -0.14302,-2.97444 -0.3955,-1.40183 -1.35959,-3.19542 -3.45166,-4.93401 -2.09207,-1.73858 -5.31194,-3.42197 -7.08062,-3.87413 -1.76868,-0.45215 -2.08608,0.32693 -2.32414,1.6038 -0.23806,1.27688 -0.39676,3.05147 -0.44634,4.42734 -0.0496,1.37587 0.01,2.35297 0.0695,3.33008 z"
       id="path8364"
       transform="translate(269.29205,-472.58192)" /><path
       style="fill:#ffffff;fill-opacity:1;fill-rule:evenodd;stroke:none;stroke-width:0.612119;stroke-linejoin:round;stroke-miterlimit:5.4;stroke-dasharray:none;stroke-opacity:1;paint-order:markers fill stroke"
       d="m -594.95327,-635.96014 c -0.7138,-0.17763 -1.0845,-0.66554 -1.0845,-1.42755 0,-1.03343 0.5615,-2.07658 3.3984,-6.31323 2.1673,-3.23679 2.4424,-3.69197 2.386,-3.94856 -0.027,-0.1238 -0.094,-0.21061 -0.1921,-0.24773 -0.4753,-0.18069 -1.5789,0.40749 -5.2828,2.81561 -2.6613,1.73023 -4.5093,2.8455 -5.6013,3.3806 -1.0084,0.49405 -1.1821,0.5053 -1.9474,0.12605 -0.8809,-0.43648 -1.4529,-1.05978 -1.4529,-1.58312 0,-0.18986 0.046,-0.27121 0.2798,-0.49529 0.9911,-0.94958 4.8178,-3.77104 8.7721,-6.4677 2.1426,-1.46113 2.718,-1.88681 3.2058,-2.37151 0.3106,-0.30866 0.352,-0.37828 0.352,-0.5927 0,-0.28064 -0.1373,-0.47101 -0.3791,-0.52581 -0.1218,-0.0276 -0.2826,0.0246 -0.6149,0.19964 -1.9627,1.03364 -9.2542,6.10657 -11.4865,7.99146 -1.2078,1.01984 -1.2183,1.02531 -1.6011,0.83002 -0.6071,-0.30972 -0.9906,-0.84001 -0.9984,-1.38064 -0.01,-0.54246 0.2642,-0.98381 1.2142,-1.9699 1.3723,-1.42432 3.7705,-3.62804 6.2717,-5.76297 0.6544,-0.55858 1.5767,-1.34614 2.0496,-1.75013 1.0245,-0.87527 1.6727,-1.47885 1.7567,-1.63599 0.089,-0.16671 -0.039,-0.50106 -0.2646,-0.6911 -0.243,-0.20447 -0.4344,-0.16846 -0.9705,0.18254 -0.6519,0.42691 -3.4651,2.71711 -5.097,4.14939 -0.5817,0.51063 -1.0109,0.7907 -1.5878,1.03618 -0.9489,0.40379 -2.4953,0.66855 -3.9951,0.68403 -0.9969,0.0103 -1.0308,-0.003 -1.4667,-0.55796 -0.3639,-0.46365 -0.62,-0.95497 -0.738,-1.41563 -0.089,-0.34556 -0.088,-0.40588 0,-0.72037 0.1239,-0.42608 0.5387,-0.86366 1.1629,-1.22666 2.6702,-1.5528 9.931,-4.51596 16.3219,-6.66105 l 2.6105,-0.87619 1.6438,0.2099 c 2.6672,0.34059 4.7708,0.68105 9.2586,1.49841 4.527,0.8245 12.4027,2.38185 12.6074,2.49299 0.1122,0.0609 0.5993,1.43723 0.7515,2.12363 0.1644,0.74117 0.2131,2.72564 0.1195,4.86635 -0.1099,2.51209 -0.225,3.18802 -0.8702,5.1094 -0.8916,2.65522 -1.5982,4.06417 -2.6946,5.37322 -0.2167,0.2587 -0.3586,0.48567 -0.3586,0.57362 0,0.17569 -0.01,0.17623 -0.298,0.0272 -0.4862,-0.24804 -1.4935,-0.48983 -3.7127,-0.89116 -2.27,-0.41051 -3.367,-0.69736 -6.7931,-1.77628 -2.4692,-0.77756 -3.2908,-1.00938 -3.5774,-1.00938 -0.3626,0 -0.6395,0.25133 -1.954,1.77357 -1.3515,1.56503 -3.6546,3.82912 -5.2535,5.16461 -0.6864,0.57328 -1.3539,1.04121 -1.8248,1.27921 -0.6827,0.3451 -1.6,0.52739 -2.0679,0.41097 z"
       id="path8365" /><path
       style="fill:#000000"
       d="m -522.40247,-616.7043 c -5.3313,-0.62189 -11.0785,-1.74509 -14.1801,-2.7713 -6.8026,-2.25072 -13.9203,-6.65244 -19.4973,-12.05757 -1.1868,-1.15018 -1.6143,-1.73837 -1.4931,-2.05425 0.2945,-0.76748 0.899,-0.49301 2.8487,1.29357 7.8296,7.17439 15.5598,11.26041 24.4848,12.94218 25.7312,4.84864 40.3095,-0.78237 43.7308,-16.89144 0.8679,-4.08638 0.7976,-11.22911 -0.167,-16.96923 -2.1351,-12.706 -7.0031,-26.2 -14.5787,-40.41187 -7.376,-13.83729 -12.434,-20.62275 -18.3057,-24.55749 -3.3167,-2.22262 -11.7794,-6.14055 -19.9337,-9.2286 -5.2422,-1.98521 -4.8084,-1.60929 -4.9045,-4.25099 -0.1114,-3.06162 -0.8963,-5.97421 -2.46,-9.12812 -2.5204,-5.08337 -5.2842,-7.42938 -10.3369,-8.7743 -1.9345,-0.51492 -8.4625,-0.65723 -11.8623,-0.2586 -1.9328,0.22663 -1.9401,0.22512 -1.8521,-0.3861 0.1315,-0.91295 1.4535,-1.12221 7.2321,-1.14474 5.6414,-0.022 7.2468,0.25716 10.5923,1.84185 2.3022,1.09048 3.9587,2.52511 5.5783,4.83093 2.5373,3.61233 4.0849,7.92632 4.4877,12.50917 l 0.176,2.00362 2.4152,0.88374 c 7.3632,2.69428 18.2344,7.70959 21.7269,10.02341 3.3492,2.21892 7.7044,6.92934 11.1627,12.0731 3.1602,4.70037 8.5141,14.47672 11.9539,21.82812 5.7002,12.18217 9.7565,25.80888 10.9082,36.64479 0.4123,3.87996 0.1556,10.39842 -0.5282,13.40805 -2.3629,10.39997 -9.8337,16.83794 -21.5875,18.60298 -3.2372,0.48612 -11.4393,0.48563 -15.6105,-9.1e-4 z m -167.134,-1.72487 c -0.5366,-0.28342 -1.1596,-0.77801 -1.3845,-1.09907 -0.391,-0.55819 -1.4787,-3.74247 -5.2699,-15.42784 -3.9706,-12.23812 -5.2314,-16.114 -10.1553,-31.22084 -2.8459,-8.73125 -5.2964,-16.37871 -5.4457,-16.99437 -0.5019,-2.07047 0.5766,-4.21913 2.5728,-5.12576 1.0341,-0.46965 2.6491,-0.49036 38.6681,-0.49593 41.622,-0.006 38.9679,-0.11703 41.4691,1.72799 0.6989,0.51548 1.6172,1.48366 2.0407,2.15151 0.806,1.27097 1.0052,1.8474 6.6125,19.13344 1.9118,5.89359 3.6409,11.19187 3.8426,11.77395 0.2017,0.58209 1.6907,5.16599 3.3091,10.18646 1.6183,5.02047 3.6176,11.1522 4.4429,13.62605 l 1.5004,4.49792 25.7969,0.13229 c 21.7498,0.11154 25.8861,0.19156 26.3656,0.51008 1.9095,1.26836 1.865,5.98232 -0.065,6.86159 -0.489,0.22281 -17.9317,0.2982 -66.993,0.28955 -65.2158,-0.0115 -66.3482,-0.0204 -67.3075,-0.52702 z m 133.7893,-1.14305 c 0.3856,-0.28198 0.4803,-0.66453 0.4422,-1.78593 -0.064,-1.88887 -0.1891,-2.21646 -0.9817,-2.57757 -0.49,-0.22326 -7.5586,-0.30473 -26.4386,-0.30473 h -25.7698 l -1.1855,-3.63802 c -0.6521,-2.00091 -3.4059,-10.48413 -6.1196,-18.85158 -9.0248,-27.82689 -11.5595,-35.57905 -11.9072,-36.41712 -0.5488,-1.32273 -2.1433,-2.89552 -3.5483,-3.49993 l -1.2957,-0.5574 -37.8648,-0.0104 c -25.2534,-0.007 -38.0327,0.0795 -38.369,0.25951 -0.9225,0.49368 -1.6037,1.62594 -1.6037,2.66544 0,0.94551 0.9366,4.02449 4.9467,16.26093 0.9538,2.91041 2.4806,7.61338 3.3929,10.45104 3.0974,9.63409 8.6201,26.56959 10.3964,31.88063 1.6373,4.89558 1.8362,5.3345 2.6682,5.88698 l 0.899,0.59698 h 65.9239 c 55.0765,0 66.0046,-0.0591 66.4146,-0.35885 z m -57.5675,-2.22084 c -0.314,-0.81775 -3.9475,-11.47192 -7.7827,-22.82032 -3.4251,-10.13506 -8.0994,-23.95281 -10.5536,-31.19787 -1.1048,-3.26159 -2.0087,-6.01705 -2.0087,-6.12325 0,-0.38255 0.8946,-0.5262 1.2037,-0.19328 0.1739,0.18725 0.6414,1.29294 1.0391,2.45711 1.1813,3.45872 11.6287,34.33525 14.2792,42.20104 1.3485,4.00183 3.0642,9.05037 3.8128,11.21898 0.7485,2.16862 1.361,4.22245 1.361,4.56407 0,0.9136 -0.9891,0.83564 -1.3508,-0.10648 z m 16.5879,-13.58019 c -0.6551,-0.77848 -0.8114,-1.43624 -0.687,-2.89013 0.051,-0.59792 1.1686,-2.67788 2.6652,-4.96094 0.3101,-0.47294 0.4882,-0.85989 0.396,-0.85989 -0.092,0 -1.3111,0.72756 -2.7084,1.61679 -3.0478,1.93962 -4.4491,2.6033 -5.5102,2.60974 -0.9687,0.006 -2.2869,-0.76318 -2.9483,-1.72012 -0.2702,-0.39089 -1.1164,-1.33493 -1.8803,-2.09786 -2.0271,-2.02426 -1.936,-3.02262 0.5093,-5.58533 l 1.0265,-1.07575 -1.5929,0.11522 c -1.9272,0.13941 -2.659,-0.25223 -3.4807,-1.86303 -0.693,-1.35837 -0.7647,-2.7967 -0.1836,-3.68358 0.8112,-1.23805 9.6738,-5.16439 17.5938,-7.79444 1.9594,-0.65067 3.1657,-0.89456 4.4247,-0.89456 1.9637,0 7.7776,0.95764 17.62,2.90226 5.67,1.12024 14.176,2.55446 20.373,3.43513 1.0307,0.14648 1.7589,0.0997 2.4966,-0.16053 2.6611,-0.93856 7.8386,-1.6707 11.857,-1.67668 0.8367,-10e-4 1.5205,-0.0916 1.5194,-0.2007 0,-0.10914 -0.4841,-2.52015 -1.0733,-5.35781 -0.5892,-2.83766 -1.4903,-7.18344 -2.0025,-9.65729 -0.5121,-2.47386 -1.5869,-7.65307 -2.3883,-11.50937 -1.7783,-8.55599 -1.862,-9.13309 -1.3529,-9.32844 0.9779,-0.37526 0.7802,-1.16412 5.6194,22.42531 0.9553,4.65666 1.9878,9.6624 2.2945,11.12386 l 0.5575,2.6572 4.5247,0.54336 c 3.9504,0.47439 4.7775,0.50138 6.516,0.21259 1.846,-0.30665 3.3777,-0.54801 10.061,-1.58536 1.3825,-0.21458 3.2564,-0.52105 4.1643,-0.68104 1.8799,-0.33128 2.4503,-0.20662 2.4503,0.53555 0,0.60487 -0.2839,0.7149 -2.7781,1.07685 -1.0187,0.14783 -3.3404,0.50929 -5.1594,0.80327 -1.819,0.29397 -3.8165,0.60902 -4.4389,0.70011 -0.6224,0.0911 -1.0976,0.19963 -1.0561,0.2412 0.042,0.0416 1.9201,0.38588 4.1744,0.76514 2.2543,0.37925 6.0433,1.05889 8.4201,1.51031 4.3733,0.83062 5.0687,1.14787 4.2476,1.93794 -0.3064,0.29488 -0.912,0.24691 -3.6742,-0.29106 -1.819,-0.35427 -6.0628,-1.11574 -9.4306,-1.69215 -17.3366,-2.96718 -25.8953,-3.32541 -31.8138,-1.3316 -1.8965,0.63887 -2.5359,0.65422 -5.8514,0.14051 -1.3825,-0.2142 -4.1209,-0.63022 -6.0854,-0.92449 -1.9646,-0.29426 -3.9541,-0.60548 -4.4212,-0.69159 l -0.8493,-0.15656 0.2528,0.88157 c 1.1761,4.10057 -0.027,11.54644 -2.5352,15.68407 -0.7322,1.20814 -0.8679,1.6116 -0.5994,1.78183 0.1909,0.12103 2.1085,1.19723 4.2614,2.39157 3.2534,1.80483 3.9012,2.26348 3.8362,2.7161 -0.1243,0.86594 -1.1376,0.6135 -3.8245,-0.95283 -1.3332,-0.77716 -3.3333,-1.92461 -4.4448,-2.54988 -1.1115,-0.62527 -2.0819,-1.29582 -2.1564,-1.49011 -0.075,-0.19429 0.1814,-0.69474 0.5689,-1.1121 1.1067,-1.1921 1.8745,-2.67325 2.7934,-5.38906 0.7566,-2.23625 0.861,-2.90758 0.9466,-6.08541 0.079,-2.91842 0.011,-3.8139 -0.3719,-4.89479 l -0.4681,-1.32292 -3.5719,-0.73742 c -6.0061,-1.23997 -14.5379,-2.77632 -17.3724,-3.1283 l -2.6881,-0.33379 -3.3973,1.13778 c -5.6973,1.90805 -13.6184,5.18697 -15.6905,6.49503 -1.2764,0.80571 -1.406,1.68225 -0.4548,3.07601 0.5744,0.84162 0.6968,0.8943 1.9182,0.82509 2.6759,-0.15163 4.098,-0.59168 5.2412,-1.62183 0.5999,-0.5405 2.1499,-1.84655 3.4447,-2.90235 2.0719,-1.68955 2.4007,-1.87298 2.7433,-1.53042 0.214,0.21407 0.3095,0.51813 0.2121,0.6757 -0.097,0.15757 -1.3318,1.25076 -2.7433,2.42931 -3.7694,3.14754 -7.7313,6.85667 -8.27,7.74238 -0.5358,0.88118 -0.324,1.68883 0.5931,2.26161 0.4677,0.29205 0.6339,0.25143 1.238,-0.30244 2.1218,-1.94557 11.8291,-8.6624 12.5192,-8.6624 0.3037,0 0.4816,0.19361 0.4816,0.52394 0,0.37577 -0.9166,1.13669 -3.2411,2.69065 -4.1509,2.77485 -9.1954,6.53473 -9.3668,6.9814 -0.2211,0.57608 0.3637,1.35054 1.3861,1.83569 0.9626,0.4568 0.9748,0.45509 2.5546,-0.3597 0.8731,-0.45027 3.4168,-2.0239 5.6528,-3.49694 3.7756,-2.48738 4.8665,-2.95356 4.8665,-2.07964 0,0.16014 -0.9996,1.74163 -2.2214,3.51443 -2.6662,3.86857 -3.5994,5.56683 -3.5994,6.55026 0,1.69855 1.7628,2.06128 3.7851,0.77881 1.4807,-0.93903 5.1317,-4.40506 6.7982,-6.45372 0.6549,-0.80501 1.3692,-1.46792 1.5875,-1.47312 0.2183,-0.005 1.3494,0.29917 2.5136,0.67639 4.26,1.38038 5.6091,1.73944 8.202,2.18291 2.298,0.39302 2.6459,0.52073 2.6459,0.97131 0,1.13405 -3.0654,0.7606 -9.1285,-1.1121 l -3.914,-1.20895 -1.0095,1.15534 c -2.0429,2.33791 -5.3052,5.37905 -6.825,6.36227 -1.3498,0.87329 -1.7695,1.01078 -3.0853,1.01078 -1.3758,0 -1.5892,-0.0787 -2.2079,-0.81405 z m 43.3371,-3.00787 c -0.081,-0.21028 0.2243,-0.92156 0.6777,-1.58064 2.3557,-3.4239 3.3314,-6.94842 3.1256,-11.29081 -0.1163,-2.45361 -0.076,-2.87699 0.2882,-3.01669 1.4927,-0.57281 1.8045,5.12408 0.5213,9.52359 -1.2398,4.25067 -3.9756,8.02528 -4.6128,6.36455 z m -63.7074,-29.97861 c -0.078,-0.25466 -0.3311,-3.49912 -0.5625,-7.2099 -0.7678,-12.31234 -0.7829,-12.45074 -1.5245,-13.89839 -0.9572,-1.86864 -3.3058,-4.60479 -5.4029,-6.2945 -1.9611,-1.58011 -5.7554,-3.93391 -7.9483,-4.93072 -0.9516,-0.4326 -1.389,-0.78642 -1.389,-1.12366 0,-0.8925 0.7199,-0.79476 3.161,0.4292 4.541,2.27679 8.7456,5.44829 10.8619,8.19288 0.5093,0.66055 0.9888,1.20551 1.0655,1.21101 0.1281,0.009 0.014,-2.15776 -0.3901,-7.44517 -0.1457,-1.90502 -0.1206,-2.04229 0.405,-2.2091 0.3082,-0.0978 0.6582,-0.0767 0.7778,0.0469 0.1196,0.1236 0.5298,5.10628 0.9115,11.07264 0.3817,5.96635 0.8631,13.3194 1.0697,16.3401 0.2066,3.0207 0.3075,5.66984 0.2242,5.88698 -0.2089,0.54456 -1.0862,0.49703 -1.2593,-0.0682 z m 80.5466,-13.68352 c -0.385,-0.46392 0.1289,-1.87248 1.789,-4.90346 4.5493,-8.30612 10.4649,-14.3461 17.1295,-17.4896 2.7199,-1.28291 4.5083,-1.78016 4.9204,-1.36806 0.5253,0.52531 0.071,1.00095 -1.3982,1.4641 -0.7841,0.24717 -2.4592,0.97677 -3.7223,1.62132 -6.5256,3.32971 -12.4398,9.8504 -16.4652,18.15349 -1.2914,2.6638 -1.3316,2.73312 -1.6442,2.83734 -0.1497,0.0499 -0.4237,-0.0919 -0.609,-0.31513 z m -66.1687,-1.91454 c -3.2792,-2.75931 -1.355,-7.50987 5.8725,-14.49829 3.2193,-3.11273 7.5697,-6.83109 9.4475,-8.0749 l 1.1494,-0.76138 1.3643,0.53301 c 6.646,2.59653 15.284,10.18833 17.1349,15.05956 0.6866,1.80704 0.6429,3.09886 -0.144,4.25698 -1.2431,1.82939 -3.8545,2.37641 -6.2533,1.3099 -1.7388,-0.7731 -4.1251,-2.82221 -5.7237,-4.91484 -1.5398,-2.01576 -3.7256,-6.13319 -5.1023,-9.61121 l -0.8719,-2.20289 -1.2463,3.26122 c -2.2598,5.91326 -4.607,9.81277 -7.8403,13.02518 -3.2411,3.22007 -5.9776,4.14 -7.7868,2.61766 z m 3.9399,-1.46756 c 2.7061,-1.33794 6.3207,-5.91544 8.7507,-11.08158 1.2759,-2.71261 3.2795,-8.17564 3.0739,-8.38125 -0.1895,-0.18946 -5.7388,4.50352 -8.6901,7.34908 -2.9889,2.88186 -5.7346,6.26109 -6.5641,8.07885 -1.0355,2.26914 -0.3145,4.63021 1.4139,4.63021 0.4464,0 1.3535,-0.26789 2.0157,-0.59531 z m 28.1393,-1.76053 c 3.0919,-1.20726 2.2252,-4.55671 -2.4274,-9.3818 -2.7682,-2.87079 -5.8115,-5.28078 -8.7833,-6.95544 -3.2813,-1.8491 -3.2332,-1.87891 -2.076,1.28768 2.5205,6.89669 5.4555,11.4921 8.8193,13.80891 1.8581,1.27968 3.3245,1.68692 4.4674,1.24065 z m -69.5553,-7.7251 c -0.3404,-0.34048 -0.2108,-0.85161 0.9666,-3.80968 1.9312,-4.85222 5.6477,-10.79697 8.3028,-13.28069 3.6372,-3.40242 11.3502,-7.72337 19.7557,-11.06748 l 2.5136,-1 -0.088,-2.82306 c -0.076,-2.42478 10e-4,-3.0894 0.5448,-4.71079 l 0.6331,-1.88773 -1,-1.26767 c -1.8986,-2.40686 -2.678,-4.39272 -6.4164,-16.35008 l -0.3309,-1.05834 -2.9033,-0.4246 c -6.2649,-0.9162 -9.8793,-2.93681 -11.9277,-6.6681 -2.0819,-3.79248 -1.114,-7.78612 3.4476,-14.22569 2.3197,-3.27464 2.7486,-4.08247 4.456,-8.39229 0.714,-1.80244 1.647,-3.96809 2.0733,-4.81256 0.9894,-1.96008 3.0765,-4.10536 4.6941,-4.82504 2.3992,-1.06745 6.8488,-0.91198 9.773,0.34147 l 1.2017,0.51513 1.5729,-1.45619 c 5.2321,-4.84403 12.1017,-5.69403 17.8521,-2.20891 0.7661,0.46429 2.6041,1.95701 4.0844,3.31715 1.4804,1.36014 3.5405,2.96105 4.5782,3.55758 6.336,3.64241 7.8073,5.50005 8.0369,10.14664 0.1605,3.24903 -0.4335,5.89199 -2.2017,9.79559 -0.067,0.14883 0.2406,0.48513 0.6845,0.74733 1.2027,0.71047 1.8405,1.46756 2.5974,3.08312 0.9145,1.95182 0.9455,5.20141 0.071,7.46168 -0.7203,1.8626 -2.5804,3.98017 -3.9925,4.54517 -0.5832,0.23336 -1.0604,0.59606 -1.0604,0.806 0,1.85154 2.0413,8.69041 3.5596,11.92569 1.0111,2.15446 3.3105,5.42396 3.8147,5.42396 0.2717,0 1.5269,-2.69995 2.091,-4.49792 0.3566,-1.13656 0.587,-1.47372 1.0519,-1.53975 0.5005,-0.0711 0.5953,0.0382 0.5953,0.68618 0,0.4239 -0.2234,1.42018 -0.4965,2.21394 -2.0224,5.87821 -7.414,12.10322 -16.5691,19.13027 -3.859,2.962 -3.7727,2.91037 -4.2292,2.53154 -0.5752,-0.47738 -0.2323,-0.94117 1.8076,-2.44515 3.3992,-2.50606 7.9255,-6.43575 10.6359,-9.23395 2.4524,-2.53181 4.3574,-4.91279 4.3506,-5.43762 0,-0.11931 -0.4324,-0.63364 -0.9575,-1.14296 -2.4827,-2.40816 -4.3933,-6.38646 -5.9307,-12.34912 -0.905,-3.50972 -1.3432,-6.04467 -1.1377,-6.58033 0.081,-0.21182 0.378,-0.38513 0.6592,-0.38513 1.4032,0 3.2427,-1.54071 4.2709,-3.57721 1.1191,-2.21637 1.032,-6.06841 -0.1778,-7.86355 -1.3751,-2.04054 -3.9972,-2.67237 -6.2728,-1.51148 -1.1933,0.60877 -2.4774,2.41224 -2.9085,4.08463 -0.4732,1.83621 -0.5176,1.93596 -0.933,2.09534 -0.2233,0.0857 -0.6434,0.0287 -0.9335,-0.12655 -0.6251,-0.33453 -2.5816,-3.29125 -4.0643,-6.14192 -1.0495,-2.01772 -1.0672,-2.03486 -2.1167,-2.04157 -1.6252,-0.0104 -4.3593,-0.7387 -5.6811,-1.51332 -1.8868,-1.10576 -3.4966,-2.77926 -5.4264,-5.64126 -1.9456,-2.88547 -2.9928,-3.69228 -4.7924,-3.69228 -1.4802,0 -2.9274,0.52739 -3.286,1.19746 -0.3015,0.56322 -0.4466,0.5924 -2.3417,0.47063 -2.9153,-0.18732 -2.9785,-0.11356 -3.241,3.78249 -0.422,6.26264 -0.6558,6.91284 -3.5587,9.89581 l -2.0065,2.06187 1.2362,4.19431 c 4.838,16.41526 5.9811,19.35243 8.6366,22.19111 2.7137,2.90095 6.1558,4.20894 10.936,4.15564 6.1529,-0.0686 12.4673,-3.13148 15.1234,-7.3358 0.4134,-0.65431 0.8859,-1.18987 1.0499,-1.19013 0.6504,-10e-4 0.9829,0.85842 0.9529,2.46286 -0.057,3.03607 -1.7604,6.56996 -4.0756,8.45416 -2.1336,1.73641 -6.6548,3.63459 -8.657,3.63459 -0.6717,0 -0.6688,-0.23477 -0.03,2.43064 0.29,1.20976 0.5281,2.69317 0.5292,3.29647 0,1.0193 0.091,1.15342 1.2586,1.89599 0.6912,0.4395 1.8223,1.07095 2.5135,1.40322 1.2701,0.6105 1.6767,1.4125 0.8726,1.72104 -0.4275,0.16405 -3.0309,-1.08643 -4.8896,-2.3486 -2.7634,-1.87646 -7.9554,-7.4886 -7.9554,-8.59915 0,-1.30093 0.9179,-0.9148 2.3455,0.98669 0.6352,0.84602 1.918,2.29452 2.8507,3.21888 l 1.6957,1.68065 -0.1623,-0.92469 c -0.2416,-1.37722 -1.4184,-5.44579 -2.1506,-7.43502 l -0.6433,-1.74785 -2.2986,-0.15353 c -2.9112,-0.19445 -5.3218,-0.94404 -7.4411,-2.31381 -0.9157,-0.59182 -1.6986,-1.04006 -1.7398,-0.99609 -0.041,0.044 -0.2656,0.72664 -0.4988,1.51704 -0.8131,2.75579 -0.4006,6.96307 0.9471,9.65954 2.0253,4.05221 6.8138,8.28859 13.3771,11.83485 1.3449,0.72662 2.5198,1.4419 2.611,1.58949 0.091,0.1476 -0.023,0.45761 -0.2547,0.68892 -0.3844,0.38437 -0.6091,0.32248 -2.611,-0.71896 -7.708,-4.00998 -13.1193,-9.07672 -14.7826,-13.84145 -0.1905,-0.5457 -0.417,-0.99219 -0.5032,-0.99219 -0.4926,0 -6.8238,2.71744 -10.4525,4.4864 -7.6518,3.73013 -11.7386,6.87191 -14.642,11.25631 -1.5955,2.40931 -4.5597,8.2411 -5.2236,10.27705 -0.6344,1.94513 -1.0081,2.34556 -1.6189,1.73472 z m 19.7647,-59.84955 c -5.0197,-2.00882 -7.6618,-5.04976 -8.5508,-9.84138 l -0.3436,-1.85209 -0.3068,1.7198 c -0.8189,4.59012 2.1984,8.38798 8.0106,10.08273 2.2286,0.64983 2.9271,0.58585 1.1906,-0.10906 z m 34.2367,-15.0669 c -0.2405,-0.47295 -0.4647,-0.89255 -0.4983,-0.93246 -0.034,-0.0399 -0.9219,-0.31114 -1.9741,-0.60274 -2.4615,-0.68209 -4.0365,-1.49023 -5.9631,-3.05964 -1.5029,-1.22423 -1.5347,-1.23642 -1.0419,-0.39842 1.948,3.31208 5.7478,5.72548 9.1803,5.83065 l 0.7344,0.0225 z m 7.9278,62.6401 c -0.2775,-0.72303 0.1184,-1.13561 1.2749,-1.32876 5.294,-0.88416 15.1231,-4.90674 20.1929,-8.26398 3.0988,-2.05202 7.4815,-6.31507 8.8636,-8.62143 0.5093,-0.84998 1.1267,-1.80248 1.3719,-2.11666 0.4174,-0.53467 0.4749,-0.54288 0.8965,-0.12833 0.4239,0.41665 0.3993,0.53436 -0.414,1.98437 -1.8937,3.3765 -5.862,7.36958 -10.1888,10.25268 -4.9432,3.29379 -12.0969,6.31969 -19.0941,8.07648 -2.5823,0.64835 -2.7076,0.65464 -2.9029,0.14563 z m -86.2249,-10.28842 c -0.287,-0.2016 -2.4864,-2.52286 -4.8875,-5.15834 l -4.3656,-4.7918 -17.2085,-10e-4 c -19.2178,-0.001 -19.1653,0.003 -21.8176,-1.79374 -1.83,-1.2399 -3.5472,-3.71734 -3.9622,-5.71667 -0.2015,-0.97073 -0.2723,-5.0231 -0.2185,-12.50757 l 0.08,-11.07159 0.7754,-1.58173 c 1.4311,-2.91926 3.9586,-4.85991 7.0814,-5.4372 0.9626,-0.17795 10.4357,-0.24666 27.3671,-0.19849 l 25.8949,0.0737 1.7198,0.8232 c 2.2041,1.05503 3.8428,2.69036 4.8719,4.862 l 0.8166,1.72313 0.08,10.92075 c 0.09,12.34367 0.011,13.04985 -1.7526,15.63192 -1.9649,2.87679 -5.0161,4.27129 -9.3459,4.27129 h -2.3086 l -0.083,4.65414 c -0.081,4.52436 -0.1006,4.66823 -0.7078,5.15938 -0.7405,0.59897 -1.317,0.63839 -2.0285,0.13868 z m 1.2585,-1.2871 c 0.064,-0.1819 0.082,-2.29526 0.038,-4.69636 -0.044,-2.40109 -0.021,-4.55855 0.05,-4.79436 0.1084,-0.35869 0.7013,-0.44879 3.6283,-0.55139 3.1054,-0.10886 3.6667,-0.20262 4.9918,-0.83384 1.7327,-0.82535 3.4441,-2.56516 4.2745,-4.34561 0.5719,-1.22598 0.5825,-1.45623 0.5825,-12.62584 v -11.37708 l -0.7334,-1.49301 c -0.856,-1.74256 -2.6012,-3.45048 -4.3678,-4.27452 l -1.2488,-0.58247 h -26.5962 -26.5962 l -1.7654,0.86913 c -1.9202,0.94533 -3.0116,2.09677 -3.9837,4.20307 -0.5813,1.25953 -0.5897,1.44233 -0.5897,12.78718 v 11.50937 l 0.7275,1.38022 c 0.9673,1.83488 2.3442,3.16784 4.1444,4.01204 l 1.4781,0.69316 18.0409,0.0765 18.041,0.0765 3.8149,4.15684 c 2.0982,2.28626 4.2017,4.60332 4.6745,5.14902 0.9136,1.05461 1.206,1.19329 1.3945,0.66146 z m 64.8478,-23.90535 c -0.1847,-0.48129 0.3207,-0.88929 1.1091,-0.89529 0.6531,-0.005 2.4266,-0.92003 3.2486,-1.67624 0.3337,-0.30697 0.9751,-1.30646 1.4254,-2.22109 0.8018,-1.62864 1.4009,-2.06811 1.7125,-1.25612 0.4954,1.29106 -2.21,4.92695 -4.4061,5.9215 -1.4583,0.66044 -2.8627,0.71828 -3.0895,0.12724 z m -4.588,-6.25263 c -1.7532,-1.18145 -1.9624,-2.46388 -0.8988,-5.50828 0.6059,-1.73412 0.6472,-2.0696 0.3619,-2.93429 -0.1772,-0.53697 -0.8462,-1.54701 -1.4866,-2.24453 -1.1247,-1.22502 -1.3545,-1.92655 -0.7022,-2.14371 0.5238,-0.17439 2.3948,1.73265 3.1121,3.17191 0.8447,1.69508 0.8427,2.09882 -0.023,4.6632 -0.9012,2.66977 -0.7654,3.28198 0.9043,4.07471 1.4423,0.68475 1.644,1.34092 0.4481,1.4581 -0.5062,0.0496 -1.1395,-0.14862 -1.7159,-0.53711 z m -6.1981,-5.28891 c -0.4458,-0.63646 -0.5402,-1.97484 -0.1794,-2.54397 0.7606,-1.20001 2.7089,0.99724 2.1613,2.43752 -0.3364,0.8849 -1.3967,0.94185 -1.9819,0.10645 z m 14.4293,-3.41541 c -0.6653,-0.7141 -0.7306,-2.13182 -0.126,-2.73638 0.3718,-0.37187 0.5012,-0.37943 0.9922,-0.058 0.8592,0.56247 1.3074,1.6582 1.0257,2.50775 -0.3077,0.92838 -1.1721,1.05935 -1.8919,0.28667 z m 18.5885,-0.10667 c -0.094,-0.24478 0.025,-1.06693 0.2649,-1.82699 0.5044,-1.60013 1.9152,-3.15898 3.2609,-3.60311 1.8744,-0.6186 2.3561,0.53317 0.5492,1.31325 -1.4482,0.62526 -2.022,1.28734 -2.6007,3.00083 -0.4775,1.41361 -1.1614,1.93136 -1.4743,1.11602 z m -38.5449,-1.88711 c -0.7258,-0.72576 0.9338,-2.45456 2.9902,-3.11488 2.073,-0.66565 3.5629,-0.77969 3.9585,-0.303 0.5712,0.68825 -0.099,1.21302 -1.5493,1.21302 -1.4069,0 -3.8333,1.06799 -4.2668,1.87803 -0.2698,0.50413 -0.8018,0.65765 -1.1326,0.32683 z m 14.8249,-4.48968 c -0.1016,-0.10154 -0.1847,-0.38997 -0.1847,-0.64096 0,-0.82282 1.9603,-1.39179 5.1594,-1.49751 3.024,-0.0999 4.2333,0.18331 4.2333,0.99152 0,0.32263 -0.4518,0.37318 -2.6458,0.29606 -2.4198,-0.0851 -4.3573,0.19573 -5.9669,0.8648 -0.2259,0.0939 -0.4938,0.0876 -0.5953,-0.0139 z"
       id="path12-9" /><circle
       style="fill:#ffffff;fill-opacity:1;fill-rule:evenodd;stroke:none;stroke-width:2.64583;stroke-linejoin:round;stroke-miterlimit:5.4;stroke-dasharray:none;stroke-opacity:1;paint-order:markers fill stroke"
       id="path8366"
       cx="-699.98615"
       cy="-746.86389"
       r="4.4979167" /><circle
       style="fill:#ffffff;fill-opacity:1;fill-rule:evenodd;stroke:none;stroke-width:2.64583;stroke-linejoin:round;stroke-miterlimit:5.4;stroke-dasharray:none;stroke-opacity:1;paint-order:markers fill stroke"
       id="path8366-7"
       cx="-681.72992"
       cy="-746.86389"
       r="4.4979167" /><circle
       style="fill:#ffffff;fill-opacity:1;fill-rule:evenodd;stroke:none;stroke-width:2.64583;stroke-linejoin:round;stroke-miterlimit:5.4;stroke-dasharray:none;stroke-opacity:1;paint-order:markers fill stroke"
       id="path8366-7-2"
       cx="-663.47369"
       cy="-746.86389"
       r="4.4979167" /><path
       style="fill:#ffffff;fill-opacity:1;fill-rule:evenodd;stroke:none;stroke-width:2.44848;stroke-linejoin:round;stroke-miterlimit:5.4;stroke-dasharray:none;stroke-opacity:1;paint-order:markers fill stroke"
       d="m -519.68878,-618.02427 c -5.6248,-0.45054 -12.16422,-1.63481 -16.15993,-2.92651 -2.38514,-0.77104 -8.98654,-3.80957 -8.76273,-4.03338 0.0686,-0.0686 1.31765,0.26611 2.77574,0.74374 7.79021,2.55191 14.3587,3.6902 22.88146,3.96534 11.67659,0.37695 19.01891,-1.99806 25.10187,-8.11967 3.37544,-3.3969 4.93064,-7.26879 5.51468,-13.72957 0.62174,-6.87782 -0.85709,-14.89446 -4.78031,-25.91358 -2.46602,-6.92637 -4.33602,-10.86205 -8.27341,-17.41263 -5.33731,-8.87957 -9.6646,-14.38688 -12.40084,-15.7825 -1.53268,-0.78174 -3.47702,-0.62638 -5.83843,0.46646 -0.97805,0.45265 -1.83522,0.76602 -1.90486,0.69638 -0.3464,-0.34639 5.96246,-3.7883 7.76631,-4.23703 0.36042,-0.0897 0.84886,-0.3769 1.08543,-0.63831 0.39505,-0.43654 0.39806,-0.50739 0.0367,-0.86874 -0.33599,-0.33599 -0.55798,-0.35197 -1.52093,-0.10951 -2.97148,0.74822 -7.91607,3.6112 -10.87459,6.29651 -2.4685,2.24051 -6.9448,7.2137 -9.30142,10.33393 -1.18949,1.57488 -2.34519,3.01464 -2.56823,3.19945 -0.35502,0.29419 -0.40553,0.27313 -0.40553,-0.16904 0,-0.77272 1.16745,-3.87152 2.23068,-5.9209 2.83241,-5.45949 8.46253,-10.82654 15.39832,-14.67879 2.70931,-1.50479 3.42786,-2.09929 3.42786,-2.83602 0,-1.63743 -8.54852,-8.77808 -13.48486,-11.26397 -2.39257,-1.20489 -8.3507,-3.6366 -10.75316,-4.38873 -1.14364,-0.35803 -2.74154,-0.71278 -3.55087,-0.78838 -1.45614,-0.13596 -1.47153,-0.14544 -1.47095,-0.90341 0,-1.15023 -0.80584,-1.13396 -1.60983,0.0324 -0.52996,0.76883 -0.89146,0.98862 -2.25658,1.37197 -2.08952,0.58677 -4.64259,2.08259 -8.62023,5.05053 -1.75067,1.30627 -3.53563,2.5573 -3.96661,2.78006 -0.86802,0.44865 -1.68391,0.52556 -1.89812,0.17893 -0.0769,-0.12432 1.31477,-1.96987 3.09248,-4.10117 7.88162,-9.44933 9.32807,-12.24987 8.89362,-17.21932 -0.33247,-3.80278 -1.36655,-7.03593 -2.83879,-8.87571 -0.8568,-1.07072 -0.64675,-1.14168 0.96366,-0.32563 4.91707,2.49166 8.62486,9.11569 9.23991,16.50722 0.12417,1.49217 0.28821,2.15117 0.60955,2.44848 0.24183,0.22374 1.85193,0.94814 3.57801,1.60978 8.51967,3.26578 17.04756,7.19566 20.52249,9.45738 2.35373,1.53193 6.5161,5.64597 8.7082,8.607 5.44018,7.34851 12.86698,21.14986 17.27169,32.09626 2.46107,6.11618 4.84364,13.74357 6.05914,19.39731 1.41274,6.57117 1.48376,7.23419 1.49471,13.9563 0.01,5.81398 -0.0373,6.55304 -0.53925,8.52241 -3.371,13.22544 -14.23543,19.01743 -32.87207,17.52463 z"
       id="path8367" /><path
       style="fill:#ffffff;fill-opacity:1;fill-rule:evenodd;stroke:none;stroke-width:2.44848;stroke-linejoin:round;stroke-miterlimit:5.4;stroke-dasharray:none;stroke-opacity:1;paint-order:markers fill stroke"
       d="m -635.74648,-702.34193 c 0,-0.24299 2.40599,-4.39309 3.04575,-5.25364 0.34483,-0.46384 0.62695,-0.71221 0.62695,-0.55192 0,0.16025 0.73118,1.08812 1.62484,2.06192 1.79456,1.95551 2.9346,3.54759 2.70481,3.77738 -0.0821,0.0821 -1.08562,-0.15531 -2.23004,-0.52758 -2.39406,-0.77878 -3.91176,-0.74771 -5.06326,0.10361 -0.38997,0.28834 -0.70905,0.46395 -0.70905,0.39023 z"
       id="path8368" /><path
       style="fill:#ffffff;fill-opacity:1;fill-rule:evenodd;stroke:none;stroke-width:3.46266;stroke-linejoin:round;stroke-miterlimit:5.4;stroke-dasharray:none;stroke-opacity:1;paint-order:markers fill stroke"
       d="m -590.60075,-717.55245 c -0.22693,-0.14428 -0.1781,-1.5698 -0.36275,-2.70812 -0.18463,-1.13832 -0.80364,-3.19703 -0.93437,-3.71249 -0.20984,-0.82741 0.55495,-0.49994 1.42548,-0.69353 3.23107,-0.71867 7.14701,-1.94101 9.04849,-3.61054 2.30817,-2.0266 4.1733,-7.22156 3.52298,-9.8126 -0.34131,-1.3599 -1.25503,-1.05783 -2.81231,0.9297 -4.97737,6.35251 -16.88198,8.36617 -23.41928,4.20549 -4.02582,-2.56222 -5.43906,-5.55955 -10.2866,-21.81661 l -1.82914,-6.13442 1.99993,-2.16019 c 1.09995,-1.18808 2.22171,-2.69092 2.49275,-3.3396 0.27103,-0.6487 0.66209,-3.02077 0.86902,-5.27124 0.2069,-2.25049 0.50371,-4.29789 0.65953,-4.54977 0.19261,-0.31136 0.91789,-0.43066 2.26573,-0.37267 1.60565,0.0691 2.12802,-0.0515 2.74846,-0.63436 0.96256,-0.90427 3.26049,-1.23555 4.6314,-0.6677 0.64575,0.26746 1.91276,1.60276 3.34108,3.5211 1.2655,1.69963 2.97704,3.64426 3.80344,4.32144 1.58888,1.30198 4.96419,2.55029 6.89576,2.55029 1.09193,0 1.25293,0.17103 2.94624,3.13002 2.16191,3.77788 3.93782,5.31043 4.82833,5.31043 0.37393,0 0.626,-0.0913 0.7942,-0.52661 1.12016,-2.89935 1.67179,-3.87566 2.69975,-4.77821 0.94515,-0.82987 1.01105,-1.4043 2.36953,-1.4043 3.03964,0 5.31484,2.21678 5.29257,6.07367 -0.0109,1.85507 -0.19299,2.61432 -0.92896,3.87019 -1.06322,1.81422 -2.40204,2.96629 -3.76361,3.2386 -1.18616,0.23726 -1.21436,0.79529 -0.25914,5.1266 0.95824,4.34501 1.48704,7.45376 3.51883,10.2708 l 1.69444,2.34935 1.50633,2.19974 c 0.94874,1.38552 -2.25684,4.25305 -6.52441,8.2735 -4.42767,4.17126 -9.93401,8.40502 -11.74217,9.16054 -1.21214,0.50647 -5.83187,-1.91909 -6.49153,-2.3385 z m -3.38541,-26.08402 c 2.92614,-2.02334 4.50601,-5.42712 2.51894,-5.42712 -0.27766,0 -0.24956,0.0101 -0.84275,1.04684 -1.12776,1.97112 -3.26205,3.90339 -5.09656,4.27031 -0.75348,0.15068 -1.08564,0.41577 -1.08564,0.86638 0,0.88151 2.17062,0.85845 3.54785,-0.0939 z m -6.58363,-4.84426 c 0.55015,-0.37365 0.65384,-0.25363 -1.82469,-2.11209 -0.72922,-0.54679 -0.74105,-0.64223 -0.27935,-2.25074 0.63727,-2.22022 0.84296,-4.08188 0.57081,-5.16622 -0.26442,-1.05352 -2.85615,-3.95822 -3.53174,-3.95822 -0.7988,0 -0.53165,1.21891 0.57134,2.60683 1.42399,1.79187 1.5833,2.70365 0.91229,5.22182 -0.7439,2.79183 -0.72438,3.31338 0.1665,4.44595 1.08524,1.37967 2.45356,1.86558 3.41484,1.21267 z m -6.77693,-5.37475 c 0.67636,-0.67635 0.67839,-0.962 0.0159,-2.24319 -0.36907,-0.71371 -0.78653,-1.02161 -1.38507,-1.02161 -0.76613,0 -0.85677,0.14391 -0.85677,1.36033 0,1.26529 0.66934,2.44861 1.38506,2.44861 0.16325,0 0.54166,-0.24487 0.84093,-0.54414 z m 14.6708,-4.48762 c 0.13661,-1.39401 -1.34736,-2.93127 -2.17032,-2.24828 -0.63712,0.52877 -0.6998,2.46978 -0.0991,3.07047 0.23672,0.23672 0.82106,0.38473 1.2985,0.32895 0.68537,-0.0801 0.88974,-0.32239 0.97096,-1.15114 z m 18.91057,-0.49575 c 0.63852,-1.34853 1.07019,-1.80457 2.07028,-2.36665 1.72832,-0.97136 1.81092,-1.76501 0.1837,-1.76501 -0.86489,0 -1.51264,0.30684 -2.38543,1.12998 -1.2343,1.16412 -2.04599,3.34164 -1.67634,4.30493 0.37335,0.97298 0.9149,0.58259 1.80779,-1.30325 z m -39.41728,-1.08014 c 0.76848,-0.84921 2.67189,-1.70275 3.79701,-1.70275 1.24973,0 1.8905,-0.36465 1.8905,-1.07585 0,-1.60494 -6.28338,-0.0781 -7.27073,1.76675 -0.83206,1.55472 0.38688,2.33376 1.58322,1.01185 z m 19.79787,-4.81505 c 2.32727,-0.003 2.85671,-0.10197 2.85671,-0.53207 0,-0.91316 -1.71405,-1.28768 -4.90519,-1.0718 -3.31148,0.22405 -4.79029,0.71723 -4.79029,1.59763 0,0.93072 0.28538,0.99457 2.18504,0.48879 0.98838,-0.26313 3.08255,-0.4803 4.65373,-0.48255 z"
       id="path8369" /><path
       style="fill:#ffffff;fill-opacity:1;fill-rule:evenodd;stroke:none;stroke-width:0.865666;stroke-linejoin:round;stroke-miterlimit:5.4;stroke-dasharray:none;stroke-opacity:1;paint-order:markers fill stroke"
       d="m -586.97883,-769.0772 c -3.09644,-0.29361 -6.38384,-2.38336 -8.32916,-5.29479 -0.31139,-0.46603 -0.55031,-0.86317 -0.53094,-0.88257 0.0193,-0.0193 0.48212,0.31967 1.0283,0.75346 2.20348,1.74995 3.4915,2.41128 6.27362,3.22114 0.76179,0.22177 1.48246,0.44122 1.60147,0.48771 0.15147,0.0591 0.35457,0.34374 0.67678,0.94842 0.43791,0.8218 0.45055,0.86334 0.25968,0.85223 -0.11035,-0.006 -0.55123,-0.045 -0.97975,-0.0856 z"
       id="path8370" /><path
       style="fill:#1de08a;fill-opacity:1;fill-rule:evenodd;stroke:none;stroke-width:1.22424;stroke-linejoin:round;stroke-miterlimit:5.4;stroke-dasharray:none;stroke-opacity:1;paint-order:markers fill stroke"
       d="m -593.53372,-720.37593 -1.70952,-1.66605 -0.13285,-2.09601 c -0.0659,-1.03987 0.32401,0.58952 -0.20495,-0.47177 -0.48077,-0.96465 -1.92058,-3.37113 -2.61306,-4.17482 l -0.78697,-0.48142 0.87995,0.15512 c 0.23458,0.0413 1.01293,0.1 1.72725,0.14497 l 1.29876,0.0818 0.80825,2.4044 c 1.08905,3.23977 2.16442,7.15864 2.00742,7.31562 -0.0214,0.0214 -0.59484,-0.52393 -1.27423,-1.2119 z"
       id="path8371" /><circle
       style="fill:#1de08a;fill-opacity:1;fill-rule:evenodd;stroke:none;stroke-width:2.67605;stroke-linejoin:round;stroke-miterlimit:5.4;stroke-dasharray:none;stroke-opacity:1;paint-order:markers fill stroke"
       id="path8372"
       cx="-547.23596"
       cy="-645.82678"
       transform="matrix(0.99954031,0.03031785,0.18100816,0.98348159,0,0)"
       r="6.6145835" /></g></svg>
