<?xml version="1.0" encoding="UTF-8" standalone="no"?>
<!-- Created with Inkscape (http://www.inkscape.org/) -->

<svg
   width="171.16547"
   height="39.766598"
   viewBox="0 0 45.287528 10.521579"
   version="1.1"
   id="svg1"
   xml:space="preserve"
   xmlns="http://www.w3.org/2000/svg"
   xmlns:svg="http://www.w3.org/2000/svg"><defs
     id="defs1"><linearGradient
       id="swatch204"><stop
         style="stop-color:#f2f5f4;stop-opacity:1;"
         offset="0"
         id="stop204" /></linearGradient><linearGradient
       id="swatch203"><stop
         style="stop-color:#000000;stop-opacity:1;"
         offset="0"
         id="stop203" /></linearGradient><clipPath
       clipPathUnits="userSpaceOnUse"
       id="clipath_lpe_path-effect135-7-9-1-7-2-7-2-9-3-0"><rect
         style="display:none;fill:#ffffff;fill-opacity:1;stroke:#1f995e;stroke-width:0.345559;stroke-linecap:round;stroke-linejoin:round;stroke-miterlimit:5.4;stroke-dasharray:none;stroke-opacity:1;paint-order:fill markers stroke"
         id="rect1"
         width="44.49678"
         height="41.561142"
         x="250.83652"
         y="460.90311"
         rx="1.6559987"
         ry="1.5703599"
         transform="matrix(0.99999232,-0.00391859,0,1,0,0)"
         d="m 252.49252,460.90311 h 41.18478 c 0.91742,0 1.656,0.70038 1.656,1.57036 v 38.42042 c 0,0.86998 -0.73858,1.57036 -1.656,1.57036 h -41.18478 c -0.91743,0 -1.656,-0.70038 -1.656,-1.57036 v -38.42042 c 0,-0.86998 0.73857,-1.57036 1.656,-1.57036 z" /><path
         id="lpe_path-effect135-7-9-1-7-2-7-2-9-3-0"
         style="fill:#ffffff;fill-opacity:1;stroke:#1f995e;stroke-width:0.345559;stroke-linecap:round;stroke-linejoin:round;stroke-miterlimit:5.4;stroke-dasharray:none;stroke-opacity:1;paint-order:fill markers stroke"
         class="powerclip"
         d="m 250.29313,428.69399 h 63.07349 v 60.36594 h -63.07349 z m 2.19939,32.20912 c -0.91743,0 -1.656,0.70038 -1.656,1.57036 v 38.42042 c 0,0.86998 0.73857,1.57036 1.656,1.57036 h 41.18478 c 0.91742,0 1.656,-0.70038 1.656,-1.57036 v -38.42042 c 0,-0.86998 -0.73858,-1.57036 -1.656,-1.57036 z" /></clipPath></defs><g
     id="layer1"
     transform="translate(229.01227,-87.730493)"><g
       id="g10"
       transform="matrix(1.347431,0,0,1.2131878,83.288536,-14.986068)"
       style="fill:#181818;fill-opacity:1"><path
         style="fill:#181818;fill-opacity:1;stroke-width:0.0922011"
         d="m -217.57324,91.816754 c -1.0513,-0.19453 -1.57435,-1.2135 -1.26014,-2.45494 0.10453,-0.41302 0.44644,-0.82397 0.83781,-1.007 0.35252,-0.16485 0.89209,-0.24263 1.20195,-0.17324 0.0557,0.0125 0.16422,0.0356 0.24122,0.0514 0.43022,0.0881 0.86684,0.4816 1.0231,0.92199 0.12414,0.34987 0.17204,0.7446 0.12973,1.06908 -0.0434,0.33255 -0.0829,0.47886 -0.19333,0.71425 -0.16533,0.35257 -0.52723,0.67735 -0.89801,0.80591 -0.30924,0.10724 -0.73936,0.13607 -1.08233,0.0726 z m 0.84711,-0.6453 c 0.23512,-0.10459 0.41281,-0.33224 0.50495,-0.64684 0.0699,-0.2385 0.0764,-0.73867 0.0129,-0.98343 -0.0866,-0.33373 -0.26047,-0.56569 -0.51562,-0.68782 -0.12409,-0.0595 -0.16468,-0.0658 -0.41565,-0.0658 -0.26554,0 -0.28541,0.003 -0.43899,0.0808 -0.25292,0.12716 -0.41508,0.33932 -0.5223,0.68334 -0.0582,0.18669 -0.0547,0.76853 0.006,0.94909 0.1272,0.38023 0.32569,0.5946 0.65432,0.70668 0.14437,0.0492 0.57139,0.0277 0.71463,-0.036 z m 7.69829,0.63702 c -0.38253,-0.0898 -0.64381,-0.24905 -0.85068,-0.51876 -0.23394,-0.305 -0.35628,-0.72821 -0.35631,-1.23259 -3e-5,-0.51388 0.0964,-0.86656 0.32785,-1.19915 0.37249,-0.53521 1.00792,-0.79066 1.64577,-0.6616 0.46477,0.0941 0.76474,0.3254 0.95826,0.73908 0.13001,0.27791 0.16619,0.46757 0.16829,0.88209 l 0.002,0.36441 -1.12542,-8.9e-4 c -0.61898,-4.7e-4 -1.14313,0.006 -1.16477,0.0142 -0.0563,0.022 -0.0514,0.2183 0.0104,0.41023 0.13799,0.42891 0.4928,0.65997 1.01348,0.65997 0.35088,0 0.71006,-0.10371 0.94093,-0.27155 l 0.0719,-0.0523 v 0.31143 0.31144 l -0.17501,0.082 c -0.40589,0.19023 -1.04568,0.26105 -1.46653,0.16234 z m 1.17415,-2.34261 c -0.0201,-0.22086 -0.10509,-0.41594 -0.23715,-0.54438 -0.15587,-0.1516 -0.23532,-0.17964 -0.51454,-0.18158 -0.22338,-0.002 -0.25094,0.003 -0.36907,0.0705 -0.23878,0.1351 -0.44204,0.43692 -0.47883,0.71105 l -0.0156,0.11652 h 0.81545 0.81545 z m -14.23413,-0.15642 4e-5,-2.46099 0.97165,0.01 c 0.60669,0.007 0.99885,0.0195 1.04407,0.036 0.0398,0.0146 0.12131,0.0408 0.18105,0.0585 0.26001,0.0766 0.55151,0.26456 0.69464,0.44793 0.15438,0.19781 0.17916,0.25076 0.26039,0.55625 0.046,0.17282 0.0453,0.62609 -0.001,0.81111 -0.0986,0.39267 -0.36413,0.76232 -0.68429,0.9527 -0.33314,0.19809 -0.63596,0.26145 -1.25298,0.26213 l -0.44026,4.8e-4 -0.006,0.8813 -0.006,0.88131 -0.38025,0.0123 -0.38025,0.0123 z m 1.68034,-0.003 c 0.2945,-0.0783 0.49191,-0.22313 0.59349,-0.43533 0.18126,-0.37864 0.1352,-0.85307 -0.10712,-1.1033 -0.20681,-0.21357 -0.3296,-0.24922 -0.91741,-0.26644 l -0.47677,-0.014 v 0.92783 0.92783 h 0.38507 c 0.26272,0 0.42881,-0.0117 0.52274,-0.0366 z m 13.74524,2.45868 c -9e-5,-0.003 -3.7e-4,-0.79439 -3.7e-4,-1.75779 l -1.8e-4,-1.75164 0.36244,-0.004 0.36243,-0.004 3.7e-4,0.30815 c 1.8e-4,0.16949 0.0105,0.32447 0.0228,0.34441 0.027,0.0436 0.0195,0.0532 0.12159,-0.15908 0.18907,-0.39342 0.51895,-0.6087 0.87459,-0.57074 0.24252,0.026 0.23592,0.0144 0.23592,0.41299 0,0.2675 -0.007,0.34338 -0.0302,0.33341 -0.41282,-0.17661 -0.77329,-0.0687 -1.00567,0.30113 -0.18728,0.29803 -0.21946,0.54398 -0.21946,1.67758 v 0.87739 h -0.3621 c -0.19916,0 -0.36218,-0.002 -0.36227,-0.007 z m 3.8626,-2.45457 2e-5,-2.46075 0.99579,0.011 c 1.05895,0.0112 1.06828,0.0122 1.37194,0.14286 0.39378,0.16946 0.6307,0.47271 0.66344,0.84918 0.0444,0.51101 -0.18208,0.92655 -0.63574,1.16634 -0.18738,0.0991 -0.23126,0.15181 -0.12625,0.15181 0.0701,0 0.38575,0.1223 0.49138,0.1904 0.19303,0.12444 0.34983,0.32498 0.43902,0.56149 0.0369,0.0977 0.0466,0.18707 0.0469,0.43141 5.3e-4,0.32709 -0.035,0.47065 -0.17031,0.69025 -0.1609,0.2611 -0.51203,0.52081 -0.83111,0.61473 -0.0598,0.0176 -0.14122,0.0439 -0.18105,0.0586 -0.0447,0.0164 -0.45377,0.0318 -1.06824,0.0402 l -0.99581,0.0137 z m 1.79568,1.80441 c 0.41478,-0.11567 0.61474,-0.34767 0.63747,-0.73963 0.0134,-0.23114 -0.0327,-0.39034 -0.15538,-0.53674 -0.18722,-0.22336 -0.45967,-0.29831 -1.08438,-0.29831 h -0.42088 v 0.78476 c 0,0.43162 0.007,0.79216 0.0161,0.8012 0.0275,0.0281 0.90094,0.0183 1.00708,-0.0113 z m -0.11994,-2.25293 c 0.36343,-0.11258 0.54601,-0.35121 0.54787,-0.71608 0.002,-0.30731 -0.12013,-0.4996 -0.37685,-0.5954 -0.18525,-0.0691 -0.30716,-0.0828 -0.67593,-0.0758 l -0.38625,0.007 -0.006,0.70875 -0.006,0.70875 0.39266,-3.4e-4 c 0.27818,-1.7e-4 0.42724,-0.0111 0.51131,-0.037 z m 2.18662,2.90926 c -6e-5,0 -0.003,-1.10657 -0.006,-2.45903 l -0.006,-2.45905 h 0.39229 0.39228 v 2.45905 2.45903 h -0.38625 c -0.21244,0 -0.3863,0 -0.38636,0 z m -15.40144,-0.0425 c 0,-0.0283 -0.0209,-0.10294 -0.14667,-0.52455 -0.0283,-0.0949 -0.0601,-0.20584 -0.0707,-0.24652 -0.0169,-0.0649 -0.12849,-0.45596 -0.19001,-0.6656 -0.094,-0.32022 -0.15158,-0.51775 -0.19414,-0.66561 -0.0273,-0.0949 -0.0835,-0.28905 -0.1248,-0.43141 -0.0413,-0.14236 -0.0842,-0.29212 -0.0952,-0.3328 -0.011,-0.0407 -0.0379,-0.13497 -0.0596,-0.20954 -0.051,-0.17468 -0.0848,-0.29561 -0.0999,-0.35745 -0.0118,-0.048 -0.002,-0.0492 0.37568,-0.042 l 0.38778,0.007 0.0152,0.0666 c 0.0143,0.0628 0.13687,0.55131 0.16517,0.65826 0.007,0.0271 0.0448,0.18242 0.0836,0.34513 0.0388,0.16269 0.11334,0.46776 0.16565,0.67792 0.0523,0.21016 0.10116,0.40985 0.10856,0.44374 0.007,0.0339 0.0359,0.15038 0.0634,0.25884 0.0275,0.10846 0.0503,0.22495 0.0506,0.25885 7.6e-4,0.0621 0.0375,0.14408 0.0551,0.12255 0.005,-0.007 0.0387,-0.13364 0.0743,-0.28279 0.0357,-0.14914 0.0863,-0.34328 0.11248,-0.4314 0.0533,-0.17933 0.21793,-0.77734 0.29185,-1.06004 0.0266,-0.10172 0.065,-0.24036 0.0854,-0.30814 0.0204,-0.0678 0.046,-0.15655 0.0569,-0.19723 0.0362,-0.13493 0.0981,-0.36848 0.12248,-0.46222 l 0.0241,-0.0924 h 0.35876 0.35877 l 0.0288,0.12942 c 0.0159,0.0712 0.0379,0.16271 0.049,0.20339 0.11607,0.42467 0.57871,2.37108 0.57871,2.43469 0,0.077 0.0396,0.11102 0.0574,0.0493 0.007,-0.0239 0.0408,-0.16553 0.0754,-0.31467 0.0346,-0.14915 0.13864,-0.58735 0.23128,-0.97376 0.0926,-0.38642 0.18003,-0.75251 0.19419,-0.81352 0.0142,-0.061 0.0344,-0.13867 0.0451,-0.17257 0.0106,-0.0339 0.0433,-0.16978 0.0726,-0.30198 l 0.0533,-0.24036 h 0.34755 c 0.20373,0 0.34756,0.01 0.34756,0.0234 0,0.0336 -0.0534,0.2293 -0.18197,0.66682 -0.0618,0.21016 -0.12135,0.41537 -0.13246,0.45606 -0.0111,0.0407 -0.038,0.13497 -0.0598,0.20954 -0.0218,0.0745 -0.0486,0.16887 -0.0596,0.20954 -0.011,0.0407 -0.0524,0.18489 -0.0919,0.32048 -0.0395,0.13559 -0.0776,0.2687 -0.0847,0.29582 -0.007,0.0271 -0.0638,0.22126 -0.1259,0.43142 -0.0622,0.21015 -0.12213,0.41538 -0.13327,0.45605 -0.0216,0.0788 -0.0905,0.31657 -0.11253,0.38827 -0.0119,0.0388 -0.0531,0.0431 -0.40618,0.0431 -0.35167,0 -0.39469,-0.004 -0.40982,-0.0431 -0.0182,-0.0464 -0.0635,-0.21155 -0.13354,-0.48687 -0.0241,-0.0949 -0.066,-0.25578 -0.0929,-0.35745 -0.15011,-0.56651 -0.18159,-0.68626 -0.25921,-0.98608 -0.0333,-0.1288 -0.081,-0.31185 -0.10588,-0.40676 -0.0249,-0.0949 -0.0543,-0.21053 -0.0653,-0.25692 -0.0206,-0.0866 -0.0797,-0.13537 -0.0797,-0.0659 0,0.0213 -0.0336,0.15814 -0.0747,0.30404 -0.0411,0.1459 -0.0845,0.30132 -0.0966,0.3454 -0.012,0.044 -0.0328,0.11894 -0.046,0.16639 -0.0133,0.0474 -0.0341,0.12234 -0.0463,0.1664 -0.0122,0.044 -0.051,0.17997 -0.0862,0.30199 -0.0352,0.12204 -0.0732,0.25516 -0.0845,0.29583 -0.0112,0.0407 -0.0434,0.15716 -0.0715,0.25884 -0.0281,0.10172 -0.0603,0.21263 -0.0717,0.24653 -0.0113,0.0339 -0.0341,0.11155 -0.0505,0.17256 -0.0164,0.061 -0.0457,0.16362 -0.0651,0.22804 l -0.0352,0.11708 h -0.39638 c -0.29612,0 -0.39637,-0.008 -0.39637,-0.0301 z"
         id="path232-0-4" /><g
         id="g137-0-5-7-93-1"
         transform="matrix(0.13963347,0,0,0.14018495,-265.23278,17.421472)"
         style="fill:none;fill-opacity:1;stroke:#181818;stroke-opacity:1"><rect
           style="fill:#181818;fill-opacity:1;stroke:#181818;stroke-width:0.396875;stroke-linecap:round;stroke-linejoin:round;stroke-miterlimit:5.4;stroke-dasharray:none;stroke-opacity:1;paint-order:fill markers stroke"
           id="rect136-5-7-5-91-92-7"
           width="6.9952359"
           height="24.428059"
           x="250.13039"
           y="507.10077"
           rx="3.2642524"
           ry="3.1149602" /><rect
           style="fill:#181818;fill-opacity:1;stroke:#181818;stroke-width:0.396875;stroke-linecap:round;stroke-linejoin:round;stroke-miterlimit:5.4;stroke-dasharray:none;stroke-opacity:1;paint-order:fill markers stroke"
           id="rect136-5-2-2-0-7-6-3"
           width="7.3071918"
           height="37.854206"
           x="260.32431"
           y="500.3877"
           rx="3.0221441"
           ry="3.1149602" /><rect
           style="fill:#181818;fill-opacity:1;stroke:#181818;stroke-width:0.396875;stroke-linecap:round;stroke-linejoin:round;stroke-miterlimit:5.4;stroke-dasharray:none;stroke-opacity:1;paint-order:fill markers stroke"
           id="rect136-5-2-8-6-0-8-6-0"
           width="7.2782664"
           height="44.083519"
           x="270.68866"
           y="497.27304"
           rx="3.0221441"
           ry="3.1149602" /><path
           style="opacity:1;fill:none;fill-opacity:1;stroke:#181818;stroke-width:1.34871;stroke-linecap:round;stroke-linejoin:round;stroke-miterlimit:5.4;stroke-dasharray:none;stroke-opacity:1;paint-order:fill markers stroke"
           id="rect134-8-8-2-1-0"
           width="51.724781"
           height="49.017231"
           x="255.96748"
           y="434.36835"
           rx="6.502883"
           ry="5.5562477"
           transform="matrix(0.96212269,0.27261681,0,1,-3.7417738,-25.25697)"
           clip-path="url(#clipath_lpe_path-effect135-7-9-1-7-2-7-2-9-3-0)"
           d="m 262.47037,434.36835 h 38.71901 c 3.6026,0 6.50288,2.47808 6.50288,5.55624 v 37.90474 c 0,3.07816 -2.90028,5.55625 -6.50288,5.55625 h -38.71901 c -3.6026,0 -6.50289,-2.47809 -6.50289,-5.55625 v -37.90474 c 0,-3.07816 2.90029,-5.55624 6.50289,-5.55624 z" /><rect
           style="opacity:1;fill:#181818;fill-opacity:1;stroke:#181818;stroke-width:0.396875;stroke-linecap:round;stroke-linejoin:round;stroke-miterlimit:5.4;stroke-dasharray:none;stroke-opacity:1;paint-order:fill markers stroke"
           id="rect136-0-8-8-8-4"
           width="6.9362192"
           height="18.652611"
           x="239.81"
           y="509.98849"
           rx="3.4681096"
           ry="3.1149602" /></g></g></g></svg>
