<?xml version="1.0" encoding="UTF-8" standalone="no"?>
<!-- Created with Inkscape (http://www.inkscape.org/) -->

<svg
   width="21.018677"
   height="27.907595"
   viewBox="0 0 5.5611914 7.3838844"
   version="1.1"
   id="svg1"
   xml:space="preserve"
   xmlns="http://www.w3.org/2000/svg"
   xmlns:svg="http://www.w3.org/2000/svg"><defs
     id="defs1" /><g
     id="layer1"
     transform="translate(-273.78962,0.79483086)"><path
       id="rect9"
       style="fill:none;fill-rule:evenodd;stroke:#cccccc;stroke-width:0.211161;stroke-linejoin:round;stroke-miterlimit:5.4;paint-order:markers fill stroke"
       d="m 275.79603,-0.68921602 1.71763,0.0150114 c 0.58011,0.005073 0.55842,0.38372482 0.72923,0.78866674 l 0.97377,2.30836928 c 0.17082,0.4049447 -0.46704,1.2213337 -1.0472,1.2213337 h -3.28757 c -0.58016,0 -0.98432,-0.8078964 -0.82975,-1.2213337 l 0.81592,-2.18251587 c 0.15456,-0.41343721 0.34786,-0.93460182 0.92797,-0.92953155 z" /><path
       style="fill:none;fill-opacity:1;fill-rule:evenodd;stroke:#cccccc;stroke-width:0.264583;stroke-linejoin:round;stroke-miterlimit:5.4;stroke-dasharray:none;stroke-opacity:1;paint-order:markers fill stroke"
       d="m 273.61073,2.7838418 c 0.21635,-0.3225998 0.4327,-0.6451997 1.20656,-0.8064997 0.77387,-0.1612999 2.1052,-0.1612999 2.90039,0.00838 0.7952,0.1696774 1.0542,0.5090187 1.3132,0.8483645"
       id="path9"
       transform="matrix(0.91342183,0,0,0.897814,24.186659,0.52806741)" /><path
       style="fill:none;fill-opacity:1;fill-rule:evenodd;stroke:#cccccc;stroke-width:0.264583;stroke-linecap:round;stroke-linejoin:round;stroke-miterlimit:5.4;stroke-dasharray:none;stroke-opacity:1;paint-order:markers fill stroke"
       d="m 276.37226,3.4924024 c -0.69009,-0.00402 -1.38015,-0.00805 -1.87658,0.5129878 -0.49643,0.5210338 -0.79918,1.5670788 -1.10194,2.6131437"
       id="path10"
       transform="matrix(0.91342183,0,0,0.897814,24.186659,0.52806741)" /><path
       style="fill:none;fill-opacity:1;fill-rule:evenodd;stroke:#cccccc;stroke-width:0.264583;stroke-linecap:round;stroke-linejoin:round;stroke-miterlimit:5.4;stroke-dasharray:none;stroke-opacity:1;paint-order:markers fill stroke"
       d="m 276.37226,3.4924024 c -0.69009,-0.00402 -1.38015,-0.00805 -1.87658,0.5129878 -0.49643,0.5210338 -0.79918,1.5670788 -1.10194,2.6131437"
       id="path10-1"
       transform="matrix(-0.91342183,0,0,0.897814,528.92217,0.52806768)" /></g></svg>
