<?xml version="1.0" encoding="UTF-8" standalone="no"?>
<!-- Created with Inkscape (http://www.inkscape.org/) -->

<svg
   width="290"
   height="290"
   viewBox="0 0 76.729167 76.729169"
   version="1.1"
   id="svg1"
   inkscape:export-filename="SocW.svg"
   inkscape:export-xdpi="96"
   inkscape:export-ydpi="96"
   sodipodi:docname="SocW-sgl.svg"
   inkscape:version="1.3.2 (091e20e, 2023-11-25, custom)"
   xmlns:inkscape="http://www.inkscape.org/namespaces/inkscape"
   xmlns:sodipodi="http://sodipodi.sourceforge.net/DTD/sodipodi-0.dtd"
   xmlns="http://www.w3.org/2000/svg"
   xmlns:svg="http://www.w3.org/2000/svg">
  <sodipodi:namedview
     id="namedview1"
     pagecolor="#505050"
     bordercolor="#eeeeee"
     borderopacity="1"
     inkscape:showpageshadow="0"
     inkscape:pageopacity="0"
     inkscape:pagecheckerboard="0"
     inkscape:deskcolor="#505050"
     inkscape:document-units="px"
     inkscape:zoom="1.1002034"
     inkscape:cx="383.56544"
     inkscape:cy="328.57561"
     inkscape:window-width="2560"
     inkscape:window-height="1494"
     inkscape:window-x="-11"
     inkscape:window-y="-11"
     inkscape:window-maximized="1"
     inkscape:current-layer="g1" />
  <defs
     id="defs1">
    <inkscape:path-effect
       effect="bspline"
       id="path-effect2"
       is_visible="true"
       lpeversion="1.3"
       weight="33.333333"
       steps="2"
       helper_size="0"
       apply_no_weight="true"
       apply_with_weight="true"
       only_selected="false"
       uniform="false" />
    <inkscape:path-effect
       effect="bspline"
       id="path-effect1"
       is_visible="true"
       lpeversion="1.3"
       weight="33.333333"
       steps="2"
       helper_size="0"
       apply_no_weight="true"
       apply_with_weight="true"
       only_selected="false"
       uniform="false" />
    <clipPath
       clipPathUnits="userSpaceOnUse"
       id="clipath_lpe_path-effect57-9-2-3-4-4-5-1-4-4-7-3-4-1-9-3-6-9-3-1-0">
      <rect
         style="display:none;opacity:1;fill:#40566a;fill-opacity:1;stroke:none;stroke-width:0.529167;stroke-linecap:butt;stroke-linejoin:round;stroke-miterlimit:5.4;stroke-dasharray:none;stroke-opacity:1;paint-order:markers fill stroke"
         id="rect1195"
         width="15.015088"
         height="14.155221"
         x="-346.53802"
         y="297.52396"
         d="m -346.53802,297.52396 h 15.01508 v 14.15522 h -15.01508 z" />
      <path
         id="lpe_path-effect57-9-2-3-4-4-5-1-4-4-7-3-4-1-9-3-6-9-3-1-0"
         style="opacity:1;fill:#40566a;fill-opacity:1;stroke:none;stroke-width:0.529167;stroke-linecap:butt;stroke-linejoin:round;stroke-miterlimit:5.4;stroke-dasharray:none;stroke-opacity:1;paint-order:markers fill stroke"
         class="powerclip"
         d="m -345.37217,277.70104 h 40.57044 v 47.9984 h -40.57044 z m -1.16585,19.82292 v 14.15522 h 15.01508 v -14.15522 z" />
    </clipPath>
    <inkscape:path-effect
       effect="powerclip"
       id="path-effect57-9-2-3-4-4-5-1-4-4-7-3-4-1-9-3-6-9-3-1-0"
       is_visible="true"
       lpeversion="1"
       inverse="true"
       flatten="false"
       hide_clip="false"
       message="Use fill-rule evenodd on &lt;b&gt;fill and stroke&lt;/b&gt; dialog if no flatten result after convert clip to paths." />
  </defs>
  <g
     inkscape:label="Layer 1"
     inkscape:groupmode="layer"
     id="layer1">
    <g
       id="g1"
       transform="matrix(0.60407841,0,0,0.6268982,-9.1372718,29.231463)"
       inkscape:export-filename="SocW.svg"
       inkscape:export-xdpi="96"
       inkscape:export-ydpi="96">
      <path
         id="path992-5-3-08-4-0-8"
         style="fill:none;fill-opacity:1;fill-rule:evenodd;stroke:#f3f1ec;stroke-width:0.889871;stroke-linecap:round;stroke-linejoin:round;stroke-miterlimit:5.4;stroke-opacity:1;paint-order:markers fill stroke"
         inkscape:transform-center-x="-0.95956389"
         inkscape:transform-center-y="-3.0934884"
         d="M 80.879798,-45.339688 116.70382,-33.928517 127.05879,1.3376803 136.72048,33.764346 108.33854,53.864285 80.758,74.578433 51.942278,53.469984 23.933744,29.603726 c 0,0 9.535675,-22.2293857 13.987417,-33.4825147 3.935249,-9.9475843 11.242652,-30.0764023 11.242652,-30.0764023 z"
         sodipodi:nodetypes="ccccccccscc"
         inkscape:export-filename="ForBiLbas\ForBi\src\assets\images\SocW.svg"
         inkscape:export-xdpi="96"
         inkscape:export-ydpi="96" />
      <path
         id="path992-5-3-08-4-0-8-7"
         style="fill:#f3f1ec;fill-opacity:1;fill-rule:evenodd;stroke-width:0.838669;stroke-linecap:round;stroke-linejoin:round;stroke-miterlimit:5.4;paint-order:markers fill stroke"
         inkscape:transform-center-x="-0.90370577"
         inkscape:transform-center-y="-2.9175012"
         d="m 80.847699,-41.928561 33.739261,10.761858 9.75228,33.2598933 9.09937,30.5820137 L 106.70837,51.63165 80.732901,71.167313 53.594156,51.259711 27.215602,28.751245 c 0,0 8.980682,-20.9647527 13.173427,-31.5775947 C 44.09528,-12.208154 50.97729,-31.191773 50.97729,-31.191773 Z"
         sodipodi:nodetypes="ccccccccscc" />
      <g
         id="g1196"
         transform="matrix(0.91884898,0,0,0.92357418,-4747.2936,-2315.0946)">
        <g
           id="g1191"
           transform="matrix(1.0702466,0,0,0.90440585,-177.67334,199.89204)">
          <path
             style="opacity:1;fill:none;fill-opacity:1;stroke:#092412;stroke-width:1.19951;stroke-linecap:round;stroke-linejoin:round;stroke-miterlimit:5.4;stroke-dasharray:none;stroke-opacity:1;paint-order:markers fill stroke"
             d="m -325.08131,264.17381 -5.06684,-0.002 -5.06685,-0.002 0.0936,16.83798 h 17.49276"
             id="path59-4-7-3-5-6-4-3-1-1-6"
             sodipodi:nodetypes="ccccc"
             transform="matrix(1.7368529,0,0,2.1365584,5649.0173,1989.1553)" />
          <path
             style="opacity:1;fill:none;fill-opacity:1;stroke:#092412;stroke-width:1.19951;stroke-linecap:round;stroke-linejoin:round;stroke-miterlimit:5.4;stroke-dasharray:none;stroke-opacity:1;paint-order:markers fill stroke"
             d="m -335.18328,269.87836 10.93968,-0.0497"
             id="path60-1-9-1-6-2-3-2-4-1-0"
             sodipodi:nodetypes="cc"
             transform="matrix(1.7368529,0,0,2.1365584,5649.0173,1989.1553)" />
          <path
             style="opacity:1;fill:none;fill-opacity:1;stroke:#092412;stroke-width:1.19951;stroke-linecap:round;stroke-linejoin:round;stroke-miterlimit:5.4;stroke-dasharray:none;stroke-opacity:1;paint-order:markers fill stroke"
             d="m -335.15295,275.33094 10.87587,0.0253"
             id="path61-3-3-0-3-3-5-6-2-7-0"
             sodipodi:nodetypes="cc"
             transform="matrix(1.7368529,0,0,2.1365584,5649.0173,1989.1553)" />
          <rect
             style="fill:none;fill-opacity:1;stroke:#092412;stroke-width:0.533982;stroke-linecap:butt;stroke-linejoin:round;stroke-miterlimit:5.4;stroke-dasharray:none;stroke-opacity:1;paint-order:markers fill stroke"
             id="rect58-1-1-9-28-3-8-9-9-9-0"
             width="5.8796663"
             height="5.5778642"
             x="204.25372"
             y="197.64893"
             ry="2.7889321"
             rx="2.9398332"
             transform="matrix(-4.0536404,0,0,4.6195154,5939.4649,1642.1725)" />
          <path
             id="path55-6-6-1-5-0-7-8-5-5-8"
             style="fill:none;fill-opacity:1;stroke:#092412;stroke-width:1.29428;stroke-linecap:round;stroke-linejoin:round;stroke-miterlimit:5.4;stroke-dasharray:none;stroke-dashoffset:0;stroke-opacity:1;paint-order:stroke markers fill"
             d="m -331.87423,283.34818 -7.816,6.18055 -0.0348,30.52357 h 29.23646 v -28.15074 l 0.0397,-8.47619 -12.09074,-0.0566 z"
             clip-path="url(#clipath_lpe_path-effect57-9-2-3-4-4-5-1-4-4-7-3-4-1-9-3-6-9-3-1-0)"
             sodipodi:nodetypes="cccccccc"
             inkscape:original-d="m -331.87423,283.34818 -7.816,6.18055 -0.0348,30.52357 h 29.23646 v -28.15074 l 0.0397,-8.47619 -12.09074,-0.0566 z"
             inkscape:path-effect="#path-effect57-9-2-3-4-4-5-1-4-4-7-3-4-1-9-3-6-9-3-1-0"
             transform="matrix(-1.5873416,0,0,2.0079859,4561.4186,1955.1343)" />
          <path
             style="opacity:1;fill:none;fill-opacity:1;stroke:#092412;stroke-width:1.29428;stroke-linecap:round;stroke-linejoin:round;stroke-miterlimit:5.4;stroke-dasharray:none;stroke-opacity:1;paint-order:markers fill stroke"
             d="m -338.07135,295.73802 -1.65365,1.72807 -1.5841,-1.67433"
             id="path58-8-9-9-5-1-7-0-8-4-9"
             sodipodi:nodetypes="ccc"
             transform="matrix(-1.5873416,0,0,2.0079859,4561.4186,1955.1343)" />
          <path
             id="rect52-8-3-4-2-7-1-9-0-7-7"
             style="fill:none;fill-opacity:1;stroke:#092412;stroke-width:0.533975;stroke-linecap:butt;stroke-linejoin:round;stroke-miterlimit:5.4;stroke-dasharray:none;stroke-opacity:1;paint-order:markers fill stroke"
             d="m -210.06394,190.91217 0.009,2.69486 3.03554,0.003 z"
             sodipodi:nodetypes="cccc"
             transform="matrix(4.0536404,0,0,4.6195154,5939.4649,1642.1725)" />
          <path
             style="fill:none;fill-opacity:1;stroke:#2ec15f;stroke-width:2.30225;stroke-linecap:round;stroke-linejoin:round;stroke-miterlimit:5.4;stroke-dasharray:none;stroke-opacity:1;paint-order:markers fill stroke"
             d="m 5093.6184,2567.3023 2.1818,3.7892 9.7346,-5.9864"
             id="path58-8-9-9-3-7-0"
             sodipodi:nodetypes="ccc" />
        </g>
        <path
           style="fill:none;fill-opacity:1;fill-rule:evenodd;stroke:#35351a;stroke-width:0.223172;stroke-linecap:round;stroke-linejoin:round;stroke-miterlimit:5.4;stroke-dasharray:none;stroke-opacity:1;paint-order:markers fill stroke"
           d="m 5278.7444,2532.9225 c -1.5333,-0.1907 -2.7721,-0.5592 -4.1286,-1.2281 -4.4151,-2.177 -6.74,-6.6146 -5.8338,-11.1344 0.7951,-3.9652 4.1677,-7.2293 8.5119,-8.2378 1.5507,-0.3601 3.8706,-0.3935 5.356,-0.077 2.3677,0.5041 4.3714,1.572 5.9936,3.1942 1.9171,1.9172 2.8879,4.0489 3.0173,6.6259 0.2609,5.191 -3.7881,9.7954 -9.4573,10.7543 -0.8276,0.14 -2.7109,0.1961 -3.4591,0.103 z m -0.2604,-7.6957 c 7.3914,-3.8083 8.9276,-4.6316 9.0943,-4.8742 0.3799,-0.5528 0.1267,-1.273 -0.5366,-1.5263 -0.6625,-0.2531 -0.6641,-0.2524 -5.4332,2.2325 -2.4141,1.2578 -4.5429,2.365 -4.731,2.4604 l -0.3419,0.1735 -0.8856,-1.3053 c -0.487,-0.7179 -0.9853,-1.3763 -1.107,-1.4632 -0.3159,-0.2251 -1.0948,-0.2598 -1.4523,-0.065 -0.405,0.2212 -0.6149,0.5792 -0.576,0.9825 0.028,0.2873 0.2143,0.6018 1.3142,2.2152 0.7049,1.0342 1.3637,1.9341 1.464,1.9997 0.2598,0.1702 0.6151,0.2455 0.9593,0.2031 0.1831,-0.022 1.0409,-0.4196 2.2318,-1.0332 z"
           id="path1192" />
        <path
           style="fill:none;fill-opacity:1;fill-rule:evenodd;stroke:none;stroke-width:0.223172;stroke-linecap:round;stroke-linejoin:round;stroke-miterlimit:5.4;stroke-dasharray:none;stroke-opacity:1;paint-order:markers fill stroke"
           d="m 5278.856,2532.7728 c -4.4656,-0.4412 -8.4148,-3.4727 -9.6605,-7.4155 -0.4408,-1.3954 -0.5577,-3.1116 -0.3079,-4.5192 0.7482,-4.2163 4.4516,-7.677 9.0757,-8.4807 0.9633,-0.1674 2.6027,-0.2216 3.5708,-0.1179 2.6469,0.2834 5.1351,1.4651 6.9898,3.32 1.5084,1.5083 2.39,3.093 2.8032,5.0377 0.2104,0.9913 0.2263,2.7643 0.033,3.6625 -0.7983,3.702 -3.5396,6.6673 -7.3258,7.9239 -1.1544,0.3832 -1.8224,0.5104 -3.1216,0.5946 -1.2043,0.078 -1.2117,0.078 -2.0563,-0.01 z m 0.2836,-7.7211 c 1.4848,-0.7533 3.0463,-1.5586 4.3912,-2.2621 1.5943,-0.8339 2.8843,-1.5247 3.382,-1.8163 0.7644,-0.4479 0.9808,-0.7054 0.9814,-1.1669 0,-0.4524 -0.2612,-0.837 -0.7234,-1.0631 -0.739,-0.3615 -0.8337,-0.3232 -6.5252,2.6382 -2.2071,1.1484 -4.0333,2.0755 -4.0581,2.0601 -0.024,-0.015 -0.3564,-0.4809 -0.7366,-1.0346 -0.8943,-1.3019 -1.2086,-1.6562 -1.5555,-1.7525 -0.8673,-0.2408 -1.669,0.1012 -1.8788,0.8015 -0.1405,0.4694 -0.027,0.7311 0.9456,2.1825 1.2025,1.7938 1.7373,2.4971 1.9973,2.6268 0.1257,0.062 0.4287,0.1119 0.6927,0.1129 0.4625,0 0.5097,-0.019 3.0874,-1.3265 z"
           id="path1193"
           sodipodi:nodetypes="csssssscssccsssssssssssscs" />
        <path
           style="opacity:1;fill:#bbbbbb;fill-opacity:1;fill-rule:evenodd;stroke:#092412;stroke-width:0.596434;stroke-linecap:round;stroke-linejoin:round;stroke-miterlimit:5.4;stroke-dasharray:none;stroke-opacity:1;paint-order:markers fill stroke"
           d="m 19288.588,9550.0402 c 0,-60.8879 -0.06,-115.402 -0.132,-121.1426 l -0.131,-10.4373 29.108,-0.1321 c 16.01,-0.073 44.787,-0.1918 63.95,-0.2647 l 34.842,-0.1325 v 19.1301 c 0,13.9912 0.06,19.3793 0.233,20.0576 0.321,1.2737 1.718,2.6706 2.991,2.9913 0.685,0.1724 7.13,0.2336 24.598,0.2336 h 23.67 v 19.235 19.235 l -1.131,-1.2923 c -2.629,-3.0032 -3.457,-3.5746 -5.186,-3.5775 -1.417,0 -2.909,1.0056 -3.665,2.476 -0.596,1.159 -0.571,2.9801 0.06,4.1597 0.51,0.9588 11.228,13.0447 12.04,13.5768 0.314,0.2059 0.472,0.4992 0.472,0.8748 v 0.5651 l -3.33,0.01 c -8.631,0.019 -16.714,1.9299 -24.499,5.7925 -10.078,5.0002 -17.955,12.7694 -22.74,22.4302 -1.344,2.7131 -3.097,7.446 -3.42,9.231 l -0.138,0.7633 -0.425,-0.7563 c -0.244,-0.4354 -0.838,-1.0123 -1.401,-1.3597 l -0.977,-0.6035 -16.814,0.052 c -9.248,0.029 -25.814,0.1066 -36.813,0.1733 l -19.998,0.1214 -0.131,-2.1427 c -0.07,-1.1785 -0.132,-8.5812 -0.132,-16.4505 v -14.3078 l 33.947,0.071 33.948,0.071 0.795,-0.4247 c 3.18,-1.6989 3.204,-6.4345 0.04,-8.0487 l -0.832,-0.4244 -35.987,-0.097 c -26.949,-0.073 -36.264,-0.039 -37.092,0.1343 -1.799,0.3769 -3.149,1.7906 -3.446,3.6081 -0.06,0.3776 0.05,28.5997 0.238,62.7157 0.349,61.7292 0.353,62.0335 0.758,62.9239 0.498,1.0915 1.598,2.0937 2.606,2.3737 0.517,0.1435 20.148,0.2089 62.907,0.2097 h 62.155 l 1.064,-0.5555 c 2.932,-1.5319 3.157,-5.7869 0.406,-7.6939 l -0.862,-0.5977 -59.992,-0.051 -59.992,-0.051 -0.131,-7.3054 c -0.07,-4.0179 -0.131,-11.3313 -0.132,-16.2519 v -8.9465 l 36.416,0.064 c 40.857,0.072 37.461,0.1949 38.833,-1.4084 1.915,-2.2371 1.25,-5.6272 -1.386,-7.0736 -0.551,-0.3024 -3.609,-0.3377 -37.116,-0.4289 -20.083,-0.055 -36.585,-0.1698 -36.671,-0.2557 -0.09,-0.086 -0.194,-7.0419 -0.241,-15.4576 l -0.08,-15.3013 4.648,-0.01 c 2.556,0 19.061,-0.087 36.677,-0.1844 28.742,-0.1586 32.109,-0.2097 32.797,-0.497 0.421,-0.1761 0.915,-0.4546 1.096,-0.619 0.307,-0.2776 0.323,-0.048 0.229,3.2437 -0.152,5.3121 0.34,9.3141 1.752,14.2373 3.897,13.594 14.621,25.2887 28.619,31.2098 5.955,2.5189 11.869,3.8844 18.837,4.349 l 3.629,0.2419 v 24.213 24.2131 h -89.664 -89.664 z"
           id="path1196"
           transform="matrix(0.26458333,0,0,0.26458333,129.30841,-7.942868)" />
      </g>
      <path
         style="fill:#000000;fill-opacity:1;fill-rule:evenodd;stroke:#f3f1ec;stroke-width:1.28985;stroke-linecap:round;stroke-linejoin:round;stroke-miterlimit:5.4;stroke-opacity:0.515038;paint-order:markers fill stroke"
         d="M 18.081739,55.702162 C 25.611913,37.641109 33.142085,19.58006 40.672259,1.5190063"
         id="path1"
         inkscape:path-effect="#path-effect1"
         inkscape:original-d="M 18.081739,55.702162 C 25.611912,37.641109 33.142085,19.58006 40.672259,1.5190063"
         transform="matrix(0.99998691,0,0,1.0028007,2.7878613,-34.90695)" />
      <path
         style="fill:#000000;fill-opacity:1;fill-rule:evenodd;stroke:#f3f1ec;stroke-width:1.28985;stroke-linecap:round;stroke-linejoin:round;stroke-miterlimit:5.4;stroke-opacity:0.515038;paint-order:markers fill stroke"
         d="m 19.066995,73.066893 c 15.107263,12.185672 30.214527,24.371345 45.32179,36.557017"
         id="path2"
         inkscape:path-effect="#path-effect2"
         inkscape:original-d="m 19.066995,73.066893 c 15.107264,12.18567 30.214527,24.371344 45.32179,36.557017"
         transform="matrix(0.99998691,0,0,1.0028007,2.7878613,-34.90695)" />
    </g>
  </g>
</svg>
