<?xml version="1.0" encoding="UTF-8" standalone="no"?>
<!-- Created with Inkscape (http://www.inkscape.org/) -->

<svg
   width="294.77942mm"
   height="291.44247mm"
   viewBox="0 0 294.77942 291.44247"
   version="1.1"
   id="svg1"
   xml:space="preserve"
   xmlns="http://www.w3.org/2000/svg"
   xmlns:svg="http://www.w3.org/2000/svg"><defs
     id="defs1" /><g
     id="layer1"
     transform="translate(-1642.6975,45.240312)"><path
       style="fill:#1de08a;fill-opacity:1;fill-rule:evenodd;stroke:none;stroke-width:2.64583;stroke-linejoin:round;stroke-miterlimit:5.4;stroke-dasharray:none;stroke-opacity:1;paint-order:markers fill stroke"
       id="path11"
       d="m 809.46579,119.15276 c -11.63327,14.46458 -36.8494,10.6347 -52.08658,21.23589 -15.23718,10.60118 -20.41268,35.57588 -38.01934,41.45483 -17.60667,5.87895 -36.74924,-10.97581 -55.299,-10.29537 -18.54977,0.68045 -36.40602,18.89241 -54.39609,14.31922 -17.99007,-4.57319 -24.98145,-29.10158 -40.95438,-38.55791 -15.97293,-9.45633 -40.84069,-3.78927 -53.50245,-17.36265 -12.66176,-13.57338 -5.28224,-37.987801 -13.60704,-54.578593 -8.32481,-16.590792 -32.30874,-25.267886 -35.62217,-43.532003 -3.31342,-18.264117 16.09406,-34.8131604 18.06044,-53.270952 1.96639,-18.457792 -13.51899,-38.724122 -6.43209,-55.880248 7.0869,-17.156126 32.36059,-20.585592 43.99386,-35.050164 11.63327,-14.46457 9.56294,-39.88572 24.80012,-50.48691 15.23718,-10.60119 38.35288,0.17776 55.95954,-5.7012 17.60667,-5.87895 29.60871,-28.38389 48.15847,-29.06433 18.54977,-0.68044 32.16839,20.88467 50.15847,25.45786 17.99007,4.57319 40.25391,-7.87037 56.22685,1.58596 15.97293,9.45634 15.77066,34.96085 28.43242,48.53423 12.66176,13.57338 38.1188,15.14193 46.4436,31.732726 8.32481,16.590791 -5.63413,37.937201 -2.3207,56.201318 3.31342,18.264117 23.88122,33.34678268 21.91483,51.804575 -1.96639,18.457791 -25.25013,28.868763 -32.33703,46.024889 -7.08689,17.156126 2.06153,40.964262 -9.57173,55.428832 z"
       transform="matrix(0.76386007,0,0,0.75849756,1287.045,104.66413)" /><g
       id="g11"
       transform="translate(-15.29768,-0.73068224)"
       style="fill:#010101;fill-opacity:1"><rect
         style="fill:#010101;fill-opacity:1;fill-rule:evenodd;stroke:none;stroke-width:2.64583;stroke-linejoin:round;stroke-miterlimit:5.4;stroke-dasharray:none;stroke-opacity:1;paint-order:markers fill stroke"
         id="rect11"
         width="82.218018"
         height="29.314047"
         x="1275.4135"
         y="-1206.1522"
         rx="15.800689"
         ry="13.465033"
         transform="rotate(45.835032)" /><rect
         style="fill:#010101;fill-opacity:1;fill-rule:evenodd;stroke:none;stroke-width:2.64583;stroke-linejoin:round;stroke-miterlimit:5.4;stroke-dasharray:none;stroke-opacity:1;paint-order:markers fill stroke"
         id="rect11-5"
         width="121.46031"
         height="28.716034"
         x="-1299.2872"
         y="-1357.954"
         rx="15.800689"
         ry="14.295919"
         transform="rotate(135.83503)" /></g></g></svg>
