<?xml version="1.0" encoding="UTF-8" standalone="no"?>
<!-- Created with Inkscape (http://www.inkscape.org/) -->

<svg
   width="150.94479mm"
   height="166.33244mm"
   viewBox="0 0 150.94479 166.33244"
   version="1.1"
   id="svg1"
   xml:space="preserve"
   xmlns="http://www.w3.org/2000/svg"
   xmlns:svg="http://www.w3.org/2000/svg"><defs
     id="defs1" /><g
     id="layer1"
     transform="translate(171.7779,-458.54935)"><path
       style="fill:#ffffff;fill-opacity:1;stroke:none;stroke-opacity:1"
       d="m -166.99278,624.68636 c -1.54306,-0.30763 -3.0242,-1.31783 -3.92299,-2.67564 l -0.72986,-1.10262 -0.0805,-13.11648 c -0.0517,-8.43026 0.0165,-13.44733 0.19095,-14.04252 0.3704,-1.26347 1.699,-2.80557 3.02401,-3.50994 1.01164,-0.53779 1.53478,-0.59153 6.58899,-0.6769 l 5.49011,-0.0927 v -28.52148 -28.52145 l -5.35782,-0.12112 c -3.24602,-0.0734 -5.65961,-0.24493 -6.1235,-0.43524 -1.30821,-0.53669 -2.74041,-1.8474 -3.31453,-3.03337 -0.53423,-1.10358 -0.54999,-1.5115 -0.54999,-14.24014 v -13.10402 l 0.60564,-1.14528 c 0.3331,-0.6299 1.01771,-1.47682 1.52135,-1.88203 0.90311,-0.72661 67.93371,-38.08348 70.501139,-39.29103 1.7719,-0.83339 3.78435,-0.83339 5.55625,0 2.58398,1.21534 69.601059,38.56685 70.510269,39.29842 0.50868,0.40929 1.22305,1.3236 1.5875,2.0318 l 0.66265,1.28764 v 12.83936 12.83935 l -0.65453,1.28144 c -0.66885,1.30947 -1.97531,2.5378 -3.342279,3.1424 -0.60991,0.26976 -9.68798,0.3532 -44.62038,0.41011 l -43.854689,0.0714 v 28.5697 28.56969 h 4.77763 c 5.47466,0 6.67398,0.22155 8.1806,1.51115 1.876849,1.60652 2.641689,3.73512 2.121389,5.90398 -0.44056,1.83646 -1.54047,3.23099 -3.201089,4.05851 l -1.39909,0.6972 h -28.39076 -28.39076 v 5.55166 5.55166 l 28.81687,0.0707 28.81688,0.0707 1.14093,0.80193 c 0.62751,0.44107 1.493489,1.37219 1.924399,2.06917 0.64932,1.05025 0.78268,1.5472 0.77883,2.90224 -0.007,2.49697 -1.19614,4.39441 -3.534159,5.63968 -0.88742,0.47266 -2.24489,0.49493 -32.54375,0.53401 -17.38974,0.0224 -32.1433,-0.064 -32.78569,-0.19206 z m 41.45198,-63.81174 0.0673,-28.50886 h -9.39389 -9.3939 v 28.57839 28.57838 l 9.32656,-0.0695 9.32657,-0.0695 z m 92.536829,-47.55147 v -6.73948 l -31.35312,-17.43359 c -17.24422,-9.58847 -31.54046,-17.48807 -31.76943,-17.55467 -0.22897,-0.0666 -14.605759,7.76159 -31.948439,17.39599 l -31.53213,17.5171 v 6.84376 6.84376 l 63.301559,-0.0667 63.30156,-0.0667 z m -66.2768,-2.83447 c -1.665279,-0.60941 -4.013359,-3.0136 -4.584989,-4.69453 -1.36758,-4.0215 0.45726,-8.2766 4.305639,-10.03975 1.67847,-0.769 4.70683,-0.76503 6.39583,0.008 1.83448,0.84003 3.23678,2.25302 4.06293,4.09392 0.64524,1.43778 0.71682,1.86408 0.61137,3.64115 -0.13249,2.23292 -0.53816,3.21698 -1.98754,4.82128 -1.62806,1.80206 -3.00569,2.43826 -5.4729,2.52741 -1.49429,0.054 -2.50029,-0.0541 -3.33034,-0.35786 z m 15.67568,113.65986 c -2.87864,-1.4249 -4.13896,-5.10066 -2.7381,-7.98572 0.37948,-0.78155 8.86709,-9.42956 28.39546,-28.93211 22.63196,-22.60204 28.04511,-27.87806 28.87254,-28.14114 1.66535,-0.5295 4.16376,-0.24045 5.414681,0.62643 1.70523,1.18173 2.52308,2.58239 2.64734,4.53389 0.0583,0.91609 -0.0393,2.12388 -0.21687,2.68397 -0.26249,0.82773 -5.480781,6.18554 -27.876561,28.62186 -18.53384,18.56739 -27.98668,27.85574 -28.87653,28.37408 -1.68643,0.98232 -3.90495,1.06864 -5.62196,0.21874 z m 47.1393,0.0394 c -7.1271,-2.53684 -10.17926,-10.79369 -6.38389,-17.27001 0.84061,-1.43438 3.19672,-3.67759 4.63154,-4.40957 6.54043,-3.33668 14.603961,6.4e-4 16.770451,6.94092 0.60056,1.9239 0.6278,5.01678 0.0613,6.96537 -0.94923,3.26521 -4.203141,6.60098 -7.537371,7.72697 -2.14074,0.72294 -5.58176,0.74407 -7.54206,0.0463 z m -41.64963,-42.19449 c -2.82382,-0.78573 -5.24895,-2.53471 -6.8601,-4.94743 -1.30956,-1.96107 -1.90055,-3.96874 -1.90055,-6.45634 0,-3.44064 1.02651,-5.92582 3.44781,-8.34712 2.55881,-2.5588 5.19446,-3.55205 8.94927,-3.37253 1.91367,0.0915 2.64329,0.25975 4.117151,0.94946 6.078669,2.84455 8.712159,10.00203 5.846579,15.89023 -0.85318,1.75313 -3.46431,4.48787 -5.06444,5.3042 -2.51783,1.2845 -6.00255,1.6844 -8.53572,0.97953 z"
       id="path1-5" /></g></svg>
