<?xml version="1.0" encoding="UTF-8" standalone="no"?>
<!-- Created with Inkscape (http://www.inkscape.org/) -->

<svg
   width="30"
   height="30"
   viewBox="0 0 7.9374998 7.9375"
   version="1.1"
   id="svg1"
   xml:space="preserve"
   sodipodi:docname="SOC-icon.svg"
   inkscape:version="1.4.2 (ebf0e94, 2025-05-08)"
   xmlns:inkscape="http://www.inkscape.org/namespaces/inkscape"
   xmlns:sodipodi="http://sodipodi.sourceforge.net/DTD/sodipodi-0.dtd"
   xmlns="http://www.w3.org/2000/svg"
   xmlns:svg="http://www.w3.org/2000/svg"><sodipodi:namedview
     id="namedview1"
     pagecolor="#505050"
     bordercolor="#eeeeee"
     borderopacity="1"
     inkscape:showpageshadow="0"
     inkscape:pageopacity="0"
     inkscape:pagecheckerboard="0"
     inkscape:deskcolor="#505050"
     inkscape:zoom="40.433333"
     inkscape:cx="14.987634"
     inkscape:cy="15"
     inkscape:window-width="2560"
     inkscape:window-height="1494"
     inkscape:window-x="-11"
     inkscape:window-y="-11"
     inkscape:window-maximized="1"
     inkscape:current-layer="layer1" /><defs
     id="defs1" /><g
     id="layer1"
     transform="translate(1.0583333)"><path
       style="fill:#ffffff;fill-opacity:1;stroke:none;stroke-width:0.0275568;stroke-opacity:1"
       d="M 0.13425106,6.2129389 C 0.09094941,6.2046089 0.04933722,6.1772909 0.02410316,6.1405779 L 0.00359954,6.1107679 0.0014606,5.7560272 C -1.412451e-4,5.5280268 0.00192514,5.3923376 0.00680323,5.3762421 0.01721522,5.3420681 0.05448358,5.3003671 0.09171141,5.2813181 0.12011779,5.2667531 0.13480106,5.2653371 0.27671875,5.2630121 l 0.15415051,-0.00227 V 4.4893689 3.7179992 l -0.1504397,-0.0034 C 0.1892902,3.7123292 0.12152167,3.7079692 0.10849866,3.7028112 0.07176269,3.6883022 0.03155165,3.6528242 0.01543143,3.6207762 4.2778702e-4,3.5909102 0,3.5799142 0,3.2356468 V 2.8812442 l 0.01697956,-0.031 C 0.0263268,2.8331852 0.04554707,2.8102882 0.05969513,2.7993502 0.08505801,2.7796842 1.9671247,1.7693704 2.039213,1.7367091 c 0.049763,-0.022557 0.1062558,-0.022557 0.1560087,0 0.072551,0.032871 1.9542461,1.0430544 1.979774,1.0628395 0.014257,0.01105 0.034333,0.035819 0.044586,0.054974 l 0.018635,0.034798 v 0.3472429 0.3472428 l -0.018368,0.034684 c -0.018796,0.035421 -0.055461,0.068633 -0.093842,0.084983 -0.01714,0.00731 -0.2720194,0.00958 -1.2528479,0.011107 l -1.2313462,0.0017 v 0.7726841 0.7726733 h 0.1341489 c 0.1537181,0 0.1873886,0.00601 0.2296935,0.040862 0.052701,0.043469 0.074171,0.1010221 0.059562,0.1596797 -0.012389,0.049646 -0.04325,0.08738 -0.08988,0.1097612 L 1.936038,5.5908136 H 1.1388884 0.34173747 v 0.1501435 0.1501468 l 0.80911673,0.0017 0.8091166,0.0017 0.032037,0.021706 c 0.017621,0.011959 0.041915,0.037121 0.054037,0.055938 0.018207,0.028393 0.021945,0.041826 0.021891,0.078493 -1.977e-4,0.067527 -0.033585,0.1188457 -0.099229,0.1525273 -0.024934,0.012809 -0.063033,0.013375 -0.9137597,0.014452 -0.48826777,5.668e-4 -0.90251477,-0.0017 -0.92055136,-0.0051 z M 1.2981329,4.4871303 1.3002718,3.7161006 H 1.0365128 0.77274817 v 0.7729113 0.7729113 l 0.26187433,-0.0017 0.2618691,-0.0017 z M 3.8963674,3.2010851 V 3.0188152 L 3.0160383,2.5473142 C 2.5318605,2.2879958 2.1304496,2.0743456 2.1240209,2.0725432 2.1176135,2.0708432 1.7139228,2.2824588 1.2269792,2.543024 L 0.34162544,3.0167806 v 0.1850923 0.1850923 l 1.77737096,-0.0017 1.777371,-0.0017 z M 2.0354551,3.124427 C 1.9886812,3.107934 1.9227708,3.042923 1.9067204,2.9974597 c -0.03839,-0.1087628 0.012815,-0.2238404 0.120891,-0.271526 0.047148,-0.020799 0.1321627,-0.020686 0.1795824,2.153e-4 0.051525,0.022727 0.090883,0.060936 0.1140778,0.1107189 0.018101,0.038878 0.020129,0.05044 0.017194,0.098478 -0.00375,0.060392 -0.015112,0.087006 -0.055803,0.130396 -0.045707,0.04874 -0.084395,0.06594 -0.1536701,0.068354 -0.041967,0.0017 -0.070202,-0.0017 -0.093509,-0.00969 z M 2.4755984,6.1983904 C 2.3947693,6.1598524 2.3593847,6.0604454 2.3987155,5.9824163 2.4093941,5.9612763 2.6476843,5.7273938 3.196,5.1999385 3.8314557,4.5886619 3.9834492,4.4459676 4.0066811,4.438855 4.053455,4.424516 4.1235889,4.432335 4.1587119,4.455801 c 0.047896,0.031963 0.070843,0.069839 0.074331,0.1226203 0.0016,0.024766 -0.00106,0.057439 -0.00609,0.072589 -0.00737,0.022386 -0.1538859,0.1672907 -0.78271,0.7740901 -0.52039,0.5021558 -0.7858099,0.7533642 -0.8107932,0.7673853 -0.04736,0.02658 -0.1096407,0.028903 -0.1578508,0.00589 z m 1.3235693,0.00113 C 3.5990549,6.130914 3.5133565,5.9076066 3.6199217,5.7324551 c 0.023602,-0.038822 0.089757,-0.099464 0.1300429,-0.1192596 0.1836403,-0.090242 0.4100499,1.7e-5 0.4708772,0.187722 0.016873,0.052027 0.017621,0.135678 0.0016,0.1883793 -0.026644,0.08831 -0.1180182,0.1785237 -0.2116352,0.2089747 -0.060105,0.019553 -0.1567241,0.020119 -0.2117634,0.00113 z M 2.6297329,5.0583607 C 2.5504472,5.0371087 2.4823582,4.9898137 2.4371168,4.9245586 2.400329,4.8715116 2.3837753,4.8172239 2.3837753,4.7499455 c 0,-0.093054 0.028834,-0.1602688 0.09681,-0.2257502 0.071843,-0.069204 0.145848,-0.096068 0.2512757,-0.091212 0.053732,0.00227 0.074219,0.00703 0.1155995,0.025673 0.1706761,0.076929 0.2446172,0.2705058 0.1641568,0.4297547 -0.023973,0.047436 -0.097269,0.1213734 -0.1421955,0.1434537 -0.070695,0.034741 -0.1685405,0.045566 -0.2396674,0.026466 z"
       id="path1-5" /><path
       style="fill:#615fdf;fill-opacity:1;fill-rule:evenodd;stroke:#615fdf;stroke-width:0.2;stroke-linecap:round;stroke-linejoin:round;stroke-miterlimit:5.4;paint-order:markers fill stroke;stroke-dasharray:none;stroke-opacity:1"
       d="m 13.955676,19.104558 c -0.352288,-0.09489 -0.670651,-0.352091 -0.824805,-0.666361 -0.08327,-0.169761 -0.0847,-0.178139 -0.0847,-0.494642 0,-0.316011 0.0015,-0.325011 0.08304,-0.487411 0.0919,-0.183095 0.33457,-0.436604 0.522893,-0.54624 0.156923,-0.09136 0.372739,-0.141561 0.608527,-0.141561 0.488968,0 0.90303,0.265212 1.119327,0.716942 0.07863,0.164207 0.08973,0.211873 0.09799,0.420446 0.01058,0.267175 -0.04184,0.471157 -0.168312,0.654981 -0.103436,0.150338 -0.389177,0.40846 -0.512607,0.463059 -0.251804,0.111385 -0.602665,0.145075 -0.841354,0.08079 z"
       id="path1"
       transform="matrix(0.26458333,0,0,0.26458333,-1.0583333,0)" /><path
       style="fill:#615fdf;fill-opacity:1;fill-rule:evenodd;stroke:#615fdf;stroke-width:0.212;stroke-linecap:round;stroke-linejoin:round;stroke-miterlimit:5.4;paint-order:markers fill stroke;stroke-dasharray:none;stroke-opacity:1"
       d="m 13.42328,23.435447 c -0.199419,-0.07117 -0.36063,-0.268652 -0.399913,-0.489903 -0.02046,-0.115235 0.02172,-0.279524 0.09749,-0.379725 0.142138,-0.187963 5.089986,-4.959094 5.759942,-5.554221 0.269083,-0.239028 0.315933,-0.258674 0.56336,-0.236238 0.292067,0.02648 0.507264,0.23112 0.532196,0.50608 0.02564,0.282721 0.02628,0.28165 -0.471468,0.779112 -0.991813,0.991235 -4.561938,4.427426 -5.396966,5.194499 -0.219423,0.201565 -0.45292,0.26309 -0.684643,0.180396 z"
       id="path2"
       transform="matrix(0.26458333,0,0,0.26458333,-1.0583333,0)" /><path
       style="fill:#615fdf;fill-opacity:1;fill-rule:evenodd;stroke:#615fdf;stroke-width:0.2;stroke-linecap:round;stroke-linejoin:round;stroke-miterlimit:5.4;paint-order:markers fill stroke;stroke-opacity:1;stroke-dasharray:none"
       d="m 18.431934,23.432607 c -0.612165,-0.164864 -1.011814,-0.786874 -0.885556,-1.378274 0.09219,-0.431824 0.455224,-0.806136 0.892244,-0.919966 0.506579,-0.131947 1.088163,0.09514 1.373228,0.536189 0.13101,0.202697 0.180126,0.406036 0.167547,0.693642 -0.0089,0.203365 -0.02094,0.25536 -0.09311,0.40196 -0.09804,0.199141 -0.323209,0.4359 -0.523621,0.550564 -0.251988,0.144173 -0.644312,0.193021 -0.930732,0.115885 z"
       id="path3"
       transform="matrix(0.26458333,0,0,0.26458333,-1.0583333,0)" /></g></svg>
