<?xml version="1.0" encoding="UTF-8" standalone="no"?>
<!-- Created with Inkscape (http://www.inkscape.org/) -->

<svg
   width="172.57474"
   height="40"
   viewBox="0 0 45.660398 10.583333"
   version="1.1"
   id="svg1"
   xml:space="preserve"
   xmlns="http://www.w3.org/2000/svg"
   xmlns:svg="http://www.w3.org/2000/svg"><defs
     id="defs1"><linearGradient
       id="swatch204"><stop
         style="stop-color:#f2f5f4;stop-opacity:1;"
         offset="0"
         id="stop204" /></linearGradient><linearGradient
       id="swatch203"><stop
         style="stop-color:#000000;stop-opacity:1;"
         offset="0"
         id="stop203" /></linearGradient></defs><g
     id="layer1"
     transform="translate(229.62861,-101.43996)"><g
       id="g216-99-1"
       transform="matrix(0.07421747,0,0,0.07743041,-206.14718,93.640617)"
       style="fill:#181818;fill-opacity:1"><g
         id="g19"><g
           id="g194-2-6"
           transform="matrix(12.693944,0,0,12.244197,-2259.167,-39.840727)"><g
             id="g215-0-6"
             transform="matrix(0.04927403,0,0,0.05104673,125.74829,1.0200078)"><path
               style="fill:#7c7c7c"
               d="m 610.518,423.5241 c 0.0786,-0.0354 0.17248,-0.031 0.20866,0.01 0.0362,0.0407 -0.0281,0.0696 -0.14289,0.0643 -0.12682,-0.006 -0.15261,-0.0349 -0.0658,-0.074 z m 149.60093,-2.52602 c 0,-0.0211 0.15922,-0.20015 0.35381,-0.39795 l 0.35382,-0.35964 -0.31975,0.39795 c -0.29805,0.37094 -0.38788,0.45423 -0.38788,0.35964 z m 2.83909,-6.40029 c 0.005,-0.14264 0.031,-0.17166 0.0658,-0.074 0.0315,0.0884 0.0276,0.194 -0.009,0.23469 -0.0362,0.0407 -0.0619,-0.0316 -0.0572,-0.16071 z M 602.6442,396.97582 c 0,-9.42832 0.0129,-13.26728 0.0287,-8.53102 0.0158,4.73626 0.0158,12.45033 -10e-6,17.14239 -0.0158,4.69206 -0.0287,0.81694 -0.0287,-8.61137 z m -46.05352,-25.56054 -0.43034,-0.52039 0.46268,0.48402 c 0.43028,0.45013 0.5127,0.55677 0.43034,0.55677 -0.0178,0 -0.22599,-0.23418 -0.46268,-0.5204 z m -2.54461,-6.04065 c 0.005,-0.14264 0.031,-0.17166 0.0658,-0.074 0.0314,0.0884 0.0276,0.194 -0.009,0.23469 -0.0362,0.0407 -0.0619,-0.0316 -0.0572,-0.16071 z m 0.009,-102.17071 c 0,-0.16836 0.0247,-0.23724 0.0549,-0.15305 0.0302,0.0842 0.0302,0.22193 0,0.30611 -0.0302,0.0842 -0.0549,0.0153 -0.0549,-0.15306 z m 131.24727,-30.91882 -0.0277,-27.36789 35.21783,0.0319 35.21783,0.0319 0.79635,0.27814 c 3.06396,1.07013 5.30366,3.58488 6.24518,7.01211 l 0.25099,0.91361 0.0299,23.23406 0.0299,23.23407 H 724.19588 685.32963 Z M 556.5958,257.08164 c 0.23387,-0.26938 0.44971,-0.48978 0.47965,-0.48978 0.0299,0 -0.13691,0.2204 -0.37078,0.48978 -0.23387,0.26938 -0.44971,0.48978 -0.47965,0.48978 -0.0299,0 0.13691,-0.2204 0.37078,-0.48978 z m 5.25954,-2.8999 c 0.0786,-0.0354 0.17249,-0.031 0.20866,0.01 0.0362,0.0407 -0.0281,0.0696 -0.14288,0.0643 -0.12683,-0.006 -0.15262,-0.0349 -0.0658,-0.074 z m 40.78906,-19.81377 c 0,-10.90991 0.0128,-15.35494 0.0285,-9.87784 0.0157,5.4771 0.0157,14.40339 0,19.8362 -0.0157,5.43281 -0.0285,0.95155 -0.0285,-9.95836 z m 0.0643,-20.82597 c 0.005,-0.14264 0.031,-0.17166 0.0658,-0.074 0.0315,0.0884 0.0276,0.194 -0.009,0.23469 -0.0362,0.0407 -0.0619,-0.0316 -0.0572,-0.16071 z m 2.54973,-5.68352 c 0.35551,-0.40407 0.67087,-0.73467 0.70081,-0.73467 0.0299,0 -0.23644,0.3306 -0.59194,0.73467 -0.35551,0.40407 -0.67087,0.73467 -0.70081,0.73467 -0.0299,0 0.23644,-0.3306 0.59194,-0.73467 z m 4.60635,-2.77745 c 0.0786,-0.0354 0.17248,-0.031 0.20866,0.01 0.0362,0.0407 -0.0281,0.0696 -0.14289,0.0643 -0.12682,-0.006 -0.15261,-0.0349 -0.0658,-0.074 z m 0.81176,-0.12365 c 0.10592,-0.031 0.25289,-0.029 0.32659,0.005 0.0737,0.0335 -0.013,0.0589 -0.19258,0.0565 -0.17963,-0.002 -0.23993,-0.0299 -0.13401,-0.061 z"
               id="path200-1-3" /><path
               style="fill:#626262"
               d="m 602.63795,377.13962 c 8e-5,-1.54894 0.0157,-2.16571 0.0347,-1.37061 0.019,0.79511 0.0189,2.06242 -1.4e-4,2.81625 -0.0191,0.75384 -0.0346,0.10329 -0.0345,-1.44564 z m 82.66375,-90.21185 -0.0275,-27.33599 -10.19942,-0.0612 -10.19943,-0.0612 -0.4442,-0.77302 c -1.21133,-2.10802 -3.13385,-3.66624 -5.34666,-4.33352 l -0.91768,-0.27672 -27.73336,-0.0349 -27.73336,-0.0349 V 234.0093 c 0,-21.89829 -0.0285,-20.88815 0.64327,-22.77517 1.04904,-2.94668 3.27923,-5.1282 6.11024,-5.9769 l 0.92148,-0.27624 h 37.44956 37.44956 l 0.0275,27.33599 0.0275,27.336 h 38.86457 38.86457 v 27.30538 27.30539 H 724.19372 685.32915 Z M 554.04607,263.62228 c 0.005,-0.14264 0.031,-0.17166 0.0658,-0.074 0.0314,0.0884 0.0276,0.194 -0.009,0.23469 -0.0362,0.0407 -0.0619,-0.0316 -0.0572,-0.16071 z"
               id="path199-7-5" /><path
               style="fill:#494949"
               d="m 605.19817,420.57722 -0.37517,-0.45917 0.40825,0.42197 c 0.22453,0.23208 0.40824,0.4387 0.40824,0.45917 0,0.0935 -0.0921,0.005 -0.44132,-0.42197 z m -51.14351,-55.86584 c 0,-0.16836 0.0247,-0.23724 0.0549,-0.15306 0.0302,0.0842 0.0302,0.22194 0,0.30612 -0.0302,0.0842 -0.0549,0.0153 -0.0549,-0.15306 z m 30.93556,-17.8464 c 1.90538,-0.0188 4.99171,-0.0188 6.8585,2e-5 1.86679,0.0188 0.30784,0.0341 -3.46433,0.0341 -3.77218,-2e-5 -5.29955,-0.0154 -3.39417,-0.0342 z m 38.26603,0 c 1.87544,-0.0188 4.91277,-0.0188 6.74963,2e-5 1.83687,0.0188 0.30242,0.0342 -3.40988,0.0342 -3.71229,-1e-5 -5.21518,-0.0154 -3.33975,-0.0342 z m -69.19148,-47.81509 0.0308,-36.27453 0.23599,-0.97956 c 0.31625,-1.31267 0.60016,-2.01386 1.29513,-3.1986 1.19302,-2.03381 2.92963,-3.42164 5.16038,-4.12398 0.81389,-0.25624 0.8906,-0.25732 24.1136,-0.33853 27.38333,-0.0958 73.55806,-0.0903 70.10906,0.008 -1.31727,0.0376 -2.21916,0.0806 -2.0042,0.0954 0.62955,0.0435 2.0584,0.49361 2.79125,0.87932 1.75563,0.924 3.32675,2.64963 4.2064,4.62009 0.56313,1.26144 0.84285,2.64989 0.90797,4.50691 l 0.0601,1.71424 -14.94637,9.70435 c -8.2205,5.3374 -14.95964,9.68942 -14.97587,9.67117 -0.0162,-0.0183 0.40537,-0.83122 0.93689,-1.80661 l 0.96639,-1.77342 -6.32892,-0.0316 c -3.59339,-0.0179 -6.37079,0.0155 -6.42578,0.0773 -0.0533,0.0599 -1.79524,3.59423 -3.87104,7.85403 l -3.77418,7.74509 -3.15709,2.05948 c -1.7364,1.13272 -3.20665,2.062 -3.26724,2.06507 -0.0606,0.003 -2.11813,-4.45595 -4.57233,-9.90895 l -4.46217,-9.91453 -6.94015,-0.004 c -3.81708,-0.002 -6.94014,0.0218 -6.94014,0.0529 0,0.031 3.06477,5.85187 6.8106,12.93516 3.74583,7.08329 6.77091,12.91754 6.72241,12.965 -0.1354,0.13248 -42.58318,27.6746 -42.65196,27.6746 -0.0332,0 -0.0465,-16.32354 -0.0296,-36.27453 z m 131.18201,-12.0609 -0.027,-27.33599 h -10.17245 c -5.59485,0 -10.19517,-0.0413 -10.22293,-0.0918 -0.0278,-0.0505 4.55157,-0.0775 10.17629,-0.06 8.01554,0.025 10.23786,0.0647 10.27805,0.18367 0.0282,0.0835 0.0386,12.41169 0.0231,27.39598 l -0.0281,27.24416 z m -22.07554,-29.93796 -0.64979,-0.76529 0.68041,0.73084 c 0.63204,0.67889 0.73022,0.79973 0.64978,0.79973 -0.0168,0 -0.32302,-0.34438 -0.6804,-0.76528 z m -5.07923,-2.86929 c 0.0786,-0.0354 0.17248,-0.031 0.20866,0.01 0.0362,0.0407 -0.0281,0.0696 -0.14289,0.0643 -0.12682,-0.006 -0.15262,-0.0349 -0.0658,-0.074 z"
               id="path198-5-7" /><path
               style="fill:#434343"
               d="m 558.60246,373.07011 c -1.71141,-1.13353 -2.84484,-2.54606 -3.69345,-4.60291 -0.85487,-2.07203 -0.79966,-0.89463 -0.83927,-17.89829 l -0.0354,-15.18327 21.25744,-13.79786 c 11.6916,-7.58883 21.33093,-13.82687 21.42075,-13.8623 0.11988,-0.0473 0.61774,0.80025 1.87253,3.18775 l 1.70923,3.25218 -0.25097,0.44713 c -0.21369,0.38071 -6.15591,10.74365 -16.02924,27.95423 -1.33858,2.33333 -2.43379,4.27562 -2.43379,4.31621 0,0.0406 3.0607,0.0738 6.80156,0.0738 h 6.80155 l 0.15473,-0.2755 c 0.0851,-0.15153 2.68848,-5.48251 5.78528,-11.84662 3.09679,-6.36411 5.67592,-11.63486 5.7314,-11.71277 0.0555,-0.0779 0.26687,-0.59781 0.46978,-1.15533 l 0.36891,-1.01367 0.18936,0.5431 c 0.25133,0.72082 0.67246,1.62718 4.22669,9.09682 1.66174,3.49234 2.98006,6.39362 2.92961,6.4473 -0.0756,0.0804 -55.09391,35.83179 -55.7481,36.22558 -0.15937,0.0959 -0.31546,0.0516 -0.68863,-0.19556 z m 126.72621,-31.50113 v -27.30555 l 38.83759,0.0308 38.8376,0.0308 0.0274,27.27477 0.0275,27.27477 H 724.19372 685.32867 Z M 620.20516,322.7468 c -2.43129,-4.42996 -4.50396,-8.21978 -4.60592,-8.42181 l -0.1854,-0.36734 4.97995,-9.1222 c 2.73898,-5.01721 6.24293,-11.43643 7.78657,-14.26492 l 2.80661,-5.14272 14.9415,-9.70382 c 8.21784,-5.3371 14.95807,-9.70382 14.97829,-9.70382 0.0202,0 0.0244,9.2872 0.009,20.63822 l -0.0275,20.63821 -18.01716,11.70206 c -9.90944,6.43614 -18.06856,11.72469 -18.13139,11.75234 -0.0628,0.0277 -2.10348,-3.57424 -4.53477,-8.0042 z m 50.5356,-35.78842 V 259.653 h 7.23953 7.23952 v 27.30538 27.30539 h -7.23952 -7.23953 z m -62.99046,18.63228 c -0.24613,-0.65107 -0.71668,-1.81864 -1.04567,-2.5946 l -0.59815,-1.41083 3.15617,-2.05197 c 1.73589,-1.12858 3.16713,-2.03652 3.18052,-2.01764 0.0134,0.0189 -0.59765,1.3113 -1.35789,2.87205 -0.76024,1.56076 -1.69144,3.59948 -2.06933,4.53049 -0.3779,0.93101 -0.71657,1.72954 -0.75261,1.77451 -0.036,0.045 -0.26691,-0.45093 -0.51304,-1.10201 z m 50.5203,-48.53963 -0.43034,-0.5204 0.46268,0.48403 c 0.25447,0.26621 0.46267,0.50038 0.46267,0.52039 0,0.0926 -0.0948,-6e-5 -0.49501,-0.48402 z m -5.51298,-2.86929 c 0.0786,-0.0354 0.17249,-0.031 0.20866,0.01 0.0362,0.0407 -0.0281,0.0696 -0.14288,0.0643 -0.12682,-0.006 -0.15262,-0.0349 -0.0658,-0.074 z"
               id="path197-4-4" /><path
               style="fill:#3d3d3d"
               d="m 561.7808,374.25297 c -0.69597,-0.10204 -1.9253,-0.50003 -2.36799,-0.76662 -0.21299,-0.12826 2.56795,-1.96366 27.75168,-18.31586 15.39362,-9.99533 28.0061,-18.12266 28.02774,-18.06074 0.0217,0.0619 1.07795,2.28905 2.34733,4.94918 l 2.30798,4.83661 6.77626,0.0315 c 6.94699,0.0323 7.04327,0.0265 6.67772,-0.405 -0.30699,-0.36236 -8.60161,-15.66409 -8.53167,-15.73904 0.0464,-0.0497 7.99608,-5.22626 17.66601,-11.50349 9.66994,-6.27722 17.79059,-11.54979 18.04591,-11.71681 l 0.46421,-0.30367 -0.0297,29.369 c -0.0285,28.22614 -0.0376,29.39996 -0.23248,30.16489 -0.92662,3.63669 -3.2244,6.22579 -6.4361,7.2521 l -0.87092,0.27831 -45.45114,0.0157 c -24.99812,0.009 -45.76331,-0.0301 -46.14485,-0.0861 z m 123.48933,-5.40905 c -0.0284,-0.0842 -0.039,-12.41293 -0.0236,-27.39722 l 0.0281,-27.24416 0.027,27.33583 0.027,27.33582 38.83759,0.031 38.8376,0.031 -38.84101,0.0304 c -30.9926,0.0243 -38.85146,-4.9e-4 -38.89272,-0.12262 z m -19.45379,-80.56925 -0.0289,-25.98909 -0.36104,-1.16323 c -0.19857,-0.63978 -0.38637,-1.23211 -0.41732,-1.31629 -0.0442,-0.1202 0.56508,-0.15306 2.83772,-0.15306 h 2.89399 v 27.30538 27.30539 h -2.44774 -2.44774 z m -6.95575,-30.55019 c -0.13541,-0.19421 -0.13156,-0.19854 0.0411,-0.0462 0.10479,0.0924 0.19052,0.18885 0.19052,0.21428 0,0.10078 -0.0894,0.0359 -0.23162,-0.16805 z m -1.19751,-1.3469 c -0.13542,-0.19421 -0.13157,-0.19854 0.0411,-0.0462 0.18134,0.15996 0.23901,0.26051 0.14941,0.26051 -0.0226,0 -0.10834,-0.0964 -0.19051,-0.21428 z m -4.57886,-2.19584 c 0.0786,-0.0354 0.17248,-0.031 0.20866,0.01 0.0362,0.0407 -0.0281,0.0696 -0.14289,0.0643 -0.12682,-0.006 -0.15262,-0.0349 -0.0658,-0.074 z m 4.57233,0 c 0.0786,-0.0354 0.17248,-0.031 0.20866,0.01 0.0362,0.0407 -0.0281,0.0696 -0.14289,0.0643 -0.12682,-0.006 -0.15262,-0.0349 -0.0658,-0.074 z"
               id="path196-13-3" /><path
               style="fill:#363636"
               d="m 610.43614,423.47507 c -2.01923,-0.29509 -3.79593,-1.31378 -5.24327,-3.00627 -0.87282,-1.02066 -1.41182,-1.9461 -1.84947,-3.17542 -0.66048,-1.85523 -0.64327,-1.38996 -0.64327,-17.38836 v -14.6202 l 30.34612,-0.0319 30.34612,-0.0319 0.86661,-0.30611 0.8666,-0.30612 0.2518,-0.90565 c 0.13849,-0.4981 0.2988,-1.40726 0.35624,-2.02035 0.0639,-0.68233 0.10518,-13.97372 0.10633,-34.26687 l 0.002,-33.15216 h -2.39278 -2.39277 l -0.0319,2.47952 c -0.0175,1.36374 -0.043,-10.1546 -0.0567,-25.59631 -0.0222,-25.06845 -0.0433,-28.17692 -0.19728,-29.01962 -0.71561,-3.91632 -3.32887,-6.89632 -6.84934,-7.81057 -0.60684,-0.15759 -0.47553,-0.16654 1.8507,-0.12613 2.69924,0.0469 3.39863,0.17189 4.76207,0.85106 2.17485,1.08336 4.12487,3.50817 4.90933,6.10464 l 0.34419,1.13922 0.0289,25.98909 0.0289,25.9891 h 9.68703 9.68702 l 0.0275,27.33599 0.0274,27.336 38.8945,0.0308 38.89449,0.0308 -0.0323,22.989 -0.0323,22.98901 -0.23525,0.97956 c -0.31418,1.30823 -0.59874,2.01269 -1.287,3.18613 -1.19155,2.03151 -2.92254,3.41906 -5.16776,4.14244 l -0.81649,0.26307 -72.1775,0.0155 c -39.69762,0.009 -72.49296,-0.0306 -72.87853,-0.087 z m 42.37118,-49.17533 c 0.10593,-0.031 0.25289,-0.029 0.3266,0.005 0.0737,0.0335 -0.013,0.0589 -0.19259,0.0565 -0.17962,-0.002 -0.23993,-0.0299 -0.13401,-0.061 z m 0.82122,-0.12124 c 0.0786,-0.0354 0.17249,-0.031 0.20866,0.01 0.0362,0.0407 -0.0281,0.0696 -0.14288,0.0643 -0.12682,-0.006 -0.15262,-0.0349 -0.0658,-0.074 z m 3.61296,-1.67683 c 0,-0.0254 0.0857,-0.12185 0.19052,-0.21428 0.17266,-0.1523 0.17651,-0.14797 0.0411,0.0462 -0.14222,0.20397 -0.23162,0.26883 -0.23162,0.16805 z m 1.03422,-1.05578 c 0.35551,-0.40407 0.67087,-0.73467 0.70081,-0.73467 0.0299,0 -0.23644,0.3306 -0.59195,0.73467 -0.3555,0.40407 -0.67086,0.73468 -0.7008,0.73468 -0.0299,0 0.23643,-0.33061 0.59194,-0.73468 z m 0.70762,-0.90335 c 0,-0.0254 0.0857,-0.12185 0.19052,-0.21428 0.17266,-0.1523 0.17651,-0.14797 0.0411,0.0462 -0.14222,0.20397 -0.23162,0.26883 -0.23162,0.16805 z m 1.75044,-4.18835 c 0.005,-0.14264 0.031,-0.17165 0.0658,-0.074 0.0315,0.0884 0.0276,0.194 -0.009,0.23468 -0.0362,0.0407 -0.0619,-0.0316 -0.0572,-0.16071 z m 0.11746,-0.78569 c 0,-0.16836 0.0247,-0.23724 0.0549,-0.15306 0.0302,0.0842 0.0302,0.22194 0,0.30612 -0.0302,0.0842 -0.0549,0.0153 -0.0549,-0.15306 z"
               id="path195-7-5" /><path
               style="fill:#1c1c1c"
               d="m 602.70013,379.83622 v -5.4486 l 25.50163,-0.0323 25.50163,-0.0323 0.79783,-0.27847 c 2.99103,-1.04398 5.11027,-3.40388 6.12732,-6.82312 l 0.25495,-0.85712 0.0671,-26.01971 c 0.0369,-14.31083 0.0748,-26.03348 0.0841,-26.05031 0.009,-0.0168 1.09482,-0.0306 2.41209,-0.0306 h 2.39503 l -0.002,33.15216 c -0.001,20.29315 -0.0424,33.58454 -0.10633,34.26687 -0.0574,0.61309 -0.21775,1.52225 -0.35624,2.02035 l -0.2518,0.90565 -0.8666,0.30612 -0.86661,0.30611 -30.34612,0.0319 -30.34612,0.0319 z"
               id="path194-4-4" /><path
               style="opacity:1;fill:#131313;fill-opacity:1;stroke:#000000;stroke-width:0.965908;stroke-linecap:round;stroke-linejoin:round;stroke-miterlimit:5.4;stroke-dasharray:none;stroke-opacity:1;paint-order:markers fill stroke"
               d="m 1727.8183,2020.0624 c -3.3041,-1.6387 -7.9259,-5.4017 -10.2707,-8.3622 -8.3166,-10.5007 -8.4705,-11.8519 -8.4705,-74.3812 v -57.0736 l 115.9154,-0.3778 c 109.0972,-0.3556 116.0639,-0.5263 118.4404,-2.9028 2.382,-2.382 2.5466,-9.9686 2.907,-133.9967 l 0.382,-131.4718 h 36.034 36.034 v 103.2376 103.2376 h 147.0782 147.0782 v 88.8696 88.8696 l -4.3591,8.7233 c -3.1598,6.3232 -6.1754,9.9847 -10.9602,13.3074 l -6.601,4.584 -278.6001,0.3582 -278.6001,0.3582 z"
               id="path201-1-3"
               transform="matrix(0.26458332,0,0,0.26458332,150.79346,-112.0216)" /><path
               style="opacity:1;fill:#131313;fill-opacity:1;stroke:none;stroke-width:0.965908;stroke-linecap:round;stroke-linejoin:round;stroke-miterlimit:5.4;stroke-dasharray:none;stroke-opacity:1;paint-order:markers fill stroke"
               d="m 1722.8657,1879.0851 -13.7886,-0.4048 v -19.7478 -19.7478 l 95.813,-0.031 c 89.6706,-0.029 96.1756,-0.1964 101.4698,-2.6098 8.6933,-3.9629 14.3574,-9.4816 18.3129,-17.843 l 3.6074,-7.6253 v -65.6195 c 0,-36.0907 0.42,-80.9961 0.9333,-99.7896 l 0.9333,-34.1702 h 7.6499 7.6498 l -0.4514,130.765 c -0.4257,123.2919 -0.5958,130.9092 -2.9762,133.2896 -2.3587,2.3586 -8.0799,2.5488 -86.9742,2.8911 -46.4471,0.2015 -92.0861,0.5197 -101.4199,0.7071 -9.3338,0.1874 -23.1754,0.1586 -30.7591,-0.064 z"
               id="path202-37-9"
               transform="matrix(0.26458332,0,0,0.26458332,150.79346,-112.0216)" /><path
               style="opacity:1;fill:#131313;fill-opacity:1;stroke:#000000;stroke-width:0.965908;stroke-linecap:round;stroke-linejoin:round;stroke-miterlimit:5.4;stroke-dasharray:none;stroke-opacity:1;paint-order:markers fill stroke"
               d="m 2020.2041,1714.0268 v -102.5305 h 146.3711 146.3711 v 102.5305 102.5305 h -146.3711 -146.3711 z"
               id="path203-0-5"
               transform="matrix(0.26458332,0,0,0.26458332,150.79346,-112.0216)" /><path
               style="opacity:1;fill:#1d1d1d;fill-opacity:1;stroke:none;stroke-width:0.965908;stroke-linecap:round;stroke-linejoin:round;stroke-miterlimit:5.4;stroke-dasharray:none;stroke-opacity:1;paint-order:markers fill stroke"
               d="m 2021.6183,1714.0268 v -101.1162 h 144.9569 144.9569 v 101.1162 101.1163 h -144.9569 -144.9569 z"
               id="path204-8-7"
               transform="matrix(0.26458332,0,0,0.26458332,150.79346,-112.0216)" /><path
               style="opacity:1;fill:#1d1d1d;fill-opacity:1;stroke:#1d1d1d;stroke-width:0.965908;stroke-linecap:round;stroke-linejoin:round;stroke-miterlimit:5.4;stroke-dasharray:none;stroke-opacity:1;paint-order:markers fill stroke"
               d="m 1524.9619,1621.0423 c -0.2418,-37.5297 -0.1215,-100.7433 0.2674,-140.4746 l 0.7071,-72.2389 4.2839,-6.9571 c 2.3561,-3.8264 7.2043,-8.9213 10.7737,-11.322 l 6.4898,-4.3649 34.3566,-0.9384 c 18.8961,-0.5162 98.2325,-0.9384 176.3031,-0.9384 h 141.9464 l 6.6705,3.4036 c 13.276,6.7742 20.034,18.0162 20.0575,33.3659 l 0.014,9.1924 -34.9434,22.6274 c -19.2189,12.4451 -43.8716,28.4588 -54.7838,35.586 -10.9122,7.1272 -20.0439,12.7573 -20.2926,12.5114 -0.2487,-0.2459 0.8779,-3.0544 2.5036,-6.241 l 2.9559,-5.7939 h -24.6126 c -22.2262,0 -24.6816,0.2399 -25.3251,2.4748 -1.1952,4.1515 -29.125,59.8501 -29.8024,59.4332 -0.3482,-0.2144 -4.8756,2.3149 -10.0608,5.6207 -5.1852,3.3057 -9.9374,6.0104 -10.5604,6.0104 -1.0209,0 -8.4869,-15.7453 -28.1642,-59.397 l -6.6937,-14.8492 -14.09,-0.3758 c -7.7495,-0.2066 -19.6122,0.1116 -26.3615,0.7071 l -12.2715,1.0829 25.8567,49.0707 c 21.0945,40.0331 25.4383,49.2308 23.5852,49.9404 -2.0722,0.7935 -61.9945,39.4086 -129.5507,83.4851 -14.7785,9.6421 -27.3086,17.55 -27.8446,17.5731 -0.536,0.023 -1.1724,-30.6642 -1.4142,-68.1939 z"
               id="path205-0-2"
               transform="matrix(0.26458332,0,0,0.26458332,150.79346,-112.0216)" /><path
               style="opacity:1;fill:#1d1d1d;fill-opacity:1;stroke:#1d1d1d;stroke-width:0.965908;stroke-linecap:round;stroke-linejoin:round;stroke-miterlimit:5.4;stroke-dasharray:none;stroke-opacity:1;paint-order:markers fill stroke"
               d="m 1788.5083,1667.7113 c -4.8071,-7.8241 -31.348,-56.6514 -31.348,-57.6709 0,-2.576 57.1613,-105.6612 59.8428,-107.921 1.6994,-1.4321 21.8634,-14.689 44.809,-29.4598 22.9457,-14.7708 47.367,-30.6036 54.2697,-35.1842 l 12.5504,-8.3282 -0.5295,78.0931 -0.5296,78.0931 -6.0063,3.8891 c -3.3034,2.139 -6.5914,3.8891 -7.3067,3.8891 -0.7153,0 -1.5127,0.555 -1.772,1.2334 -0.5791,1.5152 -29.0373,19.9798 -30.7935,19.9798 -0.6941,0 -1.4741,0.4989 -1.7334,1.1087 -0.2593,0.6098 -9.6991,7.066 -20.9775,14.3472 -11.2783,7.2811 -22.2304,14.419 -24.3379,15.8618 -2.1075,1.4429 -4.494,2.6234 -5.3033,2.6234 -0.8093,0 -1.4715,0.6364 -1.4715,1.4142 0,0.7778 -0.9546,1.4142 -2.1213,1.4142 -1.1667,0 -2.1213,0.6364 -2.1213,1.4142 0,0.7779 -0.9546,1.4143 -2.1213,1.4143 -1.1668,0 -2.1214,0.5139 -2.1214,1.142 0,0.6281 -2.5455,2.2652 -5.6568,3.6379 -3.1113,1.3726 -5.6569,3.0861 -5.6569,3.8077 0,0.7215 -0.9546,1.3118 -2.1213,1.3118 -1.1667,0 -2.1213,0.6364 -2.1213,1.4143 0,0.7778 -0.9546,1.4142 -2.1213,1.4142 -1.1668,0 -2.1213,0.6364 -2.1213,1.4142 0,0.7778 -0.9546,1.4142 -2.1214,1.4142 -1.1667,0 -2.1213,0.6364 -2.1213,1.4142 0,3.0947 -4.1729,1.1523 -6.8358,-3.182 z"
               id="path206-2-6"
               transform="matrix(0.26458332,0,0,0.26458332,150.79346,-112.0216)" /><path
               style="opacity:1;fill:#1d1d1d;fill-opacity:1;stroke:#1d1d1d;stroke-width:0.965908;stroke-linecap:round;stroke-linejoin:round;stroke-miterlimit:5.4;stroke-dasharray:none;stroke-opacity:1;paint-order:markers fill stroke"
               d="m 1549.6245,1836.3122 c -1.7501,-0.7034 -3.182,-1.6152 -3.182,-2.0262 0,-0.8141 8.4634,-6.3995 96.1665,-63.4654 64.4097,-41.9095 108.5452,-70.1835 111.0657,-71.1508 0.9472,-0.3634 5.1006,6.7763 9.9592,17.1199 l 8.3345,17.7432 h 26.6409 26.6409 l -4.1996,-7.4246 c -9.2694,-16.3875 -18.5557,-33.4999 -23.4058,-43.1309 l -5.1161,-10.1591 8.8323,-5.9606 c 4.8578,-3.2783 9.0458,-6.486 9.3067,-7.1282 0.2609,-0.6421 1.0564,-0.8078 1.7678,-0.3681 0.7113,0.4396 1.2934,0.1254 1.2934,-0.6983 0,-0.8238 0.5639,-1.4977 1.253,-1.4977 0.6892,0 4.9849,-2.438 9.546,-5.4179 4.5611,-2.9798 17.9534,-11.6415 29.7607,-19.2482 11.8074,-7.6066 22.6261,-14.9093 24.0417,-16.2281 1.4155,-1.3188 3.0969,-2.45 3.7363,-2.5137 0.6394,-0.064 7.3216,-4.1407 14.8492,-9.0598 20.8513,-13.6259 28.8236,-18.4268 29.4908,-17.7595 1.3006,1.3006 1.2885,219.5299 -0.012,222.9623 -4.7309,12.4828 -10.6998,21.2132 -14.5032,21.2132 -1.0976,0 -1.9956,0.5741 -1.9956,1.2758 0,4.1062 -11.6577,4.3796 -182.9981,4.2914 -100.2675,-0.052 -175.4401,-0.632 -177.2728,-1.3687 z"
               id="path207-2-4"
               transform="matrix(0.26458332,0,0,0.26458332,150.79346,-112.0216)" /><path
               style="opacity:1;fill:#1d1d1d;fill-opacity:1;stroke:#1d1d1d;stroke-width:0.965908;stroke-linecap:round;stroke-linejoin:round;stroke-miterlimit:5.4;stroke-dasharray:none;stroke-opacity:1;paint-order:markers fill stroke"
               d="m 1536.2003,1828.2246 c -2.8376,-2.9168 -6.453,-8.1671 -8.0341,-11.6673 -2.7426,-6.0714 -2.8762,-9.1094 -2.9058,-66.0819 l -0.031,-59.7179 3.182,-1.938 c 1.7501,-1.066 27.365,-17.5467 56.9221,-36.6239 53.9298,-34.8082 96.233,-61.9998 99.1362,-63.7224 0.939,-0.5572 3.9834,3.7117 7.6819,10.7717 l 6.1264,11.6947 -28.8041,50.1294 c -38.9332,67.7577 -41.3811,72.1469 -40.647,72.881 0.3505,0.3505 11.8649,1.0434 25.5875,1.5397 l 24.9502,0.9024 23.3416,-47.7002 c 12.8378,-26.2351 23.383,-48.45 23.4337,-49.3664 0.096,-1.726 3.1639,4.4743 18.6848,37.7562 8.4906,18.2066 8.9855,19.7978 6.8544,22.0382 -1.2632,1.3281 -2.5369,2.2277 -2.8303,1.9991 -0.7131,-0.5556 -13.4799,8.1884 -14.0801,9.6435 -0.2592,0.6287 -1.3242,1.143 -2.3665,1.143 -1.0424,0 -4.8132,2.2274 -8.3797,4.9498 -3.5665,2.7223 -7.1154,4.9497 -7.8865,4.9497 -0.7711,0 -1.402,0.6364 -1.402,1.4142 0,0.7778 -0.9057,1.4142 -2.0128,1.4142 -1.107,0 -3.9036,1.591 -6.2145,3.5356 -2.311,1.9445 -4.9054,3.5355 -5.7654,3.5355 -0.86,0 -1.5636,0.6364 -1.5636,1.4142 0,0.7778 -0.6633,1.4142 -1.4739,1.4142 -0.8107,0 -2.2426,0.6267 -3.182,1.3926 -4.4438,3.623 -20.986,14.1638 -22.2279,14.1638 -0.7703,0 -1.4005,0.6364 -1.4005,1.4142 0,0.7778 -0.6279,1.4142 -1.3953,1.4142 -0.7674,0 -6.3359,3.4063 -12.3744,7.5696 -6.0385,4.1632 -11.62,7.8225 -12.4033,8.1317 -0.7834,0.3092 -14.6894,9.3556 -30.9024,20.1032 -16.2129,10.7475 -31.0045,20.2365 -32.8703,21.0866 -1.8658,0.8501 -3.3924,2.0799 -3.3924,2.7329 0,0.6529 -0.9057,1.1872 -2.0128,1.1872 -1.107,0 -3.8117,1.4479 -6.0104,3.2175 -2.1987,1.7696 -5.7477,4.1045 -7.8867,5.1887 -2.139,1.0842 -3.8891,2.5001 -3.8891,3.1465 0,0.6463 -0.649,1.1752 -1.4423,1.1752 -0.7933,0 -3.9626,1.591 -7.0429,3.5355 -3.0804,1.9446 -6.1206,3.5356 -6.756,3.5356 -0.6354,0 -3.477,-2.3865 -6.3147,-5.3033 z"
               id="path208-2-3"
               transform="matrix(0.26458332,0,0,0.26458332,150.79346,-112.0216)" /><path
               style="opacity:1;fill:#1d1d1d;fill-opacity:1;stroke:none;stroke-width:0.17075;stroke-linecap:round;stroke-linejoin:round;stroke-miterlimit:5.4;stroke-dasharray:none;stroke-opacity:1;paint-order:markers fill stroke"
               d="m 1728.37,1581.2497 c -0.2972,-0.6874 -1.276,-3.106 -2.1751,-5.3747 -0.8991,-2.2688 -2.4076,-5.9507 -3.3523,-8.1822 -0.9447,-2.2315 -1.7176,-4.1604 -1.7176,-4.2864 0,-0.1261 0.5728,-0.5968 1.2729,-1.0461 0.7001,-0.4492 1.4103,-0.9542 1.5782,-1.1221 0.1679,-0.1679 0.8044,-0.5589 1.4146,-0.8689 0.6101,-0.31 3.528,-2.0499 6.4843,-3.8664 6.4674,-3.974 9.1717,-5.5395 10.1709,-5.8878 0.4631,-0.1614 0.961,-0.6386 1.3049,-1.2506 0.4906,-0.8729 1.0242,-1.3008 1.0242,-0.8213 0,0.092 -1.701,3.7207 -3.7801,8.0625 -4.6954,9.8057 -6.9724,14.8057 -9.3885,20.6151 -1.036,2.491 -1.9763,4.6978 -2.0897,4.9039 -0.1538,0.2795 -0.3435,0.057 -0.7467,-0.875 z"
               id="path209-6-1"
               transform="matrix(0.26458332,0,0,0.26458332,150.79346,-112.0216)" /><path
               style="opacity:1;fill:#1d1d1d;fill-opacity:1;stroke:#1d1d1d;stroke-width:0.482954;stroke-linecap:round;stroke-linejoin:round;stroke-miterlimit:5.4;stroke-dasharray:none;stroke-opacity:1;paint-order:markers fill stroke"
               d="m 1992.4501,1610.6041 -27.0468,-0.1852 v -102.413 -102.4129 l 9.0156,-0.4598 c 16.3889,-0.8359 44.728,-0.5731 45.1052,0.4183 0.1849,0.4861 0.2545,46.8635 0.1546,103.0608 l -0.1817,102.1769 z"
               id="path210-3-0"
               transform="matrix(0.26458332,0,0,0.26458332,150.79346,-112.0216)" /><path
               style="opacity:1;fill:#1d1d1d;fill-opacity:1;stroke:#1d1d1d;stroke-width:0.482954;stroke-linecap:round;stroke-linejoin:round;stroke-miterlimit:5.4;stroke-dasharray:none;stroke-opacity:1;paint-order:markers fill stroke"
               d="m 1946.9527,1607.0769 c -0.036,-1.8473 -0.071,-45.8382 -0.078,-97.7575 -0.01,-51.9193 -0.2514,-94.7169 -0.5438,-95.1058 -0.7152,-0.9516 -1.6995,-4.7347 -1.5178,-5.8337 0.08,-0.4861 -0.176,-0.8839 -0.5697,-0.8839 -0.3938,0 -0.5328,-0.4773 -0.3089,-1.0606 0.3357,-0.8748 2.1901,-1.0607 10.5844,-1.0607 h 10.1774 v 102.5305 102.5305 h -8.8389 -8.8388 z"
               id="path211-5-2"
               transform="matrix(0.26458332,0,0,0.26458332,150.79346,-112.0216)" /><path
               style="opacity:1;fill:#1d1d1d;fill-opacity:1;stroke:#1d1d1d;stroke-width:0.482954;stroke-linecap:round;stroke-linejoin:round;stroke-miterlimit:5.4;stroke-dasharray:none;stroke-opacity:1;paint-order:markers fill stroke"
               d="m 1946.5942,1499.0664 c 10e-4,-5.8337 0.1105,-8.1261 0.2434,-5.0942 0.1329,3.0318 0.132,7.8048 0,10.6066 -0.1339,2.8018 -0.2426,0.3212 -0.2416,-5.5124 z"
               id="path212-86-4"
               transform="matrix(0.26458332,0,0,0.26458332,150.79346,-112.0216)" /><path
               style="opacity:1;fill:#1d1d1d;fill-opacity:1;stroke:#1d1d1d;stroke-width:0.482954;stroke-linecap:round;stroke-linejoin:round;stroke-miterlimit:5.4;stroke-dasharray:none;stroke-opacity:1;paint-order:markers fill stroke"
               d="m 1928.5385,1592.5812 c -0.052,-10.2088 -0.107,-20.948 -0.1215,-23.8648 -0.014,-2.9168 0.224,-35.6117 0.5298,-72.6552 0.4078,-49.3804 0.3459,-67.352 -0.232,-67.352 -0.5279,0 -0.7882,-2.3781 -0.7882,-7.2014 0,-7.0232 -1.5793,-15.426 -2.8994,-15.426 -0.3254,0 -0.4331,-0.4133 -0.2393,-0.9184 0.5454,-1.4212 -4.6837,-8.9174 -9.1338,-13.0938 -2.203,-2.0676 -5.9909,-4.6781 -8.4176,-5.8012 l -4.4122,-2.042 3.5356,0.012 c 15.6503,0.053 23.7404,3.4476 31.4561,13.1978 3.1858,4.0259 4.7163,6.9142 6.6423,12.5346 1.4354,4.1888 1.4567,5.4924 1.677,102.7073 l 0.2231,98.4646 h -8.8623 -8.8624 z"
               id="path213-6-1"
               transform="matrix(0.26458332,0,0,0.26458332,150.79346,-112.0216)" /><path
               style="opacity:1;fill:#353535;fill-opacity:1;stroke:#353535;stroke-width:0.965908;stroke-linecap:round;stroke-linejoin:round;stroke-miterlimit:5.4;stroke-dasharray:none;stroke-opacity:1;paint-order:markers fill stroke"
               d="m 2020.2041,1507.5517 v -102.5305 h 146.3711 146.3711 v 102.5305 102.5304 h -146.3711 -146.3711 z"
               id="path214-0-0"
               transform="matrix(0.26458332,0,0,0.26458332,150.79346,-112.0216)" /><path
               style="opacity:1;fill:#363636;fill-opacity:1;stroke:#353535;stroke-width:0.965908;stroke-linecap:round;stroke-linejoin:round;stroke-miterlimit:5.4;stroke-dasharray:none;stroke-opacity:1;paint-order:markers fill stroke"
               d="m 2021.3002,1380.626 c -0.3116,-12.6395 -0.7092,-58.7783 -0.8836,-102.5305 l -0.317,-79.5495 h 133.2489 c 131.8176,0 133.3138,0.031 139.2901,2.9245 7.0681,3.4216 13.9561,10.8053 17.6342,18.9033 2.449,5.392 2.6133,11.2655 2.6424,94.4913 l 0.031,88.7419 h -145.5398 -145.5397 z"
               id="path215-5-4"
               transform="matrix(0.26458332,0,0,0.26458332,150.79346,-112.0216)" /></g></g><path
           style="fill:#181818;fill-opacity:1"
           d="m -65.258324,201.61453 c 0.181901,-0.0734 0.479557,-0.0734 0.661458,0 0.181901,0.0734 0.03307,0.13345 -0.330729,0.13345 -0.363802,0 -0.51263,-0.0601 -0.330729,-0.13345 z m 4.37066,-0.008 c 0.257431,-0.0671 0.614619,-0.0627 0.79375,0.01 0.179132,0.0725 -0.03149,0.12736 -0.468056,0.12197 -0.436563,-0.005 -0.583125,-0.0647 -0.325694,-0.13178 z m 51.5937486,0 c 0.257431,-0.0671 0.6146185,-0.0627 0.79375,0.01 0.1791315,0.0725 -0.031494,0.12736 -0.4680563,0.12197 -0.4365625,-0.005 -0.5831247,-0.0647 -0.3256937,-0.13178 z m 4.6251727,0.008 c 0.181901,-0.0734 0.4795573,-0.0734 0.6614583,0 0.181901,0.0734 0.033073,0.13345 -0.3307292,0.13345 -0.363802,0 -0.5126301,-0.0601 -0.3307291,-0.13345 z M 23.779,201.6064 c 0.257431,-0.0671 0.614619,-0.0627 0.79375,0.01 0.179132,0.0725 -0.03149,0.12736 -0.468056,0.12197 -0.436563,-0.005 -0.583125,-0.0647 -0.325694,-0.13178 z m 5.027083,0 c 0.257431,-0.0671 0.614619,-0.0627 0.79375,0.01 0.179132,0.0725 -0.03149,0.12736 -0.468056,0.12197 -0.436562,-0.005 -0.583124,-0.0647 -0.325694,-0.13178 z m 32.671006,0.008 c 0.181901,-0.0734 0.479557,-0.0734 0.661458,0 0.181901,0.0734 0.03307,0.13345 -0.330729,0.13345 -0.363802,0 -0.51263,-0.0601 -0.330729,-0.13345 z m 4.635243,-0.008 c 0.257431,-0.0671 0.614619,-0.0627 0.79375,0.01 0.179132,0.0725 -0.03149,0.12736 -0.468056,0.12197 -0.436562,-0.005 -0.583125,-0.0647 -0.325694,-0.13178 z m 56.483508,0.008 c 0.1819,-0.0734 0.47955,-0.0734 0.66146,0 0.1819,0.0734 0.0331,0.13345 -0.33073,0.13345 -0.36381,0 -0.51263,-0.0601 -0.33073,-0.13345 z m 4.23333,0 c 0.1819,-0.0734 0.47956,-0.0734 0.66146,0 0.1819,0.0734 0.0331,0.13345 -0.33073,0.13345 -0.3638,0 -0.51263,-0.0601 -0.33073,-0.13345 z m 108.47916,0 c 0.1819,-0.0734 0.47956,-0.0734 0.66146,0 0.1819,0.0734 0.0331,0.13345 -0.33073,0.13345 -0.3638,0 -0.51263,-0.0601 -0.33073,-0.13345 z m 4.49792,0 c 0.1819,-0.0734 0.47956,-0.0734 0.66146,0 0.1819,0.0734 0.0331,0.13345 -0.33073,0.13345 -0.3638,0 -0.51263,-0.0601 -0.33073,-0.13345 z m 26.72292,0 c 0.1819,-0.0734 0.47955,-0.0734 0.66145,0 0.18191,0.0734 0.0331,0.13345 -0.33072,0.13345 -0.36381,0 -0.51264,-0.0601 -0.33073,-0.13345 z m 4.89479,-0.007 c 0.25466,-0.0666 0.67138,-0.0666 0.92604,0 0.25466,0.0666 0.0463,0.121 -0.46302,0.121 -0.50932,0 -0.71768,-0.0545 -0.46302,-0.121 z M 59.906125,201.34443 c 0.190996,-0.0764 0.419199,-0.067 0.507118,0.0209 0.08792,0.0879 -0.06835,0.15045 -0.347265,0.13896 -0.308225,-0.0127 -0.37092,-0.0754 -0.159853,-0.15985 z m -98.520233,-10.53488 c 8.2e-5,-5.38427 0.03536,-7.54938 0.0784,-4.81134 0.04304,2.73803 0.04297,7.14334 -1.49e-4,9.78958 -0.04312,2.64624 -0.07833,0.40603 -0.07825,-4.97824 z m -114.029802,-9.26042 c -3e-5,-10.33198 0.0328,-14.5972 0.073,-9.47828 0.0402,5.11892 0.0402,13.57236 4e-5,18.78541 -0.0401,5.21306 -0.073,1.02485 -0.073,-9.30713 z m 65.8812,0.13229 c 0,-10.25921 0.03286,-14.45617 0.07303,-9.32656 0.04016,5.12961 0.04016,13.52352 0,18.65313 -0.04016,5.1296 -0.07303,0.93265 -0.07303,-9.32657 z m 385.50009,-9.12812 c 2e-5,-15.27969 0.0319,-21.49159 0.0709,-13.80424 0.039,7.68736 0.039,20.18892 -2e-5,27.78125 -0.039,7.59233 -0.0709,1.30268 -0.0709,-13.97701 z M 131.7557,197.02726 c 0,-1.52797 0.0437,-2.15305 0.0972,-1.38907 0.0534,0.76399 0.0534,2.01414 0,2.77813 -0.0534,0.76398 -0.0972,0.1389 -0.0972,-1.38906 z m -81.734289,-0.59532 -1.045884,-1.12448 1.124479,1.04589 c 1.045754,0.97266 1.246061,1.20307 1.045884,1.20307 -0.04323,0 -0.549243,-0.50601 -1.124479,-1.12448 z m 206.097719,0.52917 -0.50403,-0.59531 0.59532,0.50403 c 0.55944,0.47366 0.71576,0.68659 0.50402,0.68659 -0.0502,0 -0.31809,-0.26789 -0.59531,-0.59531 z M 7.5682361,196.3658 c 0.4936552,-0.50933 0.9570861,-0.92604 1.0298466,-0.92604 0.07276,0 -0.2716081,0.41671 -0.7652633,0.92604 -0.4936552,0.50932 -0.9570861,0.92604 -1.0298465,0.92604 -0.072761,0 0.271608,-0.41672 0.7652632,-0.92604 z m 216.5448039,0.0661 -0.7771,-0.85989 0.85989,0.7771 c 0.80155,0.72437 0.98152,0.94269 0.77711,0.94269 -0.0455,0 -0.43249,-0.38695 -0.8599,-0.8599 z m 46.64946,-1.44817 c 0.47294,-0.0587 1.24685,-0.0587 1.71979,0 0.47294,0.0587 0.086,0.10672 -0.8599,0.10672 -0.94588,0 -1.33283,-0.048 -0.85989,-0.10672 z m -332.04899,-0.26031 c 0.329119,-0.0633 0.805369,-0.0609 1.058334,0.005 0.252965,0.0662 -0.01631,0.118 -0.598398,0.11507 -0.582083,-0.003 -0.789054,-0.0571 -0.459936,-0.12041 z m 54.6333724,0.005 c 0.2546614,-0.0665 0.6713801,-0.0665 0.9260416,0 0.2546614,0.0666 0.046302,0.121 -0.4630208,0.121 -0.5093229,0 -0.7176823,-0.0545 -0.4630208,-0.121 z m 70.7791246,-0.005 c 0.329118,-0.0633 0.805368,-0.0609 1.058333,0.005 0.252965,0.0662 -0.01631,0.118 -0.598397,0.11507 -0.582084,-0.003 -0.789055,-0.0571 -0.459936,-0.12041 z m 63.369653,0.004 c 0.25743,-0.0671 0.61462,-0.0627 0.79375,0.01 0.17914,0.0725 -0.0315,0.12736 -0.46805,0.12197 -0.43656,-0.005 -0.58313,-0.0647 -0.3257,-0.13177 z m 111.91372,9.7e-4 c 0.25466,-0.0665 0.67138,-0.0665 0.92604,0 0.25466,0.0666 0.0463,0.121 -0.46302,0.121 -0.50933,0 -0.71769,-0.0545 -0.46302,-0.121 z M 32.703652,193.75236 c 0,-0.0549 0.208359,-0.2633 0.463021,-0.46302 0.419644,-0.32911 0.429002,-0.31975 0.09989,0.0999 -0.345644,0.44072 -0.562916,0.58088 -0.562916,0.36312 z m 134.888768,-0.62742 c 2.81085,-0.0429 7.33523,-0.0428 10.05416,1.4e-4 2.71894,0.043 0.41915,0.0781 -5.11064,0.078 -5.52979,-8e-5 -7.75438,-0.0352 -4.94352,-0.0781 z m -237.037957,-1.58779 -0.641433,-0.7276 0.727604,0.64143 c 0.680056,0.59952 0.848939,0.81378 0.641433,0.81378 -0.04739,0 -0.374816,-0.32743 -0.727604,-0.72761 z M 122.68287,190.7875 c 0.0127,-0.30823 0.0754,-0.37092 0.15985,-0.15985 0.0764,0.19099 0.067,0.4192 -0.0209,0.50711 -0.0879,0.0879 -0.15046,-0.0684 -0.13897,-0.34726 z m -0.22769,-11.14098 c -0.0318,-5.41207 0.0315,-9.89543 0.14066,-9.96304 0.18065,-0.11191 0.17617,7.67632 -0.009,16.36357 -0.0404,1.89177 -0.0995,-0.98847 -0.13125,-6.40053 z m -255.11611,8.81009 c 0,-0.0572 0.18478,-0.17489 0.41062,-0.26156 0.23546,-0.0904 0.34166,-0.046 0.24897,0.10399 -0.15538,0.2514 -0.65959,0.37185 -0.65959,0.15757 z m 165.60914,-0.62362 -0.641433,-0.72761 0.727604,0.64143 c 0.400182,0.35279 0.727604,0.68021 0.727604,0.72761 0,0.2075 -0.214259,0.0386 -0.813775,-0.64143 z m -20.067419,-2.60174 c 0.0127,-0.30823 0.07539,-0.37092 0.159852,-0.15985 0.07643,0.19099 0.06703,0.4192 -0.02089,0.50712 -0.08792,0.0879 -0.150453,-0.0684 -0.138964,-0.34727 z m 206.131299,-0.11024 c 0,-0.36381 0.06,-0.51263 0.13345,-0.33073 0.0734,0.1819 0.0734,0.47955 0,0.66146 -0.0734,0.1819 -0.13345,0.0331 -0.13345,-0.33073 z m 32.02439,-0.39688 c 0.005,-0.43656 0.0647,-0.58312 0.13177,-0.32569 0.0671,0.25743 0.0627,0.61462 -0.01,0.79375 -0.0725,0.17913 -0.12737,-0.0315 -0.12197,-0.46806 z m -277.018746,-0.26458 c 0.0054,-0.43656 0.06469,-0.58313 0.131774,-0.3257 0.06708,0.25744 0.06267,0.61462 -0.0098,0.79375 -0.07248,0.17914 -0.127362,-0.0315 -0.12197,-0.46805 z m 100.775555,0.24253 c 0.0127,-0.30822 0.07539,-0.37092 0.159852,-0.15985 0.07643,0.191 0.06703,0.4192 -0.02089,0.50712 -0.08792,0.0879 -0.150453,-0.0684 -0.138964,-0.34727 z m 153.193741,0 c 0.0127,-0.30822 0.0754,-0.37092 0.15986,-0.15985 0.0764,0.191 0.067,0.4192 -0.0209,0.50712 -0.0879,0.0879 -0.15045,-0.0684 -0.13897,-0.34727 z M 83.819814,184.19496 c 0.0054,-0.43656 0.06469,-0.58312 0.131774,-0.32569 0.06708,0.25743 0.06267,0.61462 -0.0098,0.79375 -0.07248,0.17913 -0.127362,-0.0315 -0.12197,-0.46806 z m -100.806247,-0.26458 c 0.0054,-0.43656 0.06469,-0.58312 0.131774,-0.32569 0.06708,0.25743 0.06267,0.61462 -0.0098,0.79375 -0.07248,0.17913 -0.127362,-0.0315 -0.12197,-0.46806 z m -64.789809,-1.45521 c 0,-0.94588 0.04802,-1.33284 0.106712,-0.85989 0.05869,0.47294 0.05869,1.24685 0,1.71979 -0.05869,0.47294 -0.106712,0.086 -0.106712,-0.8599 z m 85.956475,0.92604 c 0.00539,-0.43656 0.06469,-0.58312 0.1317737,-0.32569 0.067083,0.25743 0.062672,0.61462 -0.0098,0.79375 -0.072475,0.17913 -0.1273619,-0.0315 -0.1219698,-0.46806 z m 40.511655,-1.32291 c 0.0015,-0.87313 0.05088,-1.19842 0.109765,-0.72287 0.05889,0.47555 0.05767,1.18993 -0.0027,1.5875 -0.06037,0.39758 -0.10855,0.008 -0.107065,-0.86463 z M 285.7432,180.88767 c 0,-1.52797 0.0437,-2.15304 0.0972,-1.38906 0.0534,0.76399 0.0534,2.01414 0,2.77813 -0.0534,0.76398 -0.0972,0.1389 -0.0972,-1.38907 z m -272.52976,0.52917 c 0,-1.09141 0.0467,-1.53789 0.103787,-0.99219 0.05708,0.54571 0.05708,1.43867 0,1.98438 -0.05708,0.5457 -0.103787,0.0992 -0.103787,-0.99219 z m 40.471581,0.52917 c 0,-0.80037 0.0496,-1.12779 0.110223,-0.72761 0.06062,0.40018 0.06062,1.05503 0,1.45521 -0.06062,0.40018 -0.110223,0.0728 -0.110223,-0.7276 z m -126.50834,0 c 0,-0.36381 0.06005,-0.51263 0.133453,-0.33073 0.0734,0.1819 0.0734,0.47955 0,0.66146 -0.0734,0.1819 -0.133453,0.0331 -0.133453,-0.33073 z m 77.0133559,-0.26459 c 0,-0.50932 0.05445,-0.71768 0.121,-0.46302 0.06655,0.25466 0.06655,0.67138 0,0.92604 -0.06655,0.25467 -0.121,0.0463 -0.121,-0.46302 z m -21.1764699,-1.98437 c 0.0054,-0.43656 0.06469,-0.58313 0.131774,-0.3257 0.06708,0.25744 0.06267,0.61462 -0.0098,0.79375 -0.07248,0.17914 -0.127362,-0.0315 -0.12197,-0.46805 z m 236.008323,0 c 0.005,-0.43656 0.0647,-0.58313 0.13178,-0.3257 0.0671,0.25744 0.0627,0.61462 -0.01,0.79375 -0.0725,0.17914 -0.12736,-0.0315 -0.12197,-0.46805 z M 4.149541,179.675 c 0.012696,-0.30822 0.075391,-0.37092 0.1598524,-0.15985 0.07643,0.19099 0.067031,0.4192 -0.020888,0.50712 -0.087919,0.0879 -0.1504528,-0.0684 -0.1389644,-0.34727 z m 246.896739,-0.37483 c 0,-0.50932 0.0545,-0.71768 0.121,-0.46302 0.0666,0.25466 0.0666,0.67138 0,0.92604 -0.0666,0.25467 -0.121,0.0463 -0.121,-0.46302 z m -23.05925,0.11025 c 0.0127,-0.30823 0.0754,-0.37092 0.15986,-0.15986 0.0764,0.191 0.067,0.4192 -0.0209,0.50712 -0.0879,0.0879 -0.15045,-0.0683 -0.13897,-0.34726 z m -266.435404,-0.26459 c 0.0127,-0.30822 0.07539,-0.37092 0.159852,-0.15985 0.07643,0.191 0.06703,0.4192 -0.02089,0.50712 -0.08792,0.0879 -0.150453,-0.0684 -0.138964,-0.34727 z M 83.81001,178.77101 c 0,-0.36381 0.06005,-0.51263 0.133452,-0.33073 0.0734,0.1819 0.0734,0.47955 0,0.66146 -0.0734,0.1819 -0.133452,0.0331 -0.133452,-0.33073 z m -9.016721,-0.15434 c 0.0127,-0.30823 0.07539,-0.37092 0.159852,-0.15986 0.07643,0.191 0.06703,0.4192 -0.02089,0.50712 -0.08792,0.0879 -0.150453,-0.0684 -0.138964,-0.34726 z m -29.897916,-0.79375 c 0.0127,-0.30823 0.07539,-0.37092 0.159853,-0.15986 0.07643,0.191 0.06703,0.4192 -0.02089,0.50712 -0.08792,0.0879 -0.150452,-0.0683 -0.138964,-0.34726 z m 240.506247,-1.5875 c 0.0127,-0.30823 0.0754,-0.37092 0.15985,-0.15986 0.0764,0.191 0.067,0.4192 -0.0209,0.50712 -0.0879,0.0879 -0.15045,-0.0684 -0.13896,-0.34726 z m -354.827132,-3.91431 c 0,-0.0549 0.20836,-0.2633 0.463021,-0.46302 0.419644,-0.32911 0.429002,-0.31975 0.0999,0.0999 -0.345644,0.44073 -0.562916,0.58088 -0.562916,0.36312 z m 34.395833,-0.82614 c 0.341774,-0.36381 0.680939,-0.66146 0.753699,-0.66146 0.07276,0 -0.147342,0.29765 -0.489116,0.66146 -0.341774,0.3638 -0.680939,0.66145 -0.753699,0.66145 -0.07276,0 0.147341,-0.29765 0.489116,-0.66145 z m 21.828124,-0.39688 c 0.263389,-0.29104 0.538421,-0.52917 0.611181,-0.52917 0.07276,0 -0.08321,0.23813 -0.346598,0.52917 -0.263389,0.29104 -0.53842,0.52917 -0.611181,0.52917 -0.07276,0 0.08321,-0.23813 0.346598,-0.52917 z m -25.475397,-4.96094 0.05689,-3.37343 0.08388,3.11922 c 0.06358,2.36413 0.161892,3.07239 0.406127,2.92577 0.20302,-0.12187 0.187894,-0.0278 -0.04088,0.25422 -0.19972,0.24621 -0.408079,0.44766 -0.463021,0.44766 -0.05494,0 -0.07429,-1.51805 -0.043,-3.37344 z m 170.434822,-0.0661 c 0,-1.67349 0.043,-2.3581 0.0955,-1.52136 0.0525,0.83675 0.0525,2.20597 0,3.04271 -0.0525,0.83675 -0.0955,0.15214 -0.0955,-1.52135 z m -153.558383,2.28135 c 0,-0.0549 0.208359,-0.2633 0.463021,-0.46302 0.419644,-0.32911 0.429002,-0.31975 0.0999,0.0999 -0.345644,0.44073 -0.562916,0.58088 -0.562916,0.36312 z m 51.014972,-0.0808 c 0.190997,-0.0764 0.4192,-0.067 0.507118,0.0209 0.08792,0.0879 -0.06835,0.15046 -0.347265,0.13897 -0.308225,-0.0127 -0.370919,-0.0754 -0.159853,-0.15985 z m 4.7625,0 c 0.190996,-0.0764 0.419199,-0.067 0.507118,0.0209 0.08792,0.0879 -0.06835,0.15046 -0.347265,0.13897 -0.308225,-0.0127 -0.370919,-0.0754 -0.159853,-0.15985 z m 16.189193,-1.27447 c 0.341774,-0.3638 0.680939,-0.66146 0.753699,-0.66146 0.07276,0 -0.147342,0.29766 -0.489116,0.66146 -0.341774,0.3638 -0.680939,0.66146 -0.7537,0.66146 -0.07276,0 0.147342,-0.29766 0.489117,-0.66146 z m -42.7426568,-0.72761 -1.0458841,-1.12447 1.1244792,1.04588 c 1.0457544,0.97266 1.2460618,1.20307 1.045884,1.20307 -0.043227,0 -0.5492429,-0.50601 -1.1244791,-1.12448 z m -82.5375482,0.0661 c 0.263389,-0.29104 0.53842,-0.52917 0.611181,-0.52917 0.07276,0 -0.08321,0.23813 -0.346598,0.52917 -0.263389,0.29104 -0.53842,0.52917 -0.611181,0.52917 -0.07276,0 0.08321,-0.23813 0.346598,-0.52917 z m -37.366477,-4.7625 c 0,-0.65484 0.0516,-0.92273 0.11466,-0.59531 0.0631,0.32742 0.0631,0.8632 0,1.19062 -0.0631,0.32743 -0.11466,0.0595 -0.11466,-0.59531 z m 235.05432,0.88195 c -0.097,-0.097 -0.17639,-2.58741 -0.17639,-5.53421 0,-3.39512 -0.0994,-5.40708 -0.2712,-5.4923 -0.14916,-0.074 -0.11939,-0.10393 0.0662,-0.0666 0.25555,0.0515 0.36942,1.42599 0.46963,5.66903 0.0728,3.0806 0.12237,5.60095 0.11025,5.60077 -0.0121,-1.9e-4 -0.10143,-0.0797 -0.19844,-0.17672 z m -275.51693,-2.33716 c 9.6e-4,-1.16416 0.0475,-1.6075 0.10337,-0.98519 0.0559,0.62231 0.0551,1.57481 -0.002,2.11667 -0.0568,0.54185 -0.10258,0.0327 -0.10162,-1.13148 z m 89.14506,1.53644 c 0.257431,-0.0671 0.614618,-0.0627 0.79375,0.01 0.179131,0.0725 -0.03149,0.12737 -0.468057,0.12197 -0.436562,-0.005 -0.583124,-0.0647 -0.325693,-0.13177 z m 4.625172,0.008 c 0.181901,-0.0734 0.479558,-0.0734 0.661459,0 0.181901,0.0734 0.03307,0.13345 -0.33073,0.13345 -0.363802,0 -0.51263,-0.0601 -0.330729,-0.13345 z m 29.120703,-0.006 c 0.190996,-0.0764 0.419199,-0.067 0.507118,0.0209 0.08792,0.0879 -0.06835,0.15045 -0.347266,0.13897 -0.308225,-0.0127 -0.370919,-0.0754 -0.159852,-0.15986 z m 2.645833,0 c 0.190996,-0.0764 0.419199,-0.067 0.507118,0.0209 0.08792,0.0879 -0.06835,0.15045 -0.347266,0.13897 -0.308224,-0.0127 -0.370919,-0.0754 -0.159852,-0.15986 z m 18.9062066,-0.003 c 0.257431,-0.0671 0.6146185,-0.0627 0.79375,0.01 0.1791315,0.0725 -0.031494,0.12737 -0.4680564,0.12197 -0.4365625,-0.005 -0.5831246,-0.0647 -0.3256936,-0.13177 z m 4.889756,0.008 c 0.181901,-0.0734 0.4795573,-0.0734 0.6614583,0 0.181901,0.0734 0.033073,0.13345 -0.3307291,0.13345 -0.3638021,0 -0.5126302,-0.0601 -0.3307292,-0.13345 z m 32.5437494,0 c 0.181901,-0.0734 0.479557,-0.0734 0.661458,0 0.181901,0.0734 0.03307,0.13345 -0.330729,0.13345 -0.363802,0 -0.51263,-0.0601 -0.330729,-0.13345 z m 4.635243,-0.008 c 0.257431,-0.0671 0.614619,-0.0627 0.79375,0.01 0.179132,0.0725 -0.03149,0.12737 -0.468056,0.12197 -0.436563,-0.005 -0.583125,-0.0647 -0.325694,-0.13177 z m 28.839583,0 c 0.257431,-0.0671 0.614618,-0.0627 0.79375,0.01 0.179131,0.0725 -0.03149,0.12737 -0.468057,0.12197 -0.436562,-0.005 -0.583124,-0.0647 -0.325693,-0.13177 z m 4.625173,0.008 c 0.181901,-0.0734 0.479557,-0.0734 0.661458,0 0.181901,0.0734 0.03307,0.13345 -0.330729,0.13345 -0.363802,0 -0.512631,-0.0601 -0.330729,-0.13345 z m 169.862491,0 c 0.1819,-0.0734 0.47956,-0.0734 0.66146,0 0.1819,0.0734 0.0331,0.13345 -0.33073,0.13345 -0.3638,0 -0.51263,-0.0601 -0.33073,-0.13345 z m 4.63525,-0.008 c 0.25743,-0.0671 0.61462,-0.0627 0.79375,0.01 0.17913,0.0725 -0.0315,0.12737 -0.46806,0.12197 -0.43656,-0.005 -0.58312,-0.0647 -0.32569,-0.13177 z m 25.52725,0.008 c 0.1819,-0.0734 0.47956,-0.0734 0.66146,0 0.1819,0.0734 0.0331,0.13345 -0.33073,0.13345 -0.3638,0 -0.51263,-0.0601 -0.33073,-0.13345 z m 3.96875,0 c 0.1819,-0.0734 0.47956,-0.0734 0.66146,0 0.1819,0.0734 0.0331,0.13345 -0.33073,0.13345 -0.3638,0 -0.51263,-0.0601 -0.33073,-0.13345 z M 90.403705,153.74583 c 0.0127,-0.30822 0.07539,-0.37091 0.159853,-0.15985 0.07643,0.191 0.06703,0.4192 -0.02089,0.50712 -0.08792,0.0879 -0.150452,-0.0683 -0.138963,-0.34727 z m -185.386646,-0.70555 -0.504028,-0.59531 0.595312,0.50402 c 0.559447,0.47367 0.715762,0.6866 0.504028,0.6866 -0.05021,0 -0.318097,-0.26789 -0.595312,-0.59531 z m 7.698055,0.0661 c 0.263389,-0.29104 0.53842,-0.52916 0.611181,-0.52916 0.07276,0 -0.08321,0.23812 -0.346598,0.52916 -0.263389,0.29105 -0.53842,0.52917 -0.611181,0.52917 -0.07276,0 0.08321,-0.23812 0.346598,-0.52917 z m 196.555076,-5.55624 c 0,-1.81902 0.0423,-2.56316 0.0939,-1.65365 0.0517,0.9095 0.0517,2.39779 0,3.30729 -0.0517,0.90951 -0.0939,0.16537 -0.0939,-1.65364 z m -200.719179,-2.83297 c 0.329119,-0.0633 0.805369,-0.0609 1.058334,0.005 0.252964,0.0662 -0.01631,0.11801 -0.598398,0.11507 -0.582083,-0.003 -0.789054,-0.0571 -0.459936,-0.12041 z m 383.919879,-0.53908 c 1.20746,-0.0491 3.11246,-0.0489 4.23334,6e-4 1.12087,0.0495 0.13296,0.0897 -2.19538,0.0893 -2.32833,-3.3e-4 -3.24541,-0.0408 -2.03796,-0.0899 z"
           id="path222-5-7" /><path
           style="fill:#181818;fill-opacity:1"
           d="m 98.973334,185.38559 c 0,-8.36745 0.03349,-11.79049 0.07442,-7.60677 0.04093,4.18372 0.04093,11.02982 0,15.21354 -0.04093,4.18372 -0.07442,0.76068 -0.07442,-7.60677 z m 84.379236,11.50937 c 5.3e-4,-1.74625 0.0434,-2.42619 0.0952,-1.51098 0.0518,0.91521 0.0514,2.34396 -9.5e-4,3.175 -0.0523,0.83104 -0.0947,0.0822 -0.0942,-1.66402 z m -21.1516,-11.50937 c 0,-4.00182 0.0368,-5.63893 0.0817,-3.63802 0.045,2.00091 0.045,5.27513 0,7.27604 -0.045,2.00091 -0.0817,0.3638 -0.0817,-3.63802 z m 97.55695,-0.79375 c 0,-0.3638 0.0601,-0.51263 0.13345,-0.33073 0.0734,0.1819 0.0734,0.47956 0,0.66146 -0.0734,0.1819 -0.13345,0.0331 -0.13345,-0.33073 z m -332.602127,-0.94809 c 0.0127,-0.30822 0.07539,-0.37092 0.159853,-0.15985 0.07643,0.19099 0.06703,0.4192 -0.02089,0.50712 -0.08792,0.0879 -0.150453,-0.0684 -0.138965,-0.34727 z m 46.897181,-1.56545 c 0.0012,-1.01865 0.049,-1.40295 0.106272,-0.854 0.05728,0.54895 0.05632,1.38239 -0.0021,1.85209 -0.05845,0.46969 -0.105312,0.0205 -0.104138,-0.99809 z m 253.709976,-0.13229 c 0,-0.50933 0.0545,-0.71769 0.121,-0.46302 0.0666,0.25466 0.0666,0.67138 0,0.92604 -0.0666,0.25466 -0.121,0.0463 -0.121,-0.46302 z M 57.045318,171.52736 c 0,-0.0549 0.208359,-0.2633 0.463021,-0.46302 0.419644,-0.32911 0.429002,-0.31975 0.0999,0.0999 -0.345644,0.44073 -0.562916,0.58088 -0.562916,0.36312 z m 105.155132,-8.89594 c 0,-3.8563 0.037,-5.43388 0.0822,-3.50572 0.0452,1.92815 0.0452,5.0833 0,7.01145 -0.0452,1.92815 -0.0822,0.35058 -0.0822,-3.50573 z m 106.70997,5.38103 c 0.1819,-0.0734 0.47955,-0.0734 0.66145,0 0.18191,0.0734 0.0331,0.13345 -0.33072,0.13345 -0.36381,0 -0.51264,-0.0601 -0.33073,-0.13345 z M 98.948455,159.32413 c 5.97e-4,-1.60073 0.04418,-2.22146 0.09684,-1.3794 0.05267,0.84206 0.05218,2.15175 -0.0011,2.91042 -0.05326,0.75867 -0.09635,0.0697 -0.09576,-1.53102 z m -211.184885,0 c 0.005,-0.43656 0.0647,-0.58312 0.13177,-0.32569 0.0671,0.25743 0.0627,0.61462 -0.01,0.79375 -0.0725,0.17913 -0.12736,-0.0315 -0.12197,-0.46806 z m 216.70831,-9.05305 c 0.40018,-0.0606 1.05503,-0.0606 1.45521,0 0.40018,0.0606 0.0728,0.11023 -0.72761,0.11023 -0.80036,0 -1.12778,-0.0496 -0.7276,-0.11023 z"
           id="path221-6-9" /><path
           style="fill:#181818;fill-opacity:1"
           d="m -63.538533,201.60025 c 0.400183,-0.0606 1.055026,-0.0606 1.455209,0 0.400182,0.0606 0.07276,0.11022 -0.727604,0.11022 -0.800365,0 -1.127787,-0.0496 -0.727605,-0.11022 z m 55.9641122,-0.002 c 0.4755488,-0.0589 1.1899238,-0.0577 1.5874999,0.003 0.3975761,0.0604 0.00849,0.10855 -0.8646342,0.10707 -0.873125,-10e-4 -1.1984146,-0.0509 -0.7228657,-0.10977 z m 33.3374988,0 c 0.475549,-0.0589 1.189924,-0.0577 1.5875,0.003 0.397576,0.0604 0.0085,0.10855 -0.864634,0.10707 -0.873125,-10e-4 -1.198415,-0.0509 -0.722866,-0.10977 z m 37.301511,3.6e-4 c 0.472942,-0.0587 1.246849,-0.0587 1.719791,0 0.472943,0.0587 0.08599,0.10671 -0.859896,0.10671 -0.945885,0 -1.332838,-0.048 -0.859895,-0.10671 z m 61.519261,0.002 c 0.40218,-0.0608 0.9975,-0.0592 1.32292,0.004 0.32542,0.0628 -0.004,0.11256 -0.73125,0.11057 -0.7276,-0.002 -0.99385,-0.0534 -0.59167,-0.11418 z m 112.70886,3.5e-4 c 0.40018,-0.0606 1.05502,-0.0606 1.45521,0 0.40018,0.0606 0.0728,0.11022 -0.72761,0.11022 -0.80036,0 -1.12778,-0.0496 -0.7276,-0.11022 z m 31.08854,-0.002 c 0.47294,-0.0587 1.24685,-0.0587 1.71979,0 0.47294,0.0587 0.086,0.10671 -0.85989,0.10671 -0.94589,0 -1.33284,-0.048 -0.8599,-0.10671 z M 53.626623,179.93958 c 0.0127,-0.30822 0.07539,-0.37092 0.159852,-0.15985 0.07643,0.191 0.06703,0.4192 -0.02089,0.50712 -0.08792,0.0879 -0.150453,-0.0683 -0.138964,-0.34727 z m 113.154627,-9.83325 c 2.51024,-0.0435 6.61789,-0.0435 9.12813,0 2.51023,0.0435 0.4564,0.0791 -4.56407,0.0791 -5.02046,0 -7.07429,-0.0356 -4.56406,-0.0791 z M -25.137295,166.2033 c 4.63e-4,-1.89177 0.04261,-2.63096 0.09365,-1.64264 0.05105,0.98831 0.05067,2.53613 -8.41e-4,3.43958 -0.05151,0.90345 -0.09327,0.0948 -0.09281,-1.79694 z m -36.676708,-4.55738 c 0.475549,-0.0589 1.189924,-0.0577 1.5875,0.003 0.397577,0.0604 0.0085,0.10855 -0.864634,0.10707 -0.873125,-0.001 -1.198414,-0.0509 -0.722866,-0.10977 z m 32.935886,0.009 c 0.254661,-0.0666 0.67138,-0.0666 0.926042,0 0.254661,0.0665 0.0463,0.121 -0.463021,0.121 -0.509323,0 -0.717682,-0.0545 -0.463021,-0.121 z m 22.3620295,-0.009 c 0.4755488,-0.0589 1.1899238,-0.0577 1.5874999,0.003 0.3975761,0.0604 0.00849,0.10855 -0.8646342,0.10707 -0.873125,-0.001 -1.1984146,-0.0509 -0.7228657,-0.10977 z m 37.3062485,0 c 0.475549,-0.0589 1.189924,-0.0577 1.5875,0.003 0.397576,0.0604 0.0085,0.10855 -0.864634,0.10707 -0.873125,-0.001 -1.198414,-0.0509 -0.722866,-0.10977 z m 33.337499,0 c 0.475549,-0.0589 1.189924,-0.0577 1.5875,0.003 0.397576,0.0604 0.0085,0.10855 -0.864634,0.10707 -0.873125,-0.001 -1.198414,-0.0509 -0.722866,-0.10977 z m 174.625,0 c 0.47554,-0.0589 1.18992,-0.0577 1.5875,0.003 0.39757,0.0604 0.008,0.10855 -0.86464,0.10707 -0.87312,-0.001 -1.19841,-0.0509 -0.72286,-0.10977 z m 30.02546,0.002 c 0.40019,-0.0606 1.05503,-0.0606 1.45521,0 0.40018,0.0606 0.0728,0.11022 -0.7276,0.11022 -0.80037,0 -1.12779,-0.0496 -0.72761,-0.11022 z M 167.19543,155.0247 c 2.73804,-0.043 7.14335,-0.043 9.78958,1.5e-4 2.64624,0.0431 0.40603,0.0783 -4.97824,0.0782 -5.38427,-8e-5 -7.54937,-0.0354 -4.81134,-0.0784 z"
           id="path220-9-1" /><path
           style="fill:#181818;fill-opacity:1"
           d="m -112.42725,181.54913 c -2e-5,-10.33198 0.0328,-14.5972 0.073,-9.47828 0.0402,5.11892 0.0402,13.57236 5e-5,18.78541 -0.0401,5.21306 -0.073,1.02485 -0.073,-9.30713 z m 361.13286,13.89063 c 0,-1.81901 0.0423,-2.56316 0.0939,-1.65365 0.0517,0.90951 0.0517,2.39779 0,3.30729 -0.0517,0.90951 -0.0939,0.16537 -0.0939,-1.65364 z m -325.294897,0.85989 -0.641433,-0.7276 0.727604,0.64143 c 0.680056,0.59952 0.848939,0.81378 0.641433,0.81378 -0.04739,0 -0.374815,-0.32743 -0.727604,-0.72761 z m 154.272104,0.64482 c 0,-0.0455 0.386953,-0.43249 0.859896,-0.8599 l 0.859896,-0.77711 -0.777105,0.8599 c -0.724371,0.80154 -0.942687,0.98151 -0.942687,0.77711 z M 0.68906963,192.42944 c 0,-0.0549 0.20835937,-0.2633 0.46302087,-0.46302 0.4196438,-0.3291 0.4290022,-0.31975 0.099895,0.0999 -0.34564367,0.44073 -0.56291567,0.58089 -0.56291587,0.36312 z M 231.1074,191.53715 c -0.32911,-0.41964 -0.31975,-0.429 0.0999,-0.0999 0.25466,0.19972 0.46302,0.40808 0.46302,0.46302 0,0.21776 -0.21727,0.0776 -0.56291,-0.36313 z m 31.22083,0 c -0.32911,-0.41964 -0.31975,-0.429 0.0999,-0.0999 0.25467,0.19972 0.46303,0.40808 0.46303,0.46302 0,0.21776 -0.21728,0.0776 -0.56292,-0.36313 z M 219.055,182.47517 c 0,-0.94588 0.048,-1.33284 0.10671,-0.85989 0.0587,0.47294 0.0587,1.24685 0,1.71979 -0.0587,0.47294 -0.10671,0.086 -0.10671,-0.8599 z m 32.01672,-0.66146 c 0.001,-1.01864 0.049,-1.40294 0.10627,-0.85399 0.0573,0.54895 0.0563,1.38239 -0.002,1.85208 -0.0584,0.4697 -0.10531,0.0206 -0.10413,-0.99809 z M 83.857188,181.41684 c 0,-1.09141 0.0467,-1.53789 0.103786,-0.99219 0.05708,0.54571 0.05708,1.43867 0,1.98438 -0.05708,0.5457 -0.103786,0.0992 -0.103786,-0.99219 z m -101.0984,0.52917 c 0,-0.50933 0.05445,-0.71769 0.121,-0.46302 0.06655,0.25466 0.06655,0.67138 0,0.92604 -0.06655,0.25466 -0.121,0.0463 -0.121,-0.46302 z m 302.642832,-4.65226 c 0.0127,-0.30822 0.0754,-0.37092 0.15985,-0.15985 0.0764,0.19099 0.067,0.4192 -0.0209,0.50712 -0.0879,0.0879 -0.15045,-0.0684 -0.13896,-0.34727 z M 15.849605,172.95017 c 0,-0.80036 0.0496,-1.12778 0.110223,-0.7276 0.06062,0.40018 0.06062,1.05503 0,1.45521 -0.06062,0.40018 -0.110223,0.0728 -0.110223,-0.72761 z m 8.438961,-0.13229 c 0.0054,-0.43656 0.06469,-0.58312 0.131773,-0.32569 0.06708,0.25743 0.06267,0.61462 -0.0098,0.79375 -0.07248,0.17913 -0.127362,-0.0315 -0.12197,-0.46806 z m 224.420224,-5.42396 c 0,-2.11005 0.0411,-2.97325 0.0913,-1.91822 0.0502,1.05502 0.0502,2.78143 0,3.83645 -0.0502,1.05503 -0.0913,0.19183 -0.0913,-1.91823 z m -164.841584,-1.4552 c 5.97e-4,-1.60073 0.04418,-2.22146 0.09684,-1.37941 0.05267,0.84206 0.05218,2.15175 -0.0011,2.91042 -0.05326,0.75867 -0.09635,0.0697 -0.09576,-1.53101 z m -5.010408,1.12447 -0.777106,-0.85989 0.859896,0.7771 c 0.472943,0.42741 0.859896,0.81437 0.859896,0.8599 0,0.20441 -0.218315,0.0244 -0.942686,-0.77711 z m 177.155182,0.51253 c 0,-0.0455 0.38695,-0.43249 0.85989,-0.8599 l 0.8599,-0.7771 -0.7771,0.85989 c -0.72438,0.80154 -0.94269,0.98151 -0.94269,0.77711 z m 24.5725,-1.70315 c -0.32911,-0.41964 -0.31975,-0.429 0.0999,-0.0999 0.44073,0.34564 0.58089,0.56291 0.36313,0.56291 -0.0549,0 -0.2633,-0.20836 -0.46302,-0.46302 z m -98.55482,-14.48594 c 5.2e-4,-1.74625 0.0433,-2.42619 0.0951,-1.51098 0.0518,0.91521 0.0514,2.34396 -9.5e-4,3.175 -0.0523,0.83104 -0.0947,0.0822 -0.0942,-1.66402 z"
           id="path219-3-7" /><path
           style="fill:#181818;fill-opacity:1"
           d="m -103.69413,174.1408 c 1e-5,-14.40656 0.032,-20.26133 0.0712,-13.01059 0.0391,7.25073 0.0391,19.03792 -3e-5,26.19375 -0.0391,7.15582 -0.0712,1.2234 -0.0712,-13.18316 z m 194.200864,10.84791 c -3.6e-5,-8.4402 0.03341,-11.93128 0.07433,-7.75795 0.04091,4.17334 0.04094,11.07896 6.6e-5,15.34584 -0.04088,4.26687 -0.07436,0.85232 -0.07439,-7.58789 z m 150.638966,9.74114 c 0.191,-0.0764 0.4192,-0.067 0.50712,0.0209 0.0879,0.0879 -0.0683,0.15045 -0.34726,0.13896 -0.30823,-0.0127 -0.37092,-0.0754 -0.15986,-0.15985 z M 75.098368,181.68142 c 0,-0.50932 0.05445,-0.71768 0.121,-0.46302 0.06655,0.25466 0.06655,0.67138 0,0.92604 -0.06655,0.25467 -0.121,0.0463 -0.121,-0.46302 z m -56.702241,-1.78593 -0.641433,-0.72761 0.727604,0.64143 c 0.400183,0.35279 0.727604,0.68021 0.727604,0.72761 0,0.2075 -0.214259,0.0386 -0.813775,-0.64143 z m 22.343997,-13.16302 c 5.97e-4,-1.60073 0.04417,-2.22146 0.09684,-1.37941 0.05266,0.84206 0.05218,2.15175 -0.0011,2.91042 -0.05326,0.75867 -0.09635,0.0697 -0.09575,-1.53101 z m 44.956,2.58231 c 0.842058,-0.0527 2.151745,-0.0522 2.910416,10e-4 0.758671,0.0533 0.06972,0.0964 -1.531015,0.0958 -1.600729,-6e-4 -2.22146,-0.0442 -1.379401,-0.0968 z m 15.336176,-8.6e-4 c 1.12778,-0.0496 2.97325,-0.0496 4.10104,0 1.12778,0.0496 0.20505,0.0902 -2.05052,0.0902 -2.25558,0 -3.178311,-0.0406 -2.05052,-0.0902 z m 8.47632,8.6e-4 c 0.84206,-0.0527 2.15175,-0.0522 2.91042,10e-4 0.75867,0.0533 0.0697,0.0964 -1.53102,0.0958 -1.60072,-6e-4 -2.22146,-0.0442 -1.3794,-0.0968 z m 15.33618,-8.6e-4 c 1.12778,-0.0496 2.97325,-0.0496 4.10104,0 1.12778,0.0496 0.20505,0.0902 -2.05052,0.0902 -2.25558,0 -3.17831,-0.0406 -2.05052,-0.0902 z m -186.129636,-0.78883 c 0.475549,-0.0589 1.189924,-0.0577 1.5875,0.003 0.397576,0.0604 0.0085,0.10855 -0.864634,0.10706 -0.873125,-0.001 -1.198415,-0.0509 -0.722866,-0.10976 z m 54.2348434,3.5e-4 c 0.4729427,-0.0587 1.2468489,-0.0587 1.7197916,0 0.4729427,0.0587 0.08599,0.10671 -0.8598958,0.10671 -0.9458854,0 -1.3328385,-0.048 -0.8598958,-0.10671 z m 70.6437476,0 c 0.472943,-0.0587 1.246849,-0.0587 1.719792,0 0.472943,0.0587 0.08599,0.10671 -0.859896,0.10671 -0.945885,0 -1.332838,-0.048 -0.859896,-0.10671 z m 175.952655,-3.5e-4 c 0.47554,-0.0589 1.18992,-0.0577 1.5875,0.003 0.39757,0.0604 0.008,0.10855 -0.86464,0.10706 -0.87312,-0.001 -1.19841,-0.0509 -0.72286,-0.10976 z m -220.997966,-2.1895 c 0.263389,-0.29104 0.538421,-0.52917 0.611181,-0.52917 0.07276,0 -0.08321,0.23813 -0.346598,0.52917 -0.263389,0.29104 -0.53842,0.52917 -0.61118,0.52917 -0.07276,0 0.08321,-0.23813 0.346597,-0.52917 z m 71.939517,-7.9375 c 0,-2.11005 0.04109,-2.97325 0.09131,-1.91823 0.05022,1.05503 0.05022,2.78143 0,3.83646 -0.05022,1.05503 -0.09131,0.19182 -0.09131,-1.91823 z M -91.452073,154.5187 c 0.181901,-0.0734 0.479557,-0.0734 0.661458,0 0.181901,0.0734 0.03307,0.13345 -0.330729,0.13345 -0.363802,0 -0.512631,-0.0601 -0.330729,-0.13345 z"
           id="path218-5-4" /><path
           style="fill:#181818;fill-opacity:1"
           d="m -95.229376,181.68142 c 0,-10.25921 0.03286,-14.45617 0.07303,-9.32656 0.04016,5.12961 0.04016,13.52352 0,18.65313 -0.04016,5.1296 -0.07303,0.93265 -0.07303,-9.32657 z M 290.27072,172.5533 c 1e-5,-15.27969 0.0319,-21.49159 0.0709,-13.80424 0.039,7.68736 0.039,20.18892 -2e-5,27.78125 -0.039,7.59233 -0.0709,1.30268 -0.0709,-13.97701 z M 15.874712,195.57205 c 4.13e-4,-2.03729 0.04195,-2.83576 0.0923,-1.77436 0.05035,1.06139 0.05001,2.72826 -7.51e-4,3.70416 -0.05076,0.9759 -0.09196,0.10749 -0.09154,-1.9298 z m 266.692238,-0.26459 c 6.8e-4,-1.4552 0.0451,-2.01676 0.0987,-1.2479 0.0536,0.76887 0.053,1.95949 -0.001,2.64584 -0.0543,0.68634 -0.0982,0.0573 -0.0975,-1.39794 z m -27.11789,0.72761 c -0.3291,-0.41965 -0.31975,-0.429 0.0999,-0.0999 0.44073,0.34565 0.58089,0.56292 0.36312,0.56292 -0.0549,0 -0.2633,-0.20836 -0.46302,-0.46302 z M 24.837334,195.2564 c 0.257431,-0.0671 0.614618,-0.0627 0.79375,0.01 0.179131,0.0725 -0.03149,0.12736 -0.468057,0.12197 -0.436562,-0.005 -0.583124,-0.0647 -0.325693,-0.13178 z m 2.645833,0 c 0.257431,-0.0671 0.614618,-0.0627 0.79375,0.01 0.179131,0.0725 -0.03149,0.12736 -0.468057,0.12197 -0.436562,-0.005 -0.583124,-0.0647 -0.325693,-0.13178 z m 15.099023,-5.10831 c 0,-1.09141 0.0467,-1.53789 0.103786,-0.99219 0.05708,0.54571 0.05708,1.43867 0,1.98438 -0.05708,0.5457 -0.103786,0.0992 -0.103786,-0.99219 z m 2.334071,-5.55625 c 0,-0.3638 0.06005,-0.51263 0.133452,-0.33073 0.0734,0.1819 0.0734,0.47956 0,0.66146 -0.0734,0.1819 -0.133452,0.0331 -0.133452,-0.33073 z m -32.03547,-0.41892 c 0.0127,-0.30823 0.07539,-0.37092 0.159852,-0.15986 0.07643,0.191 0.06703,0.4192 -0.02089,0.50712 -0.08792,0.0879 -0.150453,-0.0684 -0.138964,-0.34726 z m 32.014582,-4.7625 c 0.0127,-0.30823 0.07539,-0.37092 0.159853,-0.15986 0.07643,0.191 0.06703,0.4192 -0.02089,0.50712 -0.08792,0.0879 -0.150452,-0.0683 -0.138964,-0.34726 z m -31.993694,-0.63941 c 0,-0.36381 0.06005,-0.51263 0.133452,-0.33073 0.0734,0.1819 0.0734,0.47955 0,0.66146 -0.0734,0.1819 -0.133452,0.0331 -0.133452,-0.33073 z m 154.011861,-1.25633 c 2.43748,-0.0437 6.42607,-0.0437 8.86355,0 2.43747,0.0437 0.44317,0.0794 -4.43178,0.0794 -4.87494,0 -6.86924,-0.0357 -4.43177,-0.0794 z m -166.11731741,-6.48274 -0.50402794,-0.59531 0.59531248,0.50403 c 0.55944687,0.47366 0.71576157,0.6866 0.50402797,0.6866 -0.050207,0 -0.3180971,-0.26789 -0.59531251,-0.59532 z M 40.682928,170.03976 c 0,-0.3638 0.06005,-0.51263 0.133452,-0.33073 0.0734,0.1819 0.0734,0.47956 0,0.66146 -0.0734,0.1819 -0.133452,0.0331 -0.133452,-0.33073 z m -70.614343,-0.97711 c 0.257431,-0.0671 0.614619,-0.0627 0.79375,0.01 0.179132,0.0725 -0.03149,0.12736 -0.468056,0.12197 -0.436563,-0.005 -0.583125,-0.0647 -0.325694,-0.13178 z m 60.204208,-1.05572 c 0.190996,-0.0764 0.419199,-0.067 0.507118,0.0209 0.08792,0.0879 -0.06835,0.15045 -0.347266,0.13897 -0.308224,-0.0127 -0.370919,-0.0754 -0.159852,-0.15986 z m 2.364713,0.006 c 0.181901,-0.0734 0.479557,-0.0734 0.661459,0 0.181901,0.0734 0.03307,0.13345 -0.33073,0.13345 -0.363802,0 -0.51263,-0.0601 -0.330729,-0.13345 z M 234.53112,162.1861 c 0.191,-0.0764 0.4192,-0.067 0.50712,0.0209 0.0879,0.0879 -0.0684,0.15045 -0.34727,0.13896 -0.30822,-0.0127 -0.37092,-0.0754 -0.15985,-0.15985 z M -86.022198,149.66684 c 0,-0.65484 0.0516,-0.92273 0.114662,-0.59531 0.06306,0.32742 0.06306,0.8632 0,1.19062 -0.06306,0.32743 -0.114662,0.0595 -0.114662,-0.59531 z m -71.575702,-2.04959 c 1.6371,-0.0464 4.31601,-0.0464 5.95312,0 1.63711,0.0464 0.29766,0.0844 -2.97656,0.0844 -3.27422,0 -4.61367,-0.038 -2.97656,-0.0844 z m 45.12583,-7e-5 c 1.57226,-0.0469 4.07257,-0.0467 5.55625,3.9e-4 1.48368,0.0471 0.19729,0.0854 -2.85865,0.0852 -3.05594,-2.2e-4 -4.26986,-0.0387 -2.6976,-0.0856 z m 273.16791,-6.7e-4 c 3.81992,-0.0413 10.0707,-0.0413 13.89062,0 3.81992,0.0413 0.69453,0.0751 -6.94531,0.0751 -7.63985,0 -10.76524,-0.0338 -6.94531,-0.0751 z m -57.14526,-4.22684 c 0.47554,-0.0589 1.18992,-0.0577 1.5875,0.003 0.39757,0.0604 0.008,0.10855 -0.86464,0.10707 -0.87312,-0.001 -1.19841,-0.0509 -0.72286,-0.10977 z"
           id="path217-3-0" /><path
           style="fill:#181818;fill-opacity:1"
           d="m -67.441137,201.09236 c -1.018645,-0.21432 -2.966271,-0.9279 -4.328055,-1.58573 -3.957787,-1.91187 -7.089184,-5.40117 -8.532526,-9.50774 -2.715563,-7.72626 -0.965305,-17.04604 4.214056,-22.43902 3.795333,-3.95186 9.438596,-5.93565 16.054858,-5.6438 2.078421,0.0917 3.851217,0.3349 5.132898,0.70421 3.167011,0.91255 2.936894,0.53779 2.936894,4.78295 0,2.03217 -0.05027,3.69486 -0.111713,3.69486 -0.06144,0 -1.066968,-0.48978 -2.234501,-1.0884 -5.205967,-2.66921 -11.181262,-1.81745 -14.947124,2.13066 -2.585961,2.71111 -3.6145,5.61561 -3.602277,10.1725 0.0077,2.8807 0.281374,4.19321 1.325705,6.35856 3.026107,6.27444 11.589417,8.18153 17.939358,3.99518 0.776686,-0.51205 1.461295,-0.931 1.521354,-0.931 0.06006,0 0.109198,1.59276 0.109198,3.53948 0,2.51703 -0.09554,3.61431 -0.330729,3.79852 -0.654264,0.51246 -4.099437,1.67037 -6.120417,2.05704 -2.568643,0.49147 -6.590219,0.47442 -9.026979,-0.0383 z m 55.827082,-0.0715 c -3.879307,-0.85015 -6.292339,-2.16824 -9.018448,-4.92623 -3.728622,-3.77223 -5.339375,-8.61669 -5.069295,-15.24628 0.296078,-7.26778 2.910818,-12.46612 7.912757,-15.7313 3.259829,-2.12796 7.401899,-3.26795 11.9004454,-3.27526 6.77968867,-0.011 11.9579616,2.27141 15.2975942,6.74273 1.9484444,2.6087 3.0002714,5.63712 3.4814484,10.02378 1.096918,10.00005 -3.1545822,18.19496 -11.1183081,21.43091 -3.6607637,1.4875 -9.2182361,1.89505 -13.3861939,0.98165 z m 10.3032028,-7.18072 c 3.940078,-1.9397 5.6761243,-5.64797 5.6946635,-12.16406 0.011688,-4.10823 -0.5574759,-6.41839 -2.2111325,-8.97468 -1.99037602,-3.07681 -5.0968526,-4.46147 -9.3422219,-4.16413 -2.7368362,0.19168 -4.6225099,1.04108 -6.4637379,2.91158 -1.52448,1.54871 -2.059995,2.4885 -2.900517,5.0902 -0.85417,2.64395 -0.860885,7.91981 -0.01339,10.52227 1.278825,3.92699 4.026785,6.69969 7.5479281,7.61587 0.4536351,0.11804 1.977012,0.17101 3.3852818,0.11773 2.2429249,-0.0849 2.7766221,-0.20329 4.3031289,-0.95478 z m 24.0926292,7.53511 c -0.291041,-0.066 -1.18401,-0.24441 -1.984375,-0.3966 -0.800364,-0.15218 -2.199349,-0.53022 -3.108854,-0.84007 l -1.653645,-0.56338 v -3.79868 -3.79868 l 1.25677,0.71817 c 0.691224,0.39499 1.375834,0.79943 1.521354,0.89875 0.935022,0.63818 4.608521,1.62217 6.533727,1.75014 5.169083,0.3436 8.784918,-1.27457 8.951938,-4.00622 0.112418,-1.83862 -0.02311,-2.27759 -1.043349,-3.37934 -1.279503,-1.38174 -2.301657,-1.92326 -6.637107,-3.51628 -5.177699,-1.90249 -8.411251,-4.22262 -9.748912,-6.995 -0.629037,-1.30372 -0.70213,-1.75819 -0.70213,-4.36562 0,-2.64564 0.06448,-3.03262 0.708796,-4.25357 1.252774,-2.37398 4.295763,-4.76838 7.493287,-5.89616 1.752911,-0.61826 5.011629,-1.09488 7.463325,-1.09159 2.45713,0.003 6.411458,0.63265 8.080946,1.28613 l 0.727604,0.2848 v 3.55979 3.5598 l -1.124479,-0.62277 c -2.347127,-1.29991 -4.614169,-1.83816 -7.739063,-1.83742 -3.123211,7.3e-4 -4.776017,0.47803 -6.173405,1.78276 -2.591788,2.41994 -1.257345,6.00955 2.803384,7.54102 0.398304,0.15022 1.617157,0.59524 2.708563,0.98894 5.305193,1.91373 9.144613,4.46899 10.565239,7.03151 0.553482,0.99837 0.659094,1.5971 0.75595,4.28556 0.110634,3.07087 0.09822,3.15423 -0.71589,4.80793 -2.185853,4.44009 -6.980248,6.70751 -14.574049,6.89251 -2.110052,0.0514 -4.074583,0.0395 -4.365625,-0.0264 z m 36.692216,-0.25522 c -3.798502,-0.82459 -6.591334,-2.2476 -8.925521,-4.54777 -2.466246,-2.4303 -3.381525,-3.88024 -4.441398,-7.03588 -1.816133,-5.40731 -1.459404,-12.58737 0.873017,-17.57164 3.14889,-6.72902 10.159427,-10.43007 19.041638,-10.05257 5.736465,0.2438 9.096699,1.57661 12.463741,4.94366 3.67001,3.67001 5.282764,8.12578 5.282764,14.59541 0,6.39615 -1.727454,10.99788 -5.549143,14.78224 -2.803124,2.77574 -5.391108,4.08547 -9.702899,4.91045 -2.462986,0.47125 -6.814274,0.45975 -9.042199,-0.0239 z m 8.948408,-6.78751 c 3.147775,-1.18292 5.211635,-3.68813 6.277974,-7.62051 0.568603,-2.09686 0.54128,-7.82411 -0.04798,-10.0577 -0.967182,-3.6661 -2.766223,-5.98843 -5.700826,-7.35903 -1.280351,-0.59799 -1.804923,-0.68068 -4.365625,-0.68816 -2.647205,-0.008 -3.059308,0.0596 -4.556753,0.7449 -3.12159,1.42853 -5.485874,4.78136 -6.179223,8.76287 -0.488613,2.80582 -0.189687,7.52982 0.614248,9.70711 1.317945,3.56938 4.322329,6.3037 7.608186,6.92429 1.168999,0.22079 5.39402,-0.0545 6.349999,-0.41377 z m 52.737219,6.80394 c -3.92174,-1.10061 -5.8636,-2.99647 -6.78346,-6.62278 -0.14928,-0.58851 -0.3371,-6.40246 -0.42309,-13.09687 l -0.15463,-12.03854 -3.04271,-0.13229 c -1.67349,-0.0728 -5.00724,-0.0728 -7.40833,0 l -4.365625,0.13229 -0.06824,15.67656 -0.06824,15.67656 H 94.746344 90.6474 V 185.4072 c 0,-8.42831 -0.07227,-15.51253 -0.160599,-15.74271 -0.133988,-0.34917 -0.681995,-0.41851 -3.307291,-0.41851 h -3.146693 v -3.29915 -3.29915 l 3.241146,-0.0743 3.241146,-0.0743 0.13804,-5.02708 c 0.138038,-5.02702 0.138051,-5.02711 1.012791,-6.82787 1.471075,-3.0284 3.932025,-5.11216 7.638684,-6.46791 1.651056,-0.60388 8.728816,-0.67854 9.426276,-0.0994 0.36223,0.30077 0.43733,0.9081 0.43733,3.53658 v 3.17344 l -0.7276,-0.17718 c -0.40018,-0.0975 -1.70184,-0.24491 -2.89257,-0.32767 -1.87312,-0.1302 -2.32501,-0.073 -3.35219,0.42424 -2.548503,1.23371 -3.337132,3.18605 -3.342536,8.27481 l -0.0039,3.62568 4.299476,0.0785 c 2.36472,0.0432 5.758,0.0417 7.54063,-0.003 l 3.24114,-0.0817 v -4.33945 -4.33944 l 1.12448,-0.30491 c 0.61847,-0.16769 1.42214,-0.39679 1.78594,-0.5091 0.3638,-0.11231 1.19724,-0.35103 1.85208,-0.5305 0.65485,-0.17946 1.68723,-0.48049 2.29419,-0.66896 0.60697,-0.18846 1.17251,-0.27371 1.25678,-0.18945 0.0843,0.0843 0.1532,2.57414 0.1532,5.53306 v 5.37986 l 4.29948,0.004 c 2.36471,0.002 4.45239,0.10107 4.63929,0.21966 0.25185,0.1598 0.32034,0.99782 0.26459,3.2371 l -0.0752,3.02148 -4.49791,0.13229 -4.49792,0.13229 v 10.98021 c 0,12.2653 -0.005,12.22745 1.82969,13.62689 1.22486,0.93425 3.88371,1.19999 5.69316,0.569 0.64507,-0.22495 1.27015,-0.34887 1.38907,-0.27537 0.27486,0.16987 0.27748,5.41716 0.003,5.84929 -0.72708,1.14432 -7.45115,1.80345 -10.28491,1.00817 z m 111.41166,-0.24467 c -2.85567,-0.75584 -4.13413,-1.36817 -6.50898,-3.11753 -2.84727,-2.09736 -5.12441,-5.53716 -6.18702,-9.34599 -0.67451,-2.41771 -0.80814,-8.21188 -0.25225,-10.93734 0.52601,-2.57895 1.58351,-5.25419 2.855,-7.22252 1.96273,-3.03838 6.08725,-6.23463 9.35155,-7.24686 5.0278,-1.55909 10.76681,-1.54917 15.51162,0.0268 l 1.26245,0.41931 v 3.83724 c 0,2.11049 -0.0893,3.79254 -0.19844,3.7379 -4.71543,-2.36079 -6.16362,-2.74695 -9.32266,-2.48589 -5.13414,0.42428 -8.99382,3.51824 -10.61441,8.50864 -0.86233,2.65546 -0.8471,7.73885 0.0301,10.03979 1.82194,4.77912 5.22045,7.35292 10.18354,7.71233 3.39238,0.24566 6.32589,-0.58685 9.20189,-2.61144 l 0.73522,-0.51756 -0.0738,3.66146 -0.0738,3.66146 -1.19062,0.57806 c -3.90942,1.89806 -10.31545,2.46514 -14.70945,1.30213 z m 31.79854,0.19819 c -8.30982,-1.78148 -13.12045,-8.69688 -13.1203,-18.86075 1.1e-4,-7.05296 1.88584,-11.86583 6.19693,-15.81617 3.13406,-2.87179 6.55399,-4.26763 11.02667,-4.50052 6.97998,-0.36345 12.22043,2.48039 14.97625,8.12719 1.47436,3.02101 1.98869,5.55836 2.0301,10.01514 l 0.0335,3.6109 -12.93472,0.0687 -12.93471,0.0687 0.17886,1.74575 c 0.32563,3.17839 2.03571,6.07108 4.58877,7.76216 4.11486,2.72557 11.3379,2.45061 16.59767,-0.63182 0.65291,-0.38263 1.2699,-0.72172 1.37109,-0.75354 0.22425,-0.0705 0.17736,6.06959 -0.0491,6.43609 -0.25014,0.40473 -1.97652,1.21934 -3.84799,1.81572 -4.14115,1.31965 -10.34326,1.72065 -14.11302,0.91248 z m 12.97766,-25.22516 c -0.302,-3.24934 -1.92195,-5.85483 -4.48321,-7.21065 -0.9231,-0.48866 -1.53202,-0.58681 -3.62312,-0.58405 -2.27724,0.003 -2.64658,0.0762 -3.92863,0.77809 -2.60318,1.42527 -4.96361,4.7737 -5.45616,7.73995 l -0.18673,1.12448 h 8.92479 8.9248 z m -438.31882,-1.54766 c 0,-14.52783 0.0493,-26.46385 0.10965,-26.52448 0.0603,-0.0606 2.86623,-0.0507 6.23537,0.0221 l 6.12571,0.13229 1.70129,4.36562 c 0.9357,2.4011 1.80768,4.60375 1.93772,4.8948 0.13005,0.29104 0.67925,1.66026 1.22047,3.0427 0.54121,1.38245 1.08674,2.75167 1.21229,3.04271 0.9755,2.26137 8.53902,21.62645 9.11972,23.34948 0.40462,1.20055 0.86757,2.18281 1.02878,2.18281 0.16122,0 0.5842,-0.8632 0.93996,-1.91823 0.35577,-1.05502 1.0504,-2.93026 1.54363,-4.16718 0.49324,-1.23693 1.22799,-3.0824 1.63279,-4.10104 1.56084,-3.92777 6.66908,-16.44796 7.05689,-17.29632 0.22431,-0.49069 0.50517,-1.20506 0.62413,-1.5875 0.23979,-0.77088 4.69735,-11.70575 4.82304,-11.83145 0.0435,-0.0435 2.72513,-0.11555 5.95912,-0.16006 l 5.87998,-0.0809 -2.7e-4,26.53119 -2.7e-4,26.5312 -4.16719,-0.0729 -4.16719,-0.0729 v -21.8943 c 0,-12.04188 -0.0668,-21.8943 -0.14842,-21.89427 -0.0816,3e-5 -0.30516,0.62514 -0.49674,1.38912 -0.2892,1.15326 -6.88985,18.08942 -8.06898,20.70365 -0.19691,0.43656 -1.27071,3.11547 -2.38622,5.95312 -1.11552,2.83766 -2.1875,5.51657 -2.38219,5.95313 -0.19469,0.43656 -1.04494,2.57969 -1.88944,4.7625 -2.1652,5.59648 -1.73257,5.15937 -5.10658,5.15937 h -2.82291 l -0.43509,-1.12448 c -0.77587,-2.00526 -6.29266,-15.66053 -6.54718,-16.20573 -0.49667,-1.06391 -5.30271,-13.01879 -5.30271,-13.19034 0,-0.0973 -0.23156,-0.6816 -0.51459,-1.29848 -1.2482,-2.72055 -3.70939,-9.19227 -4.02373,-10.58044 -0.18947,-0.83675 -0.40883,-1.52136 -0.48747,-1.52136 -0.0786,0 -0.0973,9.581 -0.0415,21.2911 0.0558,11.71011 0.0259,21.5923 -0.0665,21.96042 l -0.16798,0.66931 h -3.96371 -3.96371 z m 65.879446,26.28194 c -9.9e-4,-0.0728 -0.0027,-8.61549 -0.0039,-18.98385 l -0.0021,-18.85156 4.104905,-0.0729 4.104906,-0.0729 v 19.05671 19.05672 h -4.101042 c -2.255573,0 -4.101851,-0.0595 -4.102841,-0.13229 z m 48.015699,-0.19152 c -0.07093,-0.1857 -0.09816,-8.73155 -0.0605,-18.99077 l 0.06847,-18.65312 h 4.101042 4.101041 l 0.132292,3.70416 0.132292,3.70417 0.852308,-1.68487 c 2.155915,-4.26188 4.757338,-6.30202 8.378951,-6.5711 1.070305,-0.0795 2.365963,-0.008 3.00572,0.16569 l 1.124479,0.30547 v 3.9543 3.95431 l -1.074267,-0.55994 c -1.54429,-0.80493 -4.673893,-0.79601 -6.380728,0.0182 -1.553697,0.74114 -3.778677,3.0692 -4.507081,4.71587 -1.313147,2.96859 -1.346688,3.30225 -1.50951,15.01667 l -0.154456,11.1125 -4.040543,0.0731 c -3.086908,0.0558 -4.070983,-0.007 -4.169514,-0.26459 z m 200.552625,-0.005 c -0.0698,-0.18313 -0.0962,-12.09154 -0.0587,-26.46315 l 0.0682,-26.1302 14.22138,-0.0636 14.22138,-0.0635 -3e-5,3.6348 -2e-5,3.6348 -9.85573,0.0694 -9.85573,0.0694 v 7.54062 7.54063 l 9.20171,0.0696 9.20172,0.0696 -0.0736,3.58245 -0.0736,3.58245 -8.86354,-0.0137 c -4.87495,-0.008 -9.01423,0.0837 -9.19841,0.20259 -0.26012,0.168 -0.31918,1.92481 -0.26458,7.87101 l 0.0703,7.65475 10.52463,0.0692 10.52464,0.0692 -0.0736,3.63498 -0.0736,3.63498 -14.75797,0.0684 c -11.66572,0.0541 -14.78456,-0.001 -14.88487,-0.26458 z m 30.03972,0.1238 c 0,-0.21594 1.63208,-2.61312 8.55252,-12.5618 1.99935,-2.87423 3.7031,-5.40284 3.7861,-5.61913 0.17682,-0.4608 -0.30204,-1.30617 -4.34797,-7.67582 -1.66379,-2.61938 -3.39819,-5.35029 -3.85422,-6.0687 -0.45603,-0.71841 -1.44582,-2.26142 -2.19953,-3.42892 -0.75371,-1.16749 -1.31223,-2.21682 -1.24116,-2.33182 0.22787,-0.36869 9.25788,-0.25379 9.55826,0.12162 0.14555,0.1819 1.1016,1.93808 2.12457,3.90261 1.02296,1.96453 2.34555,4.46484 2.9391,5.55625 0.59354,1.0914 1.45832,2.72851 1.92174,3.63802 0.46342,0.9095 0.97349,1.65364 1.13349,1.65364 0.16,0 0.83313,-0.98226 1.49585,-2.18281 4.68168,-8.48115 6.98696,-12.52822 7.23183,-12.69595 0.31805,-0.21785 8.88275,-0.28046 8.88275,-0.0649 0,0.21997 -5.87154,9.26549 -10.63288,16.38072 -1.01225,1.51267 -1.54317,2.56004 -1.47533,2.91042 0.0583,0.30104 2.74695,4.50485 5.97481,9.34178 3.22785,4.83693 5.86882,8.91482 5.86882,9.06198 0,0.17038 -1.70564,0.26676 -4.69636,0.26537 l -4.69635,-0.002 -0.54757,-0.99001 c -3.49701,-6.3226 -7.67384,-13.55771 -7.82687,-13.55771 -0.10616,0 -0.7165,0.92273 -1.35631,2.05052 -1.48958,2.62564 -3.66427,6.36511 -5.6547,9.72344 l -1.56814,2.64583 -4.68622,0.0722 c -2.57743,0.0397 -4.68623,-0.0254 -4.68623,-0.14466 z m 106.89102,0.13856 c -3.5e-4,-0.0364 -0.0301,-12.71654 -0.0661,-28.17813 l -0.0655,-28.11199 4.16719,1e-5 4.16718,1e-5 v 28.17812 28.17812 h -4.10104 c -2.25557,0 -4.10133,-0.0298 -4.10168,-0.0661 z m -383.777473,-46.7341 c -2.073889,-0.95407 -3.114985,-3.37784 -2.389329,-5.56259 1.198682,-3.60889 5.541909,-4.57897 8.431829,-1.88328 1.038236,0.96845 1.084919,1.08231 1.187408,2.89611 0.09612,1.70111 0.03647,1.99413 -0.602549,2.95975 -1.28134,1.93623 -4.300336,2.66054 -6.627359,1.59001 z"
           id="path216-9-3" /></g></g></g></svg>
