<?xml version="1.0" encoding="UTF-8" standalone="no"?>
<!-- Created with Inkscape (http://www.inkscape.org/) -->

<svg
   width="159.17798"
   height="42.489105"
   viewBox="0 0 42.115839 11.241909"
   version="1.1"
   id="svg1"
   sodipodi:docname="FormmulaBI_UI-LightMode_final_V_3.svg"
   inkscape:version="1.3.2 (091e20e, 2023-11-25, custom)"
   inkscape:export-filename="FormmulaBI_UI-LightMode_final_V_3.svg"
   inkscape:export-xdpi="96"
   inkscape:export-ydpi="96"
   xml:space="preserve"
   xmlns:inkscape="http://www.inkscape.org/namespaces/inkscape"
   xmlns:sodipodi="http://sodipodi.sourceforge.net/DTD/sodipodi-0.dtd"
   xmlns="http://www.w3.org/2000/svg"
   xmlns:svg="http://www.w3.org/2000/svg"><sodipodi:namedview
     id="namedview1"
     pagecolor="#505050"
     bordercolor="#eeeeee"
     borderopacity="1"
     inkscape:showpageshadow="0"
     inkscape:pageopacity="0"
     inkscape:pagecheckerboard="false"
     inkscape:deskcolor="#505050"
     inkscape:document-units="px"
     inkscape:zoom="7.5231505"
     inkscape:cx="-817.27728"
     inkscape:cy="501.31922"
     inkscape:window-width="2560"
     inkscape:window-height="1494"
     inkscape:window-x="-11"
     inkscape:window-y="-11"
     inkscape:window-maximized="1"
     inkscape:current-layer="g3-4-3-9"
     inkscape:lockguides="false"
     inkscape:clip-to-page="false"
     showgrid="false"
     showguides="true"><inkscape:grid
       id="grid179"
       units="px"
       originx="231.41573"
       originy="-9.0690176"
       spacingx="0.26458333"
       spacingy="0.26458333"
       empcolor="#0099e5"
       empopacity="0.30196078"
       color="#0099e5"
       opacity="0.14901961"
       empspacing="5"
       dotted="false"
       gridanglex="30"
       gridanglez="30"
       visible="false" /></sodipodi:namedview><defs
     id="defs1"><linearGradient
       id="swatch204"
       inkscape:swatch="solid"><stop
         style="stop-color:#f2f5f4;stop-opacity:1;"
         offset="0"
         id="stop204" /></linearGradient><linearGradient
       id="swatch203"
       inkscape:swatch="solid"><stop
         style="stop-color:#000000;stop-opacity:1;"
         offset="0"
         id="stop203" /></linearGradient></defs><g
     inkscape:label="Layer 1"
     inkscape:groupmode="layer"
     id="layer1"
     transform="translate(231.41573,-9.0690174)"><g
       id="g6-0-8"
       transform="matrix(0.35096537,0,0,0.36264223,-231.41573,9.0690178)"
       style="fill:#181818;fill-opacity:1"><g
         id="g1-8-1"
         style="fill:#181818;fill-opacity:1"><path
           fill="#fdd800"
           d="m 15.709,29.627 17.356,-1.165 0.68,1.165 z M 11.37,14.167 3.712,29.627 H 2.352 Z M 27.053,18.155 17.382,3.859 18.062,2.693 Z M 30.92,26 31.861,27.348 15.84,28.41 Z M 7,29 5.28,29.135 12.363,14.865 Z M 16.284,6.94 17,5.44 26,18.648 Z M 28.726,23.567 30,25.095 16.937,27.22 Z M 10.168,28.332 8.181,28.669 12.86,16.393 Z M 15.29,10 16,8.184 24.36,18.31 Z m 11.135,11.34 1.699,1.528 -9.593,2.978 z m -13.174,6.138 -2.196,0.673 2.196,-9.686 z M 14.453,13.13 15,10.903 22.322,17.637 Z M 13.931,27.27 V 15.462 l 0.366,-1.631 10.324,5.904 1.255,1.14 -10.325,5.905 z M 18.062,0 0,31 h 36.097 z"
           id="path1-2-4"
           style="fill:#181818;fill-opacity:1" /></g><g
         id="g2-04-3"
         style="fill:#181818;fill-opacity:1"><path
           fill="#3e3b3a"
           d="m 44.726,6.137 c 0,1.476 -0.863,2.408 -2.248,2.408 -1.385,0 -2.248,-0.932 -2.248,-2.382 0,-1.45 0.915,-2.383 2.3,-2.383 1.307,0.026 2.196,0.958 2.196,2.357 z M 55.546,5 c 0.968,0 1.282,0.645 1.282,1.551 V 8.468 H 56.2 V 6.81 C 56.2,6.163 56.148,5.541 55.416,5.541 A 0.933,0.933 0 0 0 54.606,6 1.7,1.7 0 0 0 54.449,6.862 V 8.468 H 53.822 V 6.085 c 0,-0.363 0,-0.725 -0.026,-0.984 h 0.627 c -0.026,0.155 0,0.362 0,0.544 C 54.658,5.256 55.103,5 55.547,5 Z m -5.122,1.94 c 0,0.595 0.47,1.06 1.072,1.06 H 51.6 c 0.34,0 0.68,-0.05 0.993,-0.232 l 0.026,0.57 c -0.34,0.13 -0.68,0.207 -1.045,0.207 -1.124,0 -1.777,-0.673 -1.777,-1.787 0,-1.062 0.653,-1.758 1.62,-1.758 0.889,0 1.464,0.567 1.464,1.68 v 0.26 z m 1.83,-0.467 c 0,-0.647 -0.366,-0.958 -0.863,-0.958 -0.497,0 -0.889,0.363 -0.941,0.958 z M 45.771,6.111 c 0,-0.363 0,-0.725 -0.026,-0.984 h 0.601 c 0,0.13 0.026,0.362 0.026,0.544 A 1.34,1.34 0 0 1 47.55,5 C 48.41,5 49,5.748 49,6.758 c 0,1.062 -0.589,1.813 -1.451,1.813 -0.47,0 -0.915,-0.233 -1.15,-0.647 0,0.13 0.026,0.647 0.026,0.828 v 1.114 h -0.628 z m 0.628,0.7 c 0,0.672 0.444,1.242 0.993,1.242 0.549,0 0.94,-0.544 0.94,-1.243 0,-0.751 -0.332,-1.243 -0.94,-1.243 -0.575,0 -0.993,0.544 -0.993,1.243 z M 42.478,8 C 43.418,8 44,7.25 44,6.163 c 0,-1.088 -0.607,-1.84 -1.522,-1.84 -0.941,0 -1.542,0.752 -1.542,1.814 0,1.113 0.6,1.863 1.542,1.863 z"
           id="path2-980-8"
           style="fill:#181818;fill-opacity:1" /></g><g
         id="g3-3-2"
         style="fill:#181818;fill-opacity:1"><path
           fill="#3e3b3a"
           d="m 68.139,5 c 0.104,0 0.209,0 0.313,0.076 V 5.671 C 68.348,5.62 68.217,5.62 68.112,5.62 67.537,5.62 67.172,6.112 67.172,7 V 8.494 H 66.544 V 6.138 c 0,-0.363 0,-0.726 -0.026,-0.985 h 0.627 C 67.171,5.309 67.198,5.49 67.198,5.671 67.354,5.283 67.746,5 68.138,5 Z m -2.51,1.81 c 0,0.96 -0.784,1.736 -1.751,1.736 A 1.743,1.743 0 0 1 62.127,6.811 1.725,1.725 0 0 1 63.72,5 h 0.157 c 1.02,0 1.751,0.775 1.751,1.81 z m -2.823,0 C 62.806,7.536 63.251,8 63.904,8 64.558,8 65,7.536 65,6.81 65,6.086 64.531,5.542 63.878,5.542 c -0.653,0 -1.072,0.518 -1.072,1.269 z M 61.656,4 h -0.313 c -0.419,0 -0.575,0.195 -0.575,0.79 v 0.337 h 0.914 V 5.62 H 60.768 V 8.468 H 60.114 V 5.62 H 59.33 V 5.127 h 0.81 V 4.817 C 60.14,4 60.428,3.47 61.238,3.47 c 0.157,0 0.314,0.026 0.47,0.052 z"
           id="path3-1-2"
           style="fill:#181818;fill-opacity:1" /></g><g
         id="g4-7-0"
         style="fill:#181818;fill-opacity:1"><path
           fill="#3e3b3a"
           d="m 103.09,5 c 0.966,0 1.28,0.649 1.28,1.555 v 1.917 h -0.627 V 6.814 c 0,-0.647 -0.079,-1.269 -0.743,-1.269 -0.381,0 -0.695,0.181 -0.878,0.455 C 102,6.296 101.939,6.581 102,6.866 v 1.606 h -0.662 V 6.089 c 0,-0.363 0,-0.725 -0.026,-0.984 h 0.627 c 0,0.155 0,0.362 0.061,0.544 C 102.2,5.26 102.645,5 103.09,5 Z m -2.693,1.814 c 0.052,0.907 -0.654,1.684 -1.594,1.735 H 98.646 A 1.69,1.69 0 0 1 96.894,6.918 V 6.788 A 1.691,1.691 0 0 1 98.49,5 h 0.157 c 1.02,0 1.75,0.778 1.75,1.814 z m -2.823,0 C 97.574,7.54 98,8 98.646,8 c 0.627,0 1.071,-0.46 1.071,-1.186 0,-0.725 -0.444,-1.269 -1.097,-1.269 -0.62,0 -1.046,0.518 -1.046,1.27 z M 96,4.51 H 95.274 V 3.81 H 96 Z m 0,3.963 H 95.3 V 5.105 H 96 Z M 94.464,5.13 v 0.492 h -0.915 v 1.476 c 0,0.544 0.078,0.901 0.575,0.901 0.13,0 0.261,0 0.366,-0.072 l 0.026,0.492 C 94.333,8.471 94.15,8.522 94,8.522 93.104,8.522 92.921,7.999 92.921,7.279 V 5.623 H 92.137 V 5.13 h 0.784 V 4.327 L 93.549,4.12 V 5.13 Z M 89,5.312 A 2.258,2.258 0 0 1 90.099,5 c 0.993,0 1.359,0.597 1.359,1.374 v 1.088 c 0,0.362 0,0.777 0.026,1.01 H 90.909 V 8.187 7.876 a 1.195,1.195 0 0 1 -1.124,0.622 c -0.732,0 -1.176,-0.389 -1.176,-1.01 0,-0.7 0.653,-1.088 1.777,-1.088 0.13,0 0.314,0 0.47,0.026 V 6.4 c 0,-0.57 -0.287,-0.855 -0.856,-0.855 -0.372,0 -0.712,0.13 -1,0.311 z m 0.288,2.201 C 89.288,7.85 89.55,8 89.942,8 c 0.366,0 0.68,-0.15 0.836,-0.46 0.079,-0.208 0.13,-0.441 0.105,-0.674 h -0.34 c -0.837,0 -1.255,0.207 -1.255,0.647 z M 86.387,7.177 C 86.465,7.384 86.57,7.747 86.622,8 86.674,7.747 86.805,7.358 86.884,7.177 l 0.68,-2.046 h 0.653 L 87,8.498 H 86.204 L 85,5.13 h 0.655 z M 84.61,6.814 C 84.662,7.721 83.93,8.524 83,8.549 H 82.858 A 1.69,1.69 0 0 1 81.107,6.918 V 6.814 A 1.73,1.73 0 0 1 82.701,5 h 0.157 c 1.046,0 1.752,0.778 1.752,1.814 z m -2.797,0 C 81.813,7.539 82.257,8 82.884,8 83.512,8 84,7.54 84,6.814 84,6.089 83.512,5.545 82.858,5.545 c -0.653,0 -1.045,0.518 -1.045,1.27 z M 78.938,5 c 0.967,0 1.254,0.649 1.254,1.555 V 8.472 H 79.565 V 6.814 C 79.565,6.167 79.513,5.545 78.781,5.545 78.441,5.545 78.127,5.726 78,6 77.84,6.296 77.787,6.581 77.814,6.866 V 8.472 H 77.186 V 6.089 c 0,-0.363 0,-0.725 -0.026,-0.984 h 0.627 c 0,0.155 0,0.362 0.027,0.544 C 78,5.26 78.494,5 78.938,5 Z M 74.755,5 C 75.723,5 76,5.649 76,6.555 V 8.472 H 75.409 V 6.814 C 75.409,6.167 75.357,5.545 74.625,5.545 74.285,5.545 74,5.726 73.815,6 73.684,6.296 73.632,6.581 73.658,6.866 V 8.472 H 73 V 5.105 h 0.632 c -0.027,0.155 0,0.362 0,0.544 C 73.867,5.26 74.312,5 74.755,5 Z M 71.75,8.472 H 71.07 V 3.888 h 0.68 z"
           id="path4-95-4"
           style="fill:#181818;fill-opacity:1" /></g><g
         id="g5-8-6"
         style="fill:#181818;fill-opacity:1"><path
           fill="#3e3b3a"
           d="m 43.706,13.21 v 8.21 h 0.079 l 6.587,-8.21 h 3.946 L 47.628,21.575 56.277,31 H 51.834 L 43.705,22.248 V 31 H 40.23 V 13.21 Z M 61,13.21 71.7,25.615 V 13.21 h 3.398 V 31 h -2.98 L 61.402,18.364 V 31 H 58 V 13.21 Z m 21.47,0 V 31 H 79 V 13.21 Z m 7.004,0 5.907,6.992 5.881,-6.992 h 3.085 V 31 h -3.45 V 18.493 h -0.105 l -5.175,6.268 H 95.12 L 89.919,18.493 H 89.814 V 31 H 86.338 V 13.21 Z m 30.346,0 v 2.693 h -8.128 v 4.662 h 7.789 v 2.693 h -7.79 v 5.05 H 120 V 31 H 108.215 V 13.21 Z"
           id="path5-6-4"
           style="fill:#181818;fill-opacity:1" /></g></g></g></svg>
