<?xml version="1.0" encoding="UTF-8" standalone="no"?>
<!-- Created with Inkscape (http://www.inkscape.org/) -->

<svg
   width="351.33008"
   height="247.88086"
   viewBox="0 0 92.95608 65.585144"
   version="1.1"
   id="svg1"
   xml:space="preserve"
   xmlns:xlink="http://www.w3.org/1999/xlink"
   xmlns="http://www.w3.org/2000/svg"
   xmlns:svg="http://www.w3.org/2000/svg"><defs
     id="defs1"><pattern
       xlink:href="#Strips1_2-0-0-1-6"
       preserveAspectRatio="xMidYMid"
       id="pattern48-6-1"
       patternTransform="matrix(0.062459,0.06919675,-0.062459,0.06919675,-758.07034,2456.0645)"
       x="0"
       y="0"
       width="12" /><pattern
       patternUnits="userSpaceOnUse"
       width="3"
       height="1"
       patternTransform="translate(0,0) scale(2,2)"
       preserveAspectRatio="xMidYMid"
       id="Strips1_2-0-0-1-6"
       style="fill:#23b26d">
      <rect
   style="stroke:none"
   x="0"
   y="-0.5"
   width="1"
   height="2"
   id="rect146-7-4-3-4" />
    </pattern></defs><g
     id="layer1"
     transform="translate(186.71964,-3948.4814)"><ellipse
       style="fill:none;fill-opacity:0.531034;fill-rule:evenodd;stroke:#000000;stroke-width:0.216854;stroke-linecap:round;stroke-linejoin:round;stroke-miterlimit:5.4;stroke-dasharray:none;stroke-dashoffset:0;stroke-opacity:1;paint-order:markers fill stroke"
       id="path31-5-9"
       cx="-169.5218"
       cy="3982.282"
       rx="17.089405"
       ry="10.440225" /><ellipse
       style="fill:none;fill-opacity:0.531034;fill-rule:evenodd;stroke:#000000;stroke-width:0.216854;stroke-linecap:round;stroke-linejoin:round;stroke-miterlimit:5.4;stroke-dasharray:none;stroke-dashoffset:0;stroke-opacity:1;paint-order:markers fill stroke"
       id="path31-6-3-8"
       cx="-169.5218"
       cy="3992.8445"
       rx="17.089405"
       ry="10.440225" /><path
       style="fill:none;fill-opacity:0.531034;fill-rule:evenodd;stroke:#398460;stroke-width:0.21684;stroke-linecap:butt;stroke-linejoin:round;stroke-miterlimit:5.4;stroke-dasharray:1.73472, 1.73472;stroke-dashoffset:0;stroke-opacity:1;paint-order:markers fill stroke"
       id="path31-6-0-3-4"
       d="m -154.8449,-3987.4964 a 17.089405,10.440225 0 0 1 -14.77119,5.092 17.089405,10.440225 0 0 1 -14.67832,-5.1912"
       transform="scale(1,-1)" /><path
       style="fill:none;fill-opacity:0.531034;fill-rule:evenodd;stroke:#398460;stroke-width:0.21684;stroke-linecap:butt;stroke-linejoin:round;stroke-miterlimit:5.4;stroke-dasharray:1.73472, 1.73472;stroke-dashoffset:0;stroke-opacity:1;paint-order:markers fill stroke"
       id="path31-6-0-9-4-1"
       d="m -154.70233,3987.4813 a 17.089405,10.440225 0 0 1 -14.66342,5.2405 17.089405,10.440225 0 0 1 -14.81764,-5.076" /><path
       style="fill:none;fill-opacity:0.531034;fill-rule:evenodd;stroke:#398460;stroke-width:0.215779;stroke-linecap:butt;stroke-linejoin:round;stroke-miterlimit:5.4;stroke-dasharray:1.72625, 1.72625;stroke-dashoffset:0;stroke-opacity:1;paint-order:markers fill stroke"
       id="path31-6-0-9-2-2-4"
       d="m -154.79162,3998.188 a 17.089405,10.338339 0 0 1 -14.85028,5.0966 17.089405,10.338339 0 0 1 -14.7304,-5.2223" /><path
       style="fill:none;fill-opacity:0.531034;fill-rule:evenodd;stroke:#398460;stroke-width:0.213943;stroke-linecap:butt;stroke-linejoin:round;stroke-miterlimit:5.4;stroke-dasharray:1.71155, 1.71155;stroke-dashoffset:0;stroke-opacity:1;paint-order:markers fill stroke"
       id="path31-6-0-9-2-6-3-3"
       d="m -155.43746,4009.346 a 17.089405,10.163109 0 0 1 -14.84553,4.6086 17.089405,10.163109 0 0 1 -14.33763,-5.146" /><path
       style="fill:none;fill-opacity:0.531034;fill-rule:evenodd;stroke:#000000;stroke-width:0.216854;stroke-linecap:round;stroke-linejoin:round;stroke-miterlimit:5.4;stroke-dasharray:none;stroke-dashoffset:0;stroke-opacity:1;paint-order:markers fill stroke"
       id="path31-6-6-5-9"
       d="m -184.64979,4008.2783 a 17.089405,10.440304 0 0 1 4.52618,-13.0448 17.089405,10.440304 0 0 1 21.82108,0.313 17.089405,10.440304 0 0 1 3.51889,13.1603" /><path
       style="fill:url(#pattern48-6-1);fill-opacity:1;fill-rule:evenodd;stroke:#398460;stroke-width:0.0493211;stroke-linecap:round;stroke-linejoin:round;stroke-miterlimit:5.4;stroke-dasharray:0.394569, 0.394569;stroke-dashoffset:0;stroke-opacity:1;paint-order:markers fill stroke"
       d="m -170.58466,3992.5592 c -5.39876,-0.2099 -10.36734,-1.9932 -13.25062,-4.7559 l -0.25073,-0.2402 0.2267,-0.2169 c 2.57179,-2.4611 6.72239,-4.1447 11.45027,-4.6457 6.16352,-0.6526 12.45833,0.8325 16.29828,3.8459 0.51611,0.4051 1.13323,0.9703 1.11941,1.0254 -0.0172,0.069 -0.67767,0.6617 -1.13726,1.0205 -2.52187,1.9689 -6.12408,3.3154 -10.16515,3.7993 -0.74617,0.09 -1.31017,0.131 -2.29217,0.1694 -0.98987,0.039 -0.95877,0.039 -1.99873,0 z"
       id="path32-81-8" /><path
       style="fill:#24b16d;fill-opacity:0.531034;fill-rule:evenodd;stroke:#398460;stroke-width:0.048507;stroke-linecap:round;stroke-linejoin:round;stroke-miterlimit:5.4;stroke-dasharray:none;stroke-dashoffset:0;stroke-opacity:1;paint-order:markers fill stroke"
       d="m -171.08165,4003.1078 c -0.088,-0.01 -0.39563,-0.029 -0.68364,-0.052 -5.00648,-0.3729 -9.59458,-2.139 -12.25473,-4.7174 l -0.18149,-0.1757 0.15242,-0.1508 c 2.44786,-2.425 6.79246,-4.1919 11.49827,-4.6771 1.15546,-0.1189 1.618,-0.1406 2.99648,-0.14 1.4862,0 2.19907,0.041 3.43288,0.1954 4.00639,0.5008 7.50048,1.8044 10.00244,3.7319 0.40985,0.3156 1.12815,0.9618 1.14574,1.0306 0.0123,0.049 -0.51127,0.5354 -0.9951,0.9238 -2.67685,2.1494 -6.56786,3.5295 -11.1859,3.9663 -0.55419,0.053 -3.47494,0.1005 -3.92737,0.064 z"
       id="path33-9-8" /><path
       style="fill:none;fill-opacity:0.531034;fill-rule:evenodd;stroke:#398460;stroke-width:0.21684;stroke-linecap:butt;stroke-linejoin:round;stroke-miterlimit:5.4;stroke-dasharray:1.73472, 1.73472;stroke-dashoffset:0;stroke-opacity:1;paint-order:markers fill stroke"
       id="path31-6-0-7-1-0"
       d="m -154.70769,-3998.2166 a 17.089405,10.440225 0 0 1 -14.6832,5.2349 17.089405,10.440225 0 0 1 -14.81276,-5.0969"
       transform="scale(1,-1)" /><ellipse
       style="fill:#24b16d;fill-opacity:1;fill-rule:evenodd;stroke:none;stroke-width:0.0493211;stroke-linecap:butt;stroke-linejoin:round;stroke-miterlimit:5.4;stroke-dasharray:none;stroke-dashoffset:0;stroke-opacity:1;paint-order:markers fill stroke"
       id="path39-20-8"
       cx="-184.39458"
       cy="3987.5957"
       rx="0.35056114"
       ry="0.38837779" /><ellipse
       style="fill:#24b16d;fill-opacity:1;fill-rule:evenodd;stroke:none;stroke-width:0.0493211;stroke-linecap:butt;stroke-linejoin:round;stroke-miterlimit:5.4;stroke-dasharray:none;stroke-dashoffset:0;stroke-opacity:1;paint-order:markers fill stroke"
       id="path39-3-5-7"
       cx="-184.43555"
       cy="3998.3125"
       rx="0.35056114"
       ry="0.38837779" /><ellipse
       style="fill:#24b16d;fill-opacity:1;fill-rule:evenodd;stroke:none;stroke-width:0.0493211;stroke-linecap:butt;stroke-linejoin:round;stroke-miterlimit:5.4;stroke-dasharray:none;stroke-dashoffset:0;stroke-opacity:1;paint-order:markers fill stroke"
       id="path39-24-0-7"
       cx="-154.87193"
       cy="3998.158"
       rx="0.35056114"
       ry="0.38837779" /><ellipse
       style="fill:#24b16d;fill-opacity:1;fill-rule:evenodd;stroke:none;stroke-width:0.0493211;stroke-linecap:butt;stroke-linejoin:round;stroke-miterlimit:5.4;stroke-dasharray:none;stroke-dashoffset:0;stroke-opacity:1;paint-order:markers fill stroke"
       id="path39-24-6-3-8"
       cx="-154.77567"
       cy="3987.5957"
       rx="0.35056114"
       ry="0.38837779" /><path
       style="fill:#24b16d;fill-opacity:1;fill-rule:evenodd;stroke:#398460;stroke-width:0.264583;stroke-linecap:butt;stroke-linejoin:round;stroke-miterlimit:5.4;stroke-dasharray:2.11667, 2.11667;stroke-dashoffset:0;stroke-opacity:1;paint-order:markers fill stroke"
       d="m 1298.588,3131.8794 c 0.01,13.7163 0.014,27.4332 0.021,41.1501"
       id="path42-0-3"
       transform="matrix(0.44165183,0,0,0.48929487,-758.07034,2456.0645)" /><path
       style="fill:#24b16d;fill-opacity:1;fill-rule:evenodd;stroke:#398460;stroke-width:0.264583;stroke-linecap:butt;stroke-linejoin:round;stroke-miterlimit:5.4;stroke-dasharray:2.11666, 2.11666;stroke-dashoffset:0;stroke-opacity:1;paint-order:markers fill stroke"
       d="m 1365.9962,3130.8724 c -0.01,14.1171 -0.012,28.2345 -0.018,42.3515"
       id="path43-7-8"
       transform="matrix(0.44165183,0,0,0.48929487,-758.07034,2456.0645)" /><ellipse
       style="fill:none;fill-opacity:0.531034;fill-rule:evenodd;stroke:#000000;stroke-width:0.217088;stroke-linecap:round;stroke-linejoin:round;stroke-miterlimit:5.4;stroke-dasharray:none;stroke-dashoffset:0;stroke-opacity:1;paint-order:markers fill stroke"
       id="path31-5-9-2"
       cx="-110.96198"
       cy="3959.0527"
       rx="17.089218"
       ry="10.462903" /><ellipse
       style="fill:none;fill-opacity:0.531034;fill-rule:evenodd;stroke:#000000;stroke-width:0.217088;stroke-linecap:round;stroke-linejoin:round;stroke-miterlimit:5.4;stroke-dasharray:none;stroke-dashoffset:0;stroke-opacity:1;paint-order:markers fill stroke"
       id="path31-6-3-8-4"
       cx="-110.96198"
       cy="3969.6382"
       rx="17.089218"
       ry="10.462903" /><path
       style="fill:none;fill-opacity:0.531034;fill-rule:evenodd;stroke:#000000;stroke-width:0.217088;stroke-linecap:round;stroke-linejoin:round;stroke-miterlimit:5.4;stroke-dasharray:none;stroke-dashoffset:0;stroke-opacity:1;paint-order:markers fill stroke"
       id="path31-6-6-5-9-1"
       d="m -96.74021,3986.0399 a 17.089218,10.462984 0 0 1 -23.49372,2.9877 17.089218,10.462984 0 0 1 -5.21381,-14.3402 17.089218,10.462984 0 0 1 23.34527,-3.396 17.089218,10.462984 0 0 1 5.878494,14.2435" /><path
       style="fill:#24b16d;fill-opacity:0.531034;fill-rule:evenodd;stroke:#398460;stroke-width:0.0490933;stroke-linecap:round;stroke-linejoin:round;stroke-miterlimit:5.4;stroke-dasharray:none;stroke-dashoffset:0;stroke-opacity:1;paint-order:markers fill stroke"
       d="m -112.46068,3969.3597 c -0.0883,-0.01 -0.39678,-0.03 -0.68561,-0.052 -5.021,-0.3808 -9.62241,-2.1846 -12.29029,-4.818 l -0.18199,-0.1797 0.15284,-0.154 c 2.45497,-2.4767 6.81219,-4.2814 11.53164,-4.7769 1.1588,-0.1215 1.62269,-0.1435 3.00517,-0.143 1.49052,0 2.20545,0.041 3.44282,0.1996 4.01803,0.5116 7.52225,1.8428 10.031472,3.8116 0.411036,0.3224 1.131424,0.9823 1.149055,1.0525 0.01239,0.049 -0.512742,0.5469 -0.997972,0.9437 -2.684622,2.1953 -6.586895,3.6048 -11.218335,4.051 -0.5558,0.054 -3.48505,0.1026 -3.9388,0.066 z"
       id="path33-9-8-9-3" /><path
       style="fill:#24b16d;fill-opacity:1;fill-rule:evenodd;stroke:#398460;stroke-width:0.264583;stroke-linecap:butt;stroke-linejoin:round;stroke-miterlimit:5.4;stroke-dasharray:2.11667, 2.11667;stroke-dashoffset:0;stroke-opacity:1;paint-order:markers fill stroke"
       d="m 1298.4882,3109.1541 c 0.04,21.2912 0.081,42.5833 0.1208,63.8754"
       id="path42-0-3-2"
       transform="matrix(0.44164707,0,0,0.49035772,-699.50418,2429.5201)" /><path
       style="fill:#24b16d;fill-opacity:1;fill-rule:evenodd;stroke:#398460;stroke-width:0.264583;stroke-linecap:butt;stroke-linejoin:round;stroke-miterlimit:5.4;stroke-dasharray:2.11666, 2.11666;stroke-dashoffset:0;stroke-opacity:1;paint-order:markers fill stroke"
       d="m 1366.0551,3108.4903 c -0.026,21.5778 -0.051,43.156 -0.077,64.7336"
       id="path43-7-8-0"
       transform="matrix(0.44164707,0,0,0.49035772,-699.50418,2429.5201)" /><ellipse
       style="fill:#24b16d;fill-opacity:1;fill-rule:evenodd;stroke:none;stroke-width:0.0493744;stroke-linecap:butt;stroke-linejoin:round;stroke-miterlimit:5.4;stroke-dasharray:none;stroke-dashoffset:0;stroke-opacity:1;paint-order:markers fill stroke"
       id="path39-24-6-3-8-5-1"
       cx="-96.213615"
       cy="3953.6956"
       rx="0.35055736"
       ry="0.38922143" /><ellipse
       style="fill:#24b16d;fill-opacity:1;fill-rule:evenodd;stroke:none;stroke-width:0.0493744;stroke-linecap:butt;stroke-linejoin:round;stroke-miterlimit:5.4;stroke-dasharray:none;stroke-dashoffset:0;stroke-opacity:1;paint-order:markers fill stroke"
       id="path39-20-8-6-3"
       cx="-126.00421"
       cy="3953.9934"
       rx="0.35055736"
       ry="0.38922143" /><ellipse
       style="fill:#24b16d;fill-opacity:1;fill-rule:evenodd;stroke:none;stroke-width:0.0493744;stroke-linecap:butt;stroke-linejoin:round;stroke-miterlimit:5.4;stroke-dasharray:none;stroke-dashoffset:0;stroke-opacity:1;paint-order:markers fill stroke"
       id="path39-20-8-6"
       cx="-126.00421"
       cy="3964.3782"
       rx="0.35055736"
       ry="0.38922143" /><ellipse
       style="fill:#24b16d;fill-opacity:1;fill-rule:evenodd;stroke:none;stroke-width:0.0493744;stroke-linecap:butt;stroke-linejoin:round;stroke-miterlimit:5.4;stroke-dasharray:none;stroke-dashoffset:0;stroke-opacity:1;paint-order:markers fill stroke"
       id="path39-3-5-7-2"
       cx="-125.99345"
       cy="3974.8867"
       rx="0.35055736"
       ry="0.38922143" /><ellipse
       style="fill:#24b16d;fill-opacity:1;fill-rule:evenodd;stroke:none;stroke-width:0.0493744;stroke-linecap:butt;stroke-linejoin:round;stroke-miterlimit:5.4;stroke-dasharray:none;stroke-dashoffset:0;stroke-opacity:1;paint-order:markers fill stroke"
       id="path39-3-5-7-2-8"
       cx="-125.83084"
       cy="3985.3738"
       rx="0.35055736"
       ry="0.38922143" /><ellipse
       style="fill:#24b16d;fill-opacity:1;fill-rule:evenodd;stroke:none;stroke-width:0.0493744;stroke-linecap:butt;stroke-linejoin:round;stroke-miterlimit:5.4;stroke-dasharray:none;stroke-dashoffset:0;stroke-opacity:1;paint-order:markers fill stroke"
       id="path39-24-6-3-8-5"
       cx="-96.231453"
       cy="3964.3994"
       rx="0.35055736"
       ry="0.38922143" /><ellipse
       style="fill:#24b16d;fill-opacity:1;fill-rule:evenodd;stroke:none;stroke-width:0.0493744;stroke-linecap:butt;stroke-linejoin:round;stroke-miterlimit:5.4;stroke-dasharray:none;stroke-dashoffset:0;stroke-opacity:1;paint-order:markers fill stroke"
       id="path39-24-0-7-9"
       cx="-96.206604"
       cy="3974.9421"
       rx="0.35055736"
       ry="0.38922143" /><ellipse
       style="fill:#24b16d;fill-opacity:1;fill-rule:evenodd;stroke:none;stroke-width:0.0493744;stroke-linecap:butt;stroke-linejoin:round;stroke-miterlimit:5.4;stroke-dasharray:none;stroke-dashoffset:0;stroke-opacity:1;paint-order:markers fill stroke"
       id="path39-24-0-7-9-6"
       cx="-96.206604"
       cy="3985.698"
       rx="0.35055736"
       ry="0.38922143" /><path
       style="fill:#24b16d;fill-opacity:0.531034;fill-rule:evenodd;stroke:#398460;stroke-width:0.0485595;stroke-linecap:round;stroke-linejoin:round;stroke-miterlimit:5.4;stroke-dasharray:none;stroke-dashoffset:0;stroke-opacity:1;paint-order:markers fill stroke"
       d="m -112.45664,3979.9026 c -0.088,-0.01 -0.39564,-0.03 -0.68363,-0.051 -5.00643,-0.3737 -9.59447,-2.1436 -12.2546,-4.7274 l -0.18148,-0.1763 0.15242,-0.1512 c 2.44783,-2.4301 6.7924,-4.2009 11.49815,-4.6871 1.15544,-0.1192 1.61797,-0.141 2.99644,-0.1404 1.48618,0 2.19905,0.041 3.43283,0.1958 4.00636,0.5019 7.500403,1.8082 10.002339,3.74 0.409843,0.3165 1.12814,0.9639 1.145719,1.0329 0.01235,0.048 -0.511253,0.5366 -0.995074,0.9258 -2.676834,2.1541 -6.567784,3.5371 -11.185774,3.9749 -0.55418,0.053 -3.47492,0.1007 -3.92734,0.064 z"
       id="path33-9-8-9" /><path
       style="fill:none;fill-opacity:1;fill-rule:evenodd;stroke:#000000;stroke-width:0.264583;stroke-linejoin:round;stroke-miterlimit:5.4;stroke-dasharray:1.05833, 0.264583;stroke-dashoffset:0;stroke-opacity:1;paint-order:markers fill stroke"
       d="m -171.12036,3965.8778 -0.0365,-12.2737 h 37.5639"
       id="path38" /><path
       style="fill:none;fill-opacity:1;fill-rule:evenodd;stroke:#000000;stroke-width:0.264583;stroke-linejoin:round;stroke-miterlimit:5.4;stroke-dasharray:1.05833, 0.264583;stroke-dashoffset:0;stroke-opacity:1;paint-order:markers fill stroke"
       d="m -106.93277,3995.7107 0.036,12.2737 h -37.5639"
       id="path38-0" /><path
       style="fill:#000000;fill-opacity:1;fill-rule:evenodd;stroke:none;stroke-width:0.264583;stroke-linecap:butt;stroke-linejoin:round;stroke-miterlimit:5.4;stroke-dasharray:none;stroke-dashoffset:0;stroke-opacity:1;paint-order:markers fill stroke"
       id="path57-4"
       d="m 375.62133,3481.843 -40.86698,-26.0199 -40.82993,-26.078 42.96741,-22.3819 42.99919,-22.3207 -2.10043,48.4018 z"
       transform="matrix(0.01922945,-0.00131927,9.1211604e-4,0.0278131,-154.85707,3912.9881)" /><path
       style="fill:#000000;fill-opacity:1;fill-rule:evenodd;stroke:none;stroke-width:0.264583;stroke-linecap:butt;stroke-linejoin:round;stroke-miterlimit:5.4;stroke-dasharray:none;stroke-dashoffset:0;stroke-opacity:1;paint-order:markers fill stroke"
       id="path57-4-5"
       d="m 375.62133,3481.843 -40.86698,-26.0199 -40.82993,-26.078 42.96741,-22.3819 42.99919,-22.3207 -2.10043,48.4018 z"
       transform="matrix(-0.01922945,-0.00131927,-9.1211604e-4,0.0278131,-123.19656,3858.6078)" /></g></svg>
